<?xml version="1.0" standalone="no"?>
<!DOCTYPE svg PUBLIC "-//W3C//DTD SVG 20010904//EN"
 "http://www.w3.org/TR/2001/REC-SVG-20010904/DTD/svg10.dtd">
<svg version="1.0" xmlns="http://www.w3.org/2000/svg"
 width="1136.000000pt" height="1136.000000pt" viewBox="0 0 1136.000000 1136.000000"
 preserveAspectRatio="xMidYMid meet">
<metadata>
Created by potrace 1.11, written by Peter Selinger 2001-2013
</metadata>
<g transform="translate(0.000000,1136.000000) scale(0.100000,-0.100000)"
fill="#000000" stroke="none">
<path d="M4276 10718 c-84 -316 -88 -345 -82 -503 6 -140 12 -238 21 -327 3
-27 1 -47 -3 -47 -4 1 -17 1 -29 0 -20 -1 -22 -5 -18 -33 2 -18 7 -64 10 -103
4 -38 10 -86 14 -105 4 -19 6 -48 5 -65 -1 -16 -2 -42 -3 -57 l-1 -27 -93 39
c-52 21 -118 50 -148 63 -30 14 -55 24 -57 22 -2 -1 18 -78 44 -171 94 -339
91 -321 90 -482 l-1 -147 -30 3 c-43 4 -83 57 -171 227 -29 55 -57 101 -62
103 -12 4 -138 -280 -152 -343 -12 -53 -6 -115 20 -192 11 -35 14 -53 6 -53
-7 0 -7 -3 -1 -8 14 -10 17 -32 5 -32 -7 0 -7 -6 0 -20 6 -11 8 -20 4 -20 -3
0 1 -11 10 -25 9 -14 12 -25 7 -25 -5 0 -13 5 -16 10 -4 6 -14 9 -23 8 -10 -2
-16 3 -14 10 1 8 -2 11 -9 6 -9 -5 -10 -2 -5 12 6 15 5 16 -5 7 -9 -9 -9 -16
-1 -26 7 -8 9 -17 5 -20 -9 -9 -23 -9 -22 1 4 26 -1 34 -16 22 -13 -10 -19
-10 -35 5 -11 10 -17 23 -13 29 3 6 2 7 -2 3 -12 -10 -16 -39 -5 -32 5 3 11 1
15 -5 6 -10 -7 -14 -32 -11 -6 1 -15 -4 -19 -10 -5 -8 -2 -10 9 -6 9 3 21 -1
29 -10 11 -15 11 -16 -6 -10 -17 7 -17 6 -5 -9 12 -15 11 -16 -11 -10 l-25 8
22 -16 c21 -15 22 -53 2 -40 -5 3 -9 0 -9 -6 0 -7 8 -9 22 -4 21 6 22 5 8 -11
-8 -11 -10 -16 -3 -12 6 4 13 1 16 -5 3 -10 8 -10 18 1 8 8 9 11 2 7 -8 -4
-11 0 -8 13 2 11 -3 25 -11 32 -8 6 -14 17 -14 23 1 6 10 0 20 -13 11 -13 21
-20 21 -17 2 10 6 25 9 34 1 4 2 10 1 15 -1 6 8 9 25 6 4 0 10 5 14 11 5 8 9
7 13 -4 3 -8 2 -18 -3 -21 -6 -4 -10 -11 -10 -17 0 -7 5 -6 15 2 8 6 13 21 12
32 -1 12 5 23 13 26 12 4 13 2 3 -9 -20 -24 11 -48 34 -26 4 5 4 8 -2 7 -22
-5 -36 1 -30 11 7 11 47 -9 46 -23 -1 -5 -3 -7 -6 -5 -2 1 -11 -7 -19 -18 -12
-17 -12 -21 3 -33 11 -10 12 -11 1 -6 -8 4 -23 14 -33 22 -9 8 -20 12 -24 9
-4 -4 2 -13 12 -21 14 -10 15 -15 5 -21 -8 -5 -11 -4 -7 2 4 6 0 13 -7 16 -8
3 -17 1 -19 -6 -3 -7 -4 5 -2 26 1 21 -2 40 -6 43 -5 3 -9 -1 -9 -10 0 -8 -6
-17 -12 -19 -10 -4 -10 -6 0 -6 6 -1 12 -6 12 -12 0 -5 -4 -8 -9 -5 -5 3 -15
-2 -22 -11 -12 -14 -11 -15 9 -9 14 5 22 3 22 -4 0 -6 -4 -8 -10 -5 -5 3 -10
2 -10 -4 0 -5 8 -12 18 -15 19 -6 28 -46 11 -46 -6 0 -7 -5 -3 -12 5 -7 11 -5
21 7 7 11 13 14 13 9 0 -6 -5 -15 -12 -22 -9 -9 -9 -12 2 -13 8 -1 18 -1 23 0
4 0 7 -3 7 -9 0 -10 -2 -11 -37 -15 -16 -2 -20 2 -18 17 2 10 0 16 -5 13 -5
-3 -7 4 -5 15 3 13 0 18 -7 14 -7 -4 -8 -2 -4 5 6 8 1 8 -18 0 -28 -13 -41
-36 -20 -36 7 0 11 4 8 9 -3 4 -1 8 4 8 17 0 21 -13 11 -34 -10 -20 -10 -20 5
-2 15 18 21 15 17 -8 -2 -10 29 -35 44 -36 6 0 3 5 -5 10 -8 5 -10 10 -5 10 6
0 17 -6 24 -12 12 -11 13 -10 7 6 -5 15 -4 17 7 8 8 -7 17 -9 20 -5 4 3 7 1 7
-5 0 -7 -6 -12 -13 -12 -7 0 -13 -9 -14 -20 -1 -11 2 -18 7 -15 10 6 49 -32
51 -49 3 -26 5 -32 17 -54 10 -18 17 -20 32 -12 34 18 36 10 2 -10 -18 -11
-30 -25 -27 -31 4 -6 13 -3 22 8 10 11 9 7 -2 -11 -16 -27 -16 -29 -1 -23 13
5 15 3 7 -10 -6 -11 -4 -24 5 -38 10 -16 12 -29 5 -46 -5 -13 -10 -22 -11 -19
-1 3 -3 14 -5 24 -2 10 -9 22 -15 26 -17 10 -17 15 0 35 12 15 12 17 1 10 -10
-6 -12 -4 -6 5 6 9 4 11 -5 5 -8 -5 -11 -4 -7 1 3 6 -3 11 -14 11 -10 1 -19
-3 -19 -8 0 -6 5 -7 12 -3 7 5 9 2 5 -9 -4 -12 -2 -14 11 -10 15 6 15 5 3 -11
-13 -15 -13 -19 0 -28 11 -7 11 -11 2 -15 -7 -2 -13 -10 -13 -16 0 -8 4 -7 12
1 16 16 33 16 21 0 -14 -18 -24 -48 -15 -47 20 3 32 -2 27 -11 -4 -6 -1 -9 7
-8 7 2 12 -3 10 -11 -3 -12 0 -12 12 -2 9 7 17 8 20 2 3 -5 0 -11 -6 -14 -7
-2 -9 -8 -5 -13 4 -5 11 -4 15 1 11 16 35 17 29 2 -3 -7 1 -14 8 -14 7 0 11 6
8 13 -2 6 0 15 5 18 5 3 9 -5 8 -17 -1 -18 -6 -22 -29 -20 -15 1 -27 -3 -27
-10 0 -7 -4 -6 -10 3 -5 8 -10 10 -10 4 0 -11 -7 -10 -115 10 -11 2 -58 14
-105 26 -78 21 -173 28 -287 21 -53 -3 -180 65 -442 237 -69 45 -126 80 -128
79 -4 -5 20 -106 69 -292 55 -208 66 -228 230 -421 76 -91 77 -92 67 -128 -14
-51 3 -96 57 -157 24 -27 44 -46 44 -43 0 4 11 -3 25 -16 13 -12 22 -27 18
-33 -3 -6 -1 -7 5 -3 6 4 22 -12 36 -37 26 -44 35 -84 16 -72 -6 4 -7 12 -4
18 4 7 4 9 0 6 -6 -6 -23 -3 -96 16 -8 2 -18 4 -22 4 -5 1 -8 6 -8 12 0 8 4 9
13 0 8 -6 17 -8 20 -4 4 3 13 0 22 -7 9 -7 18 -10 22 -6 3 3 1 6 -7 6 -10 0
-10 4 1 17 12 14 12 16 -1 8 -26 -16 -50 -12 -64 10 -11 17 -12 25 -3 36 10
11 9 11 -5 0 -10 -7 -15 -17 -12 -22 3 -5 0 -9 -5 -9 -6 0 -11 -5 -11 -11 0
-8 5 -8 15 1 9 8 15 9 15 2 0 -17 -20 -25 -34 -13 -7 6 -15 8 -18 5 -3 -3 -22
2 -41 10 -31 13 -35 18 -31 43 3 20 2 24 -5 14 -5 -8 -8 -23 -6 -34 3 -14 0
-17 -13 -12 -9 4 -27 10 -39 12 -13 3 -20 10 -16 16 3 6 1 7 -5 3 -6 -4 -31
-1 -54 5 -24 7 -47 14 -53 15 -5 2 -32 10 -59 18 l-49 16 84 -86 c46 -47 83
-90 82 -95 -2 -5 2 -8 9 -6 6 1 17 -8 23 -21 7 -13 16 -24 21 -25 5 -1 8 -5 7
-8 -1 -3 8 -12 20 -18 13 -7 29 -21 36 -33 9 -14 9 -18 1 -13 -7 4 -29 10 -49
12 -20 3 -40 9 -45 14 -6 5 -20 9 -32 9 -31 0 -86 25 -77 35 5 4 2 5 -4 1 -7
-4 -31 -2 -54 4 -32 9 -39 14 -28 21 10 7 7 8 -11 4 -16 -4 -45 2 -73 14 -31
13 -49 16 -53 9 -4 -7 -9 -6 -15 3 -7 11 -9 9 -9 -5 0 -11 -3 -16 -6 -13 -4 3
-16 2 -27 -4 -14 -8 -18 -8 -13 0 4 6 0 11 -8 11 -9 0 -16 -6 -16 -12 0 -7 -5
-5 -11 5 -5 9 -8 21 -5 25 2 4 0 14 -6 22 -8 12 -9 12 -4 -2 3 -10 1 -18 -5
-18 -6 0 -7 -5 -4 -10 3 -6 -2 -9 -12 -7 -25 4 -43 16 -43 30 0 7 4 6 10 -3 6
-9 10 -10 10 -3 0 17 -52 55 -67 48 -11 -3 -13 1 -8 18 5 17 4 19 -4 6 -6 -9
-8 -26 -6 -38 3 -14 0 -21 -8 -18 -7 2 -13 9 -13 15 -1 7 -2 17 -3 23 0 6 -8
9 -16 5 -22 -8 -45 4 -56 28 -10 21 -10 21 -5 -1 2 -13 -2 -24 -11 -27 -11 -5
-13 0 -8 17 5 19 4 20 -5 5 -6 -10 -16 -18 -22 -18 -6 0 -4 10 5 24 16 24 20
69 5 60 -4 -3 -5 -11 -1 -20 8 -20 -27 -56 -46 -48 -9 3 -25 7 -36 10 -11 2
-29 8 -40 13 -20 9 -54 23 -67 26 -5 2 -9 3 -10 5 -2 1 -12 3 -22 5 -17 3
-454 146 -496 162 -8 3 -19 7 -25 9 -5 1 -19 5 -30 9 -23 8 22 -35 220 -210
13 -11 37 -33 54 -48 18 -15 29 -32 26 -37 -3 -6 1 -7 9 -4 11 4 16 0 16 -14
0 -12 5 -24 12 -28 8 -5 9 -1 5 12 -5 14 -1 12 17 -8 13 -15 26 -25 28 -23 2
2 4 -4 4 -13 1 -9 4 -26 8 -37 6 -15 4 -15 -6 3 -8 12 -17 19 -22 15 -4 -4 -4
1 0 11 6 16 5 17 -14 5 -11 -7 -18 -18 -15 -24 4 -5 3 -7 -2 -3 -4 4 -15 2
-24 -5 -8 -6 -6 1 7 17 12 15 19 33 15 40 -5 7 -9 6 -11 -5 -2 -12 -12 -16
-35 -14 -18 1 -40 -3 -51 -8 -13 -6 -16 -6 -12 2 4 6 3 11 -3 11 -5 0 -8 14
-6 30 2 20 0 28 -7 24 -7 -5 -9 -1 -5 9 4 12 1 15 -16 11 -12 -2 -23 -8 -25
-14 -2 -5 -14 -3 -27 6 -14 9 -30 14 -37 11 -8 -3 -6 -6 5 -6 15 -1 16 -5 7
-21 -6 -11 -7 -19 -3 -18 9 3 13 -5 13 -24 0 -7 -5 -5 -11 5 -5 9 -15 17 -21
17 -6 0 -5 -7 3 -17 12 -14 12 -16 0 -8 -11 6 -13 4 -9 -7 7 -16 -25 -19 -39
-3 -5 4 -3 5 3 2 14 -8 39 19 25 27 -5 3 -11 0 -14 -6 -3 -7 -4 -3 -4 9 1 17
4 19 14 11 9 -7 13 -7 13 1 0 7 5 9 10 6 6 -3 10 -1 10 5 0 7 -6 10 -14 7 -10
-4 -13 0 -11 14 2 11 0 17 -6 14 -5 -4 -7 -11 -4 -16 4 -5 -1 -9 -10 -9 -11 0
-14 7 -10 28 5 24 4 25 -4 5 -6 -12 -8 -34 -5 -50 l4 -28 -18 24 c-13 16 -22
20 -26 12 -4 -6 -12 -11 -19 -11 -6 0 -2 7 9 16 18 15 18 15 -3 9 -14 -4 -23
-2 -23 5 0 6 -5 8 -12 4 -6 -4 -8 -3 -4 4 3 6 2 13 -3 16 -5 4 -13 -3 -16 -15
-7 -21 -7 -21 -21 -1 -15 22 -41 23 -54 2 -6 -9 -10 -7 -15 9 -3 12 -10 19
-15 16 -5 -3 -11 4 -15 15 -3 11 -11 20 -16 20 -6 0 -5 -9 1 -22 9 -18 6 -17
-10 5 -23 29 -43 36 -34 12 4 -8 1 -15 -6 -15 -6 0 -9 4 -6 9 3 5 -1 14 -9 21
-12 10 -18 10 -32 -1 -14 -12 -16 -12 -8 0 6 11 4 13 -9 8 -10 -4 -20 -7 -22
-7 -3 0 -3 -4 1 -9 3 -5 1 -12 -4 -15 -5 -4 -8 1 -7 10 1 9 12 22 25 28 12 7
19 15 15 19 -4 3 -1 13 6 22 9 11 9 15 1 15 -7 0 -9 5 -5 12 5 7 2 8 -7 3 -36
-21 -40 -27 -23 -39 14 -11 13 -14 -10 -29 -14 -10 -26 -13 -26 -7 0 5 5 10
11 10 5 0 8 4 4 10 -3 5 -12 7 -20 4 -8 -4 -12 -11 -8 -17 4 -6 1 -7 -7 -2
-10 6 -10 10 3 19 10 8 12 17 6 28 -6 11 -4 18 7 22 12 4 14 1 9 -13 -3 -11
-2 -22 3 -24 4 -3 8 6 7 21 0 18 -5 26 -15 23 -25 -6 -45 -9 -55 -10 -5 -1 -3
-5 5 -10 8 -6 18 -7 22 -5 4 3 8 0 8 -6 0 -6 -6 -10 -14 -8 -7 2 -22 -8 -33
-21 -15 -19 -22 -21 -28 -11 -5 9 -4 11 3 6 11 -7 17 6 13 27 -1 5 3 6 9 2 5
-3 10 -1 10 5 0 7 -12 9 -29 7 -25 -4 -29 -2 -26 15 3 12 7 23 11 27 4 3 4 -2
1 -11 -3 -10 -2 -20 3 -23 9 -5 7 42 -3 51 -3 3 -15 0 -27 -6 -26 -14 -42 1
-33 29 4 10 0 9 -10 -4 -9 -11 -19 -16 -24 -11 -4 5 -2 11 5 13 18 7 14 22 -5
18 -10 -1 -17 -9 -16 -17 2 -7 -6 -14 -17 -15 -11 -1 -19 1 -19 5 3 18 -2 35
-8 29 -3 -4 -11 1 -18 10 -9 13 -14 13 -20 3 -5 -7 -4 -11 1 -8 5 3 16 -3 26
-13 15 -16 15 -19 -8 -40 -13 -12 -24 -17 -24 -11 0 6 5 14 10 17 15 9 12 19
-11 33 -27 17 -52 -1 -43 -32 6 -20 5 -20 -19 3 -15 13 -24 27 -22 32 3 4 1
10 -4 13 -13 8 -7 -22 6 -35 6 -6 9 -17 7 -24 -3 -7 7 -20 21 -29 14 -9 23
-22 19 -28 -4 -6 -3 -8 3 -5 16 10 24 -18 10 -33 -9 -10 -9 -11 0 -6 8 4 11
-2 8 -21 -1 -16 -8 -27 -15 -25 -6 1 -9 -2 -5 -8 4 -6 21 1 43 20 20 16 38 27
41 24 3 -3 -5 -15 -19 -27 -14 -12 -18 -18 -8 -14 11 4 19 0 23 -14 4 -10 11
-19 16 -19 6 0 7 -5 3 -12 -4 -7 -3 -8 5 -4 6 4 15 -2 21 -16 10 -22 10 -21 5
4 -4 22 -2 26 10 22 8 -3 12 -10 9 -15 -3 -5 3 -6 12 -2 11 4 15 3 11 -4 -4
-6 0 -18 8 -27 9 -8 15 -18 15 -21 -1 -3 0 -9 3 -13 2 -4 3 -2 1 4 -1 6 3 17
9 23 9 10 9 12 -3 9 -9 -2 -14 3 -12 13 1 10 -9 21 -28 29 -17 7 -33 17 -36
22 -4 6 3 5 14 -1 17 -9 22 -8 27 10 6 19 8 19 20 3 7 -10 11 -23 8 -29 -2 -7
6 -23 17 -36 22 -24 22 -19 3 29 -3 7 2 12 13 11 12 0 14 -3 6 -6 -10 -4 -10
-10 3 -30 13 -18 14 -28 5 -38 -9 -11 -7 -14 9 -12 14 1 20 6 16 15 -3 7 0 10
6 7 6 -4 8 -13 5 -20 -5 -14 12 -35 28 -35 6 0 5 5 -2 12 -16 16 -15 25 3 25
8 0 12 -4 9 -8 -2 -4 4 -22 15 -39 10 -18 21 -28 23 -23 3 4 3 3 2 -4 -4 -17
13 -26 19 -11 2 8 8 9 13 4 5 -5 4 -11 -3 -13 -7 -3 -13 -12 -13 -22 0 -9 -5
-22 -12 -29 -9 -9 -9 -12 0 -12 7 0 12 6 12 13 0 8 4 7 10 -3 13 -21 12 -30
-2 -26 -7 1 -10 1 -5 -1 4 -3 5 -8 3 -12 -7 -11 27 -10 42 2 18 14 15 -1 -9
-36 l-21 -32 27 30 c26 30 27 30 21 5 -3 -14 -3 -19 0 -12 3 6 13 12 22 11 11
0 13 -2 4 -6 -8 -3 -1 -12 20 -23 18 -10 32 -24 30 -32 -2 -7 0 -10 3 -6 4 4
16 -3 27 -15 11 -12 17 -16 13 -9 -4 7 0 12 9 12 9 0 16 5 16 10 0 6 -6 10
-13 9 -26 -3 -38 1 -31 12 4 8 9 7 16 -2 8 -11 9 -11 5 1 -2 8 -10 14 -16 13
-6 -2 -11 2 -11 7 0 18 25 10 39 -12 l13 -22 15 25 c13 22 13 22 8 2 -4 -15 0
-25 14 -33 13 -7 18 -16 14 -27 -5 -12 -3 -14 8 -8 12 8 12 6 0 -8 -18 -22
-10 -29 33 -30 19 -1 32 -5 29 -11 -4 -5 1 -7 11 -3 13 5 15 3 7 -12 -14 -25
-1 -35 16 -13 13 15 13 15 4 -4 -6 -12 -7 -25 -3 -29 4 -5 2 -5 -5 -1 -8 4
-11 0 -8 -15 3 -15 0 -19 -10 -15 -8 3 -17 1 -20 -3 -2 -5 11 -8 29 -6 25 1
33 -2 29 -12 -6 -16 9 -17 26 0 11 10 13 9 8 -6 -4 -10 -3 -15 2 -12 9 5 24
-27 25 -54 1 -8 7 -15 14 -17 7 -1 8 0 2 3 -5 2 -10 9 -10 14 0 6 8 5 20 -1
12 -6 17 -17 14 -28 -4 -12 -3 -13 3 -4 7 9 13 6 23 -13 9 -17 19 -24 29 -19
26 11 61 13 55 3 -3 -5 -1 -9 5 -9 5 0 11 5 13 10 2 6 9 0 17 -12 13 -20 12
-22 -1 -11 -8 7 -17 10 -21 7 -10 -10 -57 -12 -50 -1 3 6 1 7 -6 3 -6 -4 -9
-12 -6 -17 4 -5 1 -9 -4 -9 -6 0 -11 5 -11 12 0 6 -3 8 -7 5 -3 -4 4 -19 18
-33 l24 -26 -25 5 c-14 2 -19 2 -12 0 7 -3 10 -9 7 -14 -4 -5 2 -6 12 -2 16 6
16 5 4 -10 -7 -9 -17 -14 -22 -11 -5 3 -9 0 -9 -6 0 -7 7 -10 18 -6 14 5 14 4
-2 -9 -16 -12 -22 -12 -28 -2 -5 7 -8 8 -8 1 0 -6 9 -19 20 -29 16 -14 18 -21
8 -28 -9 -6 -8 -7 5 -3 11 3 20 0 23 -9 8 -20 23 -19 46 2 10 9 18 12 18 6 0
-5 -12 -16 -26 -24 -22 -12 -28 -11 -38 1 -6 8 -18 15 -26 15 -8 0 -14 6 -12
13 2 9 -4 12 -17 7 -11 -3 -25 1 -34 10 -9 8 -20 15 -26 15 -5 0 -34 13 -63
29 -29 16 -63 32 -75 35 -21 7 -22 5 -18 -26 2 -18 7 -69 10 -113 4 -44 9 -84
12 -88 5 -8 -218 -1 -264 7 -10 2 -54 7 -99 10 -77 6 -105 10 -156 21 -13 2
-81 25 -153 51 -283 101 -693 244 -700 244 -2 0 -1 -8 3 -17 10 -24 109 -213
125 -238 140 -225 210 -302 328 -358 85 -41 142 -80 209 -143 25 -23 67 -62
94 -87 54 -50 54 -51 -26 -76 -21 -7 -38 -16 -37 -19 1 -11 194 -174 294 -248
50 -37 92 -71 95 -74 3 -4 14 -12 25 -19 16 -9 -1 -10 -83 -5 l-103 6 104
-138 c103 -138 140 -177 248 -264 31 -25 67 -64 80 -88 22 -39 34 -48 124 -89
107 -49 147 -77 264 -190 l74 -71 -29 -32 c-85 -92 -163 -164 -196 -181 -64
-33 -198 -83 -483 -181 -33 -11 -64 -24 -68 -28 -4 -3 18 -12 50 -19 32 -7
112 -26 178 -43 133 -33 130 -32 200 -48 28 -6 88 -20 135 -31 47 -12 93 -23
103 -25 53 -10 64 -21 58 -56 -2 -13 32 -24 106 -37 39 -7 77 -14 85 -15 7 -2
34 -6 60 -10 37 -6 53 -15 72 -41 30 -39 107 -90 175 -116 49 -18 159 -37 436
-74 22 -3 51 -8 65 -11 14 -2 39 -7 55 -10 80 -14 218 -50 292 -75 109 -39
273 -115 273 -128 0 -5 9 -8 20 -6 12 2 18 0 15 -6 -4 -5 -10 -7 -15 -4 -4 3
-13 -2 -20 -10 -7 -9 -20 -15 -29 -13 -9 1 -30 -12 -48 -30 -20 -20 -37 -30
-47 -26 -11 4 -16 1 -16 -11 0 -11 -5 -15 -15 -11 -21 8 -46 -4 -38 -18 3 -6
3 -8 -2 -4 -5 5 -16 -6 -26 -22 -18 -29 -39 -40 -39 -20 0 6 -5 10 -12 10 -6
0 -23 10 -37 23 l-26 22 19 -22 c20 -24 9 -32 -12 -11 -9 9 -12 9 -12 0 0 -7
5 -12 11 -12 5 0 7 -5 4 -10 -4 -6 -11 -7 -17 -4 -6 4 -8 2 -5 -3 4 -6 0 -14
-9 -17 -12 -5 -15 -2 -10 11 6 17 5 17 -8 0 -8 -10 -17 -18 -20 -18 -3 1 -5
-1 -3 -2 1 -2 -4 -11 -12 -20 -11 -14 -11 -17 -1 -17 16 0 3 -15 -13 -15 -7
-1 -14 3 -17 7 -3 4 -12 -3 -19 -15 -13 -20 -13 -21 2 -9 10 9 17 10 22 2 3
-5 1 -10 -5 -10 -7 0 -9 -7 -6 -16 4 -11 2 -15 -7 -11 -8 3 -20 1 -28 -4 -12
-8 -12 -10 1 -8 28 3 40 -1 40 -12 0 -6 -7 -9 -15 -5 -14 5 -13 2 0 -24 18
-35 30 -38 45 -11 14 27 13 30 -10 26 -17 -3 -18 -1 -11 14 7 12 6 22 -2 31
-9 10 -9 11 1 6 8 -5 11 -2 10 6 -2 7 3 12 10 10 8 -1 11 2 6 10 -5 10 -4 10
6 1 7 -6 20 -9 29 -6 12 4 13 3 3 -4 -7 -6 -14 -19 -15 -31 0 -11 -5 -18 -9
-16 -4 3 -8 0 -8 -5 0 -6 8 -11 17 -11 15 0 14 -2 -3 -14 -19 -15 -19 -15 1
-31 20 -16 20 -16 -2 -6 -14 7 -24 8 -28 1 -3 -5 -1 -10 5 -10 6 0 8 -5 4 -12
-5 -7 -2 -9 8 -6 8 4 15 0 15 -7 0 -10 -5 -11 -19 -4 -10 5 -18 14 -18 19 0 6
-5 10 -10 10 -6 0 -9 -5 -8 -12 4 -19 22 -36 32 -30 5 3 6 0 2 -6 -5 -9 -14
-7 -32 5 -17 10 -21 19 -14 23 18 11 17 20 -3 31 -9 6 -17 17 -17 26 0 9 -3
13 -7 10 -3 -4 0 -18 7 -32 10 -19 10 -27 1 -39 -7 -8 -18 -14 -24 -12 -7 1
-9 1 -4 -1 4 -3 4 -9 1 -15 -3 -5 -14 -2 -26 9 -20 18 -21 18 -7 -5 14 -22 18
-24 54 -26 11 -1 29 -7 40 -15 16 -10 17 -11 2 -7 -11 3 -20 0 -23 -9 -4 -8
-11 -12 -17 -8 -7 4 -8 0 -3 -12 6 -16 4 -16 -11 -4 -15 12 -16 12 -10 -6 7
-20 7 -20 -8 -1 -8 11 -15 16 -15 11 0 -4 -10 0 -22 11 -12 10 -18 13 -13 5 6
-11 4 -13 -8 -8 -9 3 -16 3 -16 -1 3 -20 -2 -33 -11 -27 -10 6 -12 0 -14 -40
-1 -11 -5 -26 -10 -34 -6 -10 -5 -12 5 -9 8 3 13 12 13 21 -1 9 3 14 9 10 6
-4 7 -1 2 6 -4 7 4 5 19 -4 22 -14 28 -35 10 -35 -3 0 -2 4 1 10 8 13 -1 13
-26 -1 -11 -5 -16 -15 -13 -21 4 -7 3 -8 -5 -4 -6 4 -25 -4 -42 -19 -26 -21
-34 -23 -47 -13 -8 7 -18 12 -21 10 -3 -2 -7 2 -10 9 -2 7 1 9 8 5 7 -5 9 -1
4 10 -6 15 -7 15 -15 -1 -6 -9 -7 -19 -4 -23 3 -3 -3 -16 -15 -28 -17 -18 -26
-21 -40 -13 -13 6 -19 6 -19 -1 0 -5 7 -10 15 -10 8 0 15 -5 15 -11 0 -6 -9
-9 -20 -6 -12 3 -17 1 -14 -5 3 -5 -2 -18 -11 -29 -17 -18 -19 -18 -32 -1 -8
9 -12 11 -8 4 4 -7 -3 -16 -17 -22 -22 -10 -21 -10 4 -5 21 4 26 2 22 -9 -5
-14 -32 -14 -57 0 -8 5 -9 4 -2 -4 6 -6 17 -12 25 -14 20 -4 47 -41 33 -45 -5
-2 -19 -10 -29 -18 -17 -13 -18 -14 -1 -15 9 0 17 -4 17 -10 0 -15 -29 0 -41
21 -8 15 -6 17 8 12 23 -8 15 1 -16 17 -16 8 -21 9 -16 1 4 -7 1 -19 -6 -27
-12 -14 -14 -14 -27 3 -13 17 -14 16 -7 -6 6 -18 4 -22 -6 -15 -12 7 -12 5 -1
-9 8 -9 10 -22 6 -28 -5 -8 -3 -10 7 -4 8 5 11 5 7 0 -4 -4 -3 -14 3 -22 9 -9
8 -13 0 -13 -6 0 -11 3 -11 8 0 4 -13 14 -28 23 -27 15 -28 15 -29 -5 -1 -12
1 -15 4 -9 3 10 10 10 24 2 11 -5 17 -14 14 -20 -4 -5 -1 -9 4 -9 14 0 14 -37
0 -46 -8 -4 -9 1 -4 17 7 23 7 23 -11 6 -19 -18 -18 -19 4 -37 12 -10 18 -21
13 -24 -5 -4 -12 0 -14 6 -4 9 -6 10 -6 1 -2 -21 18 -24 46 -7 l28 16 -25 -21
c-14 -11 -31 -18 -39 -16 -9 4 -11 0 -7 -10 3 -8 1 -15 -4 -15 -6 0 -10 7 -10
16 0 8 -5 12 -10 9 -6 -4 -8 -10 -5 -14 6 -10 -24 -38 -45 -43 -8 -2 -17 -5
-20 -8 -3 -3 -17 -13 -31 -22 -20 -13 -29 -14 -38 -5 -9 9 -11 8 -6 -5 8 -21
-14 -24 -35 -5 -12 10 -12 9 -1 -5 12 -16 -7 -27 -189 -115 -154 -74 -198 -99
-183 -105 10 -4 108 -26 218 -49 110 -22 209 -42 220 -45 11 -3 29 -7 40 -9
11 -3 50 -13 86 -24 80 -23 185 -22 352 5 26 4 27 3 16 -17 -11 -21 -10 -21
62 -15 41 3 126 8 189 12 124 6 164 14 237 45 37 16 78 21 217 25 94 4 180 6
190 6 29 -1 36 -22 19 -55 -14 -27 -13 -35 11 -113 15 -46 30 -84 34 -84 4 0
83 20 176 45 92 25 193 48 223 51 42 6 72 19 141 64 224 146 316 194 404 210
29 6 61 13 71 16 15 5 17 -2 17 -53 0 -107 33 -194 102 -269 22 -24 37 -47 35
-51 -3 -5 -8 -26 -11 -48 -4 -22 -19 -102 -35 -177 -15 -75 -24 -135 -19 -132
12 8 10 -10 -4 -24 -9 -9 -9 -12 0 -12 7 0 12 5 12 11 0 5 4 7 10 4 6 -4 7 1
3 11 -5 14 -3 16 11 11 9 -4 15 -3 11 2 -3 5 49 65 115 133 66 68 136 149 156
180 19 32 40 58 47 58 6 0 30 9 54 21 38 18 48 31 84 104 34 71 44 85 70 90
45 10 128 102 178 197 59 112 102 164 303 370 87 90 98 99 117 88 13 -7 19
-16 14 -23 -4 -7 -8 -14 -9 -17 0 -3 -6 -18 -13 -35 -7 -16 -12 -31 -12 -32 0
-1 -16 -34 -35 -73 -19 -39 -34 -73 -34 -75 0 -3 -11 -28 -24 -55 -13 -28 -19
-47 -13 -43 101 58 270 187 341 261 42 43 58 46 49 9 -3 -12 -2 -19 2 -15 5 4
15 2 24 -5 14 -10 14 -10 4 3 -9 12 -7 20 7 38 22 27 34 29 20 3 -7 -15 -7
-19 5 -17 8 1 18 6 22 11 4 4 3 5 -4 1 -18 -10 -11 37 8 57 9 9 20 13 24 9 5
-4 6 -2 2 4 -3 5 9 27 26 47 18 20 46 53 62 73 17 20 47 54 67 76 21 23 40 49
44 60 5 18 8 17 54 -9 41 -24 107 -74 144 -108 31 -28 199 -148 256 -181 45
-27 78 -39 109 -40 24 -1 47 -8 52 -15 6 -10 9 -7 9 11 l0 24 16 -22 c14 -21
41 -22 29 -1 -9 13 2 11 35 -6 21 -11 31 -12 36 -3 4 6 3 8 -2 5 -6 -3 -16 -2
-23 3 -9 5 -3 7 17 7 17 -1 30 -4 30 -7 -1 -19 4 -21 21 -6 17 16 19 16 25 0
5 -13 9 -14 20 -4 8 6 28 12 45 12 19 1 28 5 24 12 -4 6 4 2 17 -9 l23 -20
-13 25 c-12 23 -12 24 3 11 12 -9 17 -10 17 -2 0 7 5 9 10 6 6 -3 10 1 10 9 0
8 5 18 12 22 8 5 9 2 5 -9 -3 -9 -1 -19 5 -23 7 -4 8 -3 4 4 -5 8 0 12 13 12
19 0 25 -10 22 -32 0 -3 13 -4 29 -2 22 4 34 -1 51 -20 13 -15 27 -26 33 -26
5 0 2 6 -9 13 -14 11 -15 16 -5 22 9 5 11 4 6 -3 -4 -7 -1 -12 8 -12 9 0 16
-5 16 -11 0 -8 6 -7 17 2 15 12 16 12 10 -4 -6 -15 -3 -17 14 -12 15 5 19 4
15 -4 -4 -6 0 -11 9 -11 10 0 13 -5 9 -12 -4 -7 -3 -8 5 -4 9 6 9 12 -1 24
-11 15 -11 15 3 5 9 -7 19 -10 23 -6 4 4 4 -1 0 -12 -7 -17 -5 -18 7 -8 12 10
17 8 27 -8 15 -23 32 -25 32 -3 0 8 5 12 10 9 6 -4 8 -11 5 -16 -9 -13 9 -11
23 3 9 9 11 7 8 -9 -4 -16 1 -19 22 -18 15 1 34 -3 42 -9 13 -10 13 -9 0 8
-13 18 -13 19 0 14 12 -5 16 1 14 23 -1 16 2 26 7 23 5 -3 7 -9 4 -13 -2 -5 7
-6 20 -3 21 4 24 1 19 -14 -5 -18 -5 -18 6 -1 11 18 13 18 33 0 20 -16 20 -16
8 0 -12 15 -12 17 3 11 9 -3 24 0 34 7 13 10 12 8 -3 -9 -14 -17 -16 -23 -5
-20 8 2 18 8 22 13 5 6 8 5 8 -2 0 -7 5 -13 11 -13 5 0 7 5 3 11 -4 7 1 7 16
-1 15 -8 20 -8 16 -1 -4 6 -3 11 3 11 5 0 12 -6 14 -12 4 -10 6 -10 6 0 1 7 6
10 13 6 20 -13 60 -13 55 -1 -3 8 14 12 54 13 46 0 56 -2 48 -12 -8 -10 -5
-10 15 -1 14 7 21 13 16 15 -6 2 -10 11 -10 19 0 13 2 14 17 2 10 -8 6 0 -7
17 -14 17 -27 30 -29 28 -2 -2 2 -12 10 -21 13 -17 13 -17 -7 0 -11 9 -24 14
-29 10 -4 -5 -2 2 4 15 12 22 11 23 -11 11 -13 -6 -20 -8 -16 -4 8 9 -14 35
-24 28 -4 -2 -5 3 -2 11 4 11 0 16 -10 16 -10 0 -16 9 -17 23 0 21 -1 21 -9 2
-8 -18 -9 -18 -9 -2 -1 14 -6 17 -23 12 -23 -7 -23 -7 -3 10 11 9 15 14 8 11
-6 -4 -14 -2 -18 4 -4 6 -12 7 -18 3 -9 -5 -8 -2 0 8 11 13 9 15 -10 15 -16
-1 -21 4 -19 17 2 10 -3 17 -13 17 -12 0 -15 6 -9 22 6 21 5 22 -12 8 -10 -8
-16 -11 -12 -6 4 4 3 19 -3 33 -6 16 -6 22 1 18 6 -3 10 1 10 9 0 9 -6 16 -14
16 -8 0 -17 7 -20 16 -10 26 -7 29 9 8 14 -18 14 -18 8 3 -3 13 -10 23 -15 23
-5 0 -8 10 -6 23 2 13 -5 29 -17 39 -20 17 -20 17 2 11 15 -3 26 1 34 15 12
19 14 19 26 4 12 -15 13 -15 7 -1 -3 10 0 20 7 25 7 4 10 3 5 -4 -3 -6 -2 -13
4 -17 5 -3 10 1 10 9 0 8 5 18 11 22 8 4 9 -1 4 -16 -6 -20 -5 -21 8 -9 8 8
13 17 11 20 -2 4 10 5 27 3 16 -2 27 0 24 5 -3 5 0 13 6 17 7 4 9 3 5 -4 -3
-6 -2 -13 4 -17 6 -4 7 -11 4 -17 -4 -7 -2 -8 5 -4 6 4 8 12 5 18 -5 7 -1 9 9
5 11 -4 17 -1 17 7 0 15 16 16 39 2 10 -6 12 -5 7 3 -5 8 -3 12 5 10 28 -3 40
1 33 13 -4 6 3 4 17 -5 28 -20 43 -22 33 -4 -5 7 0 6 11 -3 17 -13 18 -13 13
0 -4 11 3 15 28 16 25 1 34 -4 35 -15 0 -12 3 -11 9 4 5 11 9 14 9 8 1 -7 6
-13 12 -13 5 0 7 5 3 11 -4 7 -1 10 7 7 8 -3 13 -10 12 -16 -2 -6 4 -9 13 -5
13 5 13 7 2 15 -16 11 36 3 54 -8 9 -5 9 -2 -1 9 -12 15 -12 17 3 11 9 -3 16
-10 16 -15 0 -10 29 -7 49 5 11 7 13 5 8 -8 -6 -14 -4 -15 15 -5 17 9 24 8 34
-5 11 -16 13 -16 17 1 4 16 5 16 6 1 0 -10 6 -18 12 -18 5 0 7 6 4 13 -4 6 0
3 9 -7 8 -10 13 -23 9 -29 -3 -6 -1 -7 6 -3 6 4 9 10 7 14 -2 4 8 8 22 9 22 1
23 -1 9 -8 -9 -6 -17 -15 -17 -22 0 -8 3 -8 9 2 6 9 11 10 15 2 4 -6 14 -11
22 -11 9 0 12 5 8 12 -4 7 -3 8 4 4 7 -4 12 -14 12 -22 0 -8 5 -14 11 -14 5 0
7 5 3 11 -5 8 -1 8 14 0 11 -6 23 -16 25 -23 4 -10 6 -10 6 0 1 7 5 11 11 7 5
-3 6 -13 3 -22 -6 -15 -5 -16 9 -3 9 8 13 20 10 25 -2 6 1 5 8 -2 7 -6 19 -9
27 -6 11 4 10 8 -4 19 -17 13 -17 13 2 14 11 1 14 4 7 7 -6 2 -10 9 -7 13 3 5
0 12 -6 16 -8 4 -9 3 -5 -4 4 -7 2 -12 -3 -12 -14 0 -14 17 0 26 8 4 3 12 -12
20 -13 7 -18 13 -11 14 7 0 10 4 7 10 -3 6 1 7 9 4 11 -4 16 0 16 12 0 11 4
15 8 9 8 -12 32 -13 50 -2 6 5 17 5 24 1 7 -5 9 -2 5 9 -4 11 -2 14 9 10 8 -3
14 1 14 8 1 10 4 9 10 -3 10 -16 12 -16 39 0 16 9 27 20 25 24 -3 5 -3 8 1 8
3 0 10 -10 15 -22 7 -19 9 -20 9 -4 1 14 7 17 30 14 23 -3 28 -1 23 11 -4 12
1 11 19 -4 20 -17 21 -17 9 -2 -12 17 -12 18 6 15 12 -2 18 2 16 10 -1 8 2 11
8 7 6 -3 8 -11 5 -16 -3 -5 2 -6 11 -2 13 5 15 3 9 -8 -5 -8 1 -6 13 5 12 10
19 23 15 29 -3 5 -1 7 5 3 5 -3 12 -3 15 1 2 5 2 3 1 -4 -2 -7 2 -15 9 -19 7
-4 9 -4 5 1 -12 13 12 35 29 28 12 -5 14 -3 8 8 -7 11 -5 11 10 -1 11 -9 16
-10 11 -2 -9 15 -1 15 27 0 20 -10 21 -10 8 6 -12 14 -12 16 4 10 14 -6 16 -4
10 7 -8 12 -6 12 8 0 9 -7 17 -9 17 -3 0 16 33 24 42 10 6 -10 8 -10 8 2 0 13
1 13 10 0 7 -10 10 -11 10 -2 0 7 -11 17 -25 24 -13 6 -22 15 -18 21 4 6 -4 8
-20 5 -19 -4 -25 -1 -22 11 2 11 -4 17 -15 17 -10 0 -16 -4 -14 -8 3 -4 -2 -5
-10 -2 -9 3 -13 11 -9 18 4 6 -2 4 -12 -4 -10 -8 -16 -10 -12 -4 4 7 0 15 -9
18 -8 3 -12 2 -9 -3 3 -5 0 -13 -6 -17 -8 -4 -9 -3 -5 4 7 12 -22 43 -38 41
-5 0 -13 5 -18 13 -6 9 -7 5 -3 -11 6 -21 5 -22 -8 -10 -8 8 -13 17 -11 21 2
4 -1 10 -7 14 -8 4 -9 3 -5 -4 4 -7 2 -12 -3 -12 -6 0 -11 5 -11 11 0 7 -12 9
-31 7 -27 -4 -30 -2 -25 16 4 18 3 19 -7 5 -9 -12 -15 -13 -23 -5 -22 24 -23
34 -6 47 15 12 16 12 4 -2 -10 -14 -10 -18 3 -22 8 -4 14 -3 14 1 -5 30 2 34
23 16 19 -15 20 -16 9 -2 -10 13 -10 18 -2 18 7 0 9 5 5 13 -5 7 0 6 11 -3 10
-8 16 -10 12 -4 -4 7 0 15 9 18 24 9 31 7 14 -4 -10 -7 -11 -10 -2 -10 7 0 15
7 18 15 4 8 10 15 15 15 4 0 5 -8 2 -18 -7 -16 -6 -16 11 1 10 9 22 14 28 11
7 -4 8 -2 4 5 -4 6 -12 8 -18 5 -7 -4 -8 -2 -4 5 4 6 12 9 17 6 5 -4 9 0 9 7
0 9 3 9 10 -2 9 -13 14 -11 32 10 l21 25 -7 -25 c-3 -14 -3 -19 0 -12 3 6 11
9 16 6 7 -4 8 -2 4 5 -4 6 0 14 11 18 10 4 21 11 25 17 5 7 8 7 8 -2 0 -7 5
-10 12 -6 7 4 8 3 4 -4 -4 -7 -2 -12 3 -12 6 0 11 7 11 16 0 8 5 12 10 9 6 -4
7 -11 4 -17 -4 -7 -2 -8 5 -4 6 4 9 10 7 14 -2 4 2 13 10 20 8 7 14 9 14 4 0
-6 9 -12 21 -15 17 -4 18 -3 8 9 -10 12 -9 13 6 8 12 -5 16 -4 12 3 -5 7 1 9
15 5 16 -4 19 -2 13 8 -5 8 -4 11 3 6 6 -3 13 -2 17 4 4 7 13 6 27 -1 13 -7
18 -7 14 -1 -3 6 -2 13 4 17 5 3 10 1 10 -4 0 -6 4 -11 10 -11 5 0 7 6 4 14
-3 8 0 17 7 22 8 4 10 3 5 -4 -5 -8 0 -11 15 -9 13 2 25 9 27 15 2 7 8 10 13
6 18 -11 31 7 17 24 -10 14 -10 15 2 5 18 -17 44 -17 34 0 -5 7 0 6 11 -3 15
-12 17 -12 10 -1 -6 11 -4 13 8 8 10 -3 17 -2 17 3 0 6 -5 10 -12 10 -6 0 -8
3 -5 6 4 4 13 2 21 -5 11 -9 15 -8 20 5 5 14 9 14 24 3 9 -7 14 -9 10 -5 -4 5
2 17 14 27 17 15 24 17 37 7 9 -7 13 -8 9 -4 -11 13 29 39 45 30 9 -6 9 -5 0
8 -7 8 -10 18 -6 21 3 4 1 7 -6 7 -7 0 -10 4 -6 9 3 6 -2 14 -11 19 -20 11
-10 34 11 26 8 -4 12 -11 8 -17 -3 -6 -1 -7 6 -3 6 4 9 11 6 16 -3 4 2 13 10
20 13 11 14 10 9 -6 -5 -14 -4 -16 4 -9 7 6 13 23 14 37 1 15 6 24 10 22 4 -3
8 2 8 11 0 9 4 14 9 11 5 -3 12 1 15 10 4 10 2 13 -7 8 -6 -4 -2 3 10 15 25
24 42 29 23 6 -7 -9 -10 -18 -6 -22 3 -3 6 -1 6 6 0 8 6 11 16 7 8 -3 12 -2 9
4 -4 6 1 18 11 27 16 16 16 16 10 -7 l-7 -25 14 24 c11 18 16 21 21 10 3 -8 4
-4 2 9 -3 18 -2 21 9 12 15 -13 41 -4 49 17 5 11 14 13 34 9 15 -4 22 -3 15 2
-9 6 -7 12 8 26 20 17 21 17 14 -6 l-6 -23 14 24 c11 18 16 21 21 10 3 -8 4
-3 2 9 -4 23 -4 23 15 6 10 -9 22 -14 26 -11 3 4 1 7 -6 7 -7 0 -10 4 -7 9 4
5 0 12 -6 15 -7 3 2 3 20 0 18 -2 32 0 32 6 0 5 -5 10 -12 10 -6 0 -8 3 -5 6
4 4 18 -1 32 -10 26 -17 26 -17 14 6 -12 22 -11 22 6 8 17 -13 18 -13 13 1 -4
9 -1 16 8 16 7 0 10 -5 7 -11 -4 -6 0 -5 9 1 8 7 18 10 21 6 4 -3 7 3 7 15 0
15 5 20 15 16 8 -4 15 -1 15 5 0 6 4 11 10 11 5 0 7 -8 4 -17 -2 -10 1 -8 8 5
8 17 18 22 34 19 17 -3 21 0 16 11 -3 10 -1 13 6 8 7 -4 12 -3 12 3 0 6 7 7
17 4 12 -5 14 -3 8 8 -8 12 -6 12 9 0 15 -13 18 -12 23 7 l5 21 18 -21 c12
-15 19 -18 24 -9 4 6 4 10 -1 9 -4 -2 -8 2 -8 7 0 6 3 9 8 7 4 -1 7 2 7 8 0
11 21 10 30 -1 3 -4 12 0 20 9 13 14 12 15 -3 9 -9 -3 -17 -2 -17 2 0 5 4 11
9 13 5 1 2 10 -7 18 -14 13 -15 12 -9 -3 3 -9 2 -19 -4 -22 -5 -4 -8 -1 -7 6
2 7 -1 13 -7 14 -19 1 -35 16 -29 27 4 7 2 8 -5 4 -6 -4 -19 -2 -27 5 -8 7
-14 8 -13 3 4 -24 -2 -27 -16 -7 -13 18 -20 20 -45 13 -19 -6 -32 -5 -36 2 -5
7 -2 8 6 3 8 -5 11 -4 7 2 -4 6 -16 13 -27 16 -18 4 -19 3 -9 -9 10 -12 9 -13
-3 -9 -9 4 -21 16 -27 28 -6 12 -10 15 -7 6 3 -12 -1 -15 -15 -12 -10 3 -19
10 -19 17 0 6 -5 4 -10 -4 -5 -8 -10 -10 -10 -5 0 6 -9 16 -20 23 -21 13 -21
12 -4 -15 l17 -28 -26 28 c-22 25 -26 26 -30 10 -4 -16 -5 -16 -6 -1 -1 12 -6
15 -18 11 -12 -5 -14 -3 -8 7 5 9 4 11 -4 6 -9 -6 -9 -11 1 -24 12 -14 10 -14
-10 -3 -12 7 -20 17 -16 23 4 7 3 8 -5 4 -6 -4 -9 -12 -6 -17 4 -5 1 -9 -4 -9
-6 0 -11 5 -11 10 0 6 -7 10 -16 10 -9 0 -12 5 -8 12 5 7 3 8 -5 4 -7 -5 -10
-15 -7 -25 4 -9 -3 -5 -14 9 -15 19 -18 20 -13 6 4 -13 3 -17 -5 -12 -7 4 -12
1 -13 -6 0 -7 -5 -3 -11 10 -6 12 -15 22 -20 22 -5 0 -6 -4 -3 -10 11 -17 -7
-11 -21 8 -13 16 -14 16 -8 -3 5 -18 3 -17 -15 4 -12 13 -21 19 -21 13 0 -5
-13 -12 -30 -14 -22 -3 -30 0 -30 10 0 11 -3 12 -13 3 -19 -15 -30 -1 -14 18
11 14 10 14 -5 2 -10 -7 -15 -17 -12 -22 11 -18 -9 -9 -27 13 -11 11 -19 16
-19 9 0 -9 -5 -9 -22 0 -20 11 -21 10 -11 -2 10 -13 7 -15 -20 -13 -17 1 -33
7 -35 13 -2 6 -8 11 -13 11 -6 0 -8 -4 -5 -9 3 -5 0 -11 -8 -14 -10 -4 -13 1
-12 17 2 13 -3 23 -10 23 -7 0 -11 -4 -8 -9 3 -4 -2 -8 -10 -8 -9 0 -19 0 -23
-1 -4 0 -9 4 -11 10 -2 6 1 11 8 11 6 0 8 -5 4 -12 -4 -6 -3 -8 4 -5 5 4 8 15
6 25 -3 10 4 22 18 31 l23 14 -20 -24 -20 -24 28 24 c16 15 27 19 27 11 0 -7
9 -1 21 14 12 15 17 31 13 38 -6 9 -3 9 9 -1 14 -11 17 -11 17 0 -1 26 -25 45
-55 45 -16 -1 -31 -7 -31 -13 -3 -23 -4 -24 -24 -13 -11 6 -18 16 -15 23 4 7
1 5 -7 -3 -7 -9 -22 -14 -33 -12 -17 3 -18 1 -5 -8 13 -10 13 -11 0 -7 -8 2
-16 9 -16 15 -3 25 -6 26 -13 8 -7 -17 -8 -17 -24 -2 -16 16 -17 16 -17 -6 l0
-22 -16 22 c-11 16 -20 20 -27 14 -22 -18 -87 -21 -102 -5 -13 13 -15 12 -16
-9 0 -22 -1 -22 -9 -3 -5 11 -9 15 -9 9 -1 -7 -12 -9 -27 -6 -20 4 -25 2 -19
-8 4 -6 -5 -4 -21 6 -15 11 -25 14 -21 8 4 -7 0 -15 -9 -18 -8 -3 -13 -2 -10
2 3 5 -1 9 -9 9 -8 0 -12 -4 -9 -9 3 -4 0 -8 -5 -8 -6 0 -11 4 -11 8 0 5 -7 9
-15 9 -8 0 -12 -4 -9 -9 3 -4 0 -8 -5 -8 -6 0 -11 5 -11 12 0 6 -12 1 -27 -13
-14 -13 -22 -17 -18 -9 12 19 14 50 3 44 -4 -3 -8 -13 -8 -22 0 -10 -3 -13 -8
-6 -8 11 -62 14 -62 3 0 -12 -40 3 -40 15 0 6 -5 3 -11 -6 -6 -11 -16 -15 -27
-11 -15 6 -16 5 -2 -13 14 -18 14 -18 -3 -5 -13 10 -14 17 -7 26 8 10 8 15 -1
21 -8 4 -9 3 -5 -4 4 -7 1 -12 -8 -12 -8 0 -22 -3 -30 -6 -11 -4 -15 -2 -13 7
2 8 2 11 0 6 -3 -4 -10 -4 -15 -1 -7 4 -8 2 -4 -4 4 -7 1 -12 -8 -12 -10 0
-13 6 -9 18 4 11 0 9 -13 -7 -19 -22 -21 -22 -34 -5 -9 11 -10 15 -2 10 6 -4
12 -2 12 3 0 15 -13 14 -29 -1 -11 -10 -13 -10 -7 0 4 6 2 12 -3 12 -6 0 -11
-5 -11 -10 0 -6 -6 -5 -14 2 -8 7 -12 16 -10 19 2 4 -2 7 -9 6 -34 -1 -48 4
-41 15 4 7 3 8 -5 4 -6 -4 -9 -11 -6 -16 3 -4 -3 -7 -12 -5 -10 2 -22 4 -26 4
-5 1 -5 7 -1 14 5 7 0 6 -11 -3 -11 -9 -16 -10 -11 -2 4 6 3 12 -3 12 -5 0
-12 -6 -14 -12 -3 -8 -6 -5 -6 5 -1 11 -6 15 -12 11 -6 -3 -14 -3 -18 2 -3 5
-17 15 -31 22 l-25 13 24 -21 c32 -28 12 -25 -28 4 -19 14 -40 22 -49 19 -11
-5 -13 -3 -7 8 7 11 5 11 -10 -1 -10 -8 -16 -10 -12 -3 4 6 1 14 -5 16 -7 3
-4 6 7 7 l20 1 -20 9 c-19 8 -19 9 -1 9 11 1 16 4 13 8 -4 3 -1 13 6 21 8 11
8 14 0 9 -7 -4 -10 -1 -9 10 2 9 9 19 17 21 11 3 11 1 -1 -7 -13 -9 -13 -11 3
-11 20 0 20 1 7 34 -7 20 -6 24 5 19 8 -3 12 -10 8 -17 -3 -6 5 -1 19 12 13
12 27 19 31 16 3 -3 3 4 0 17 -4 15 -3 20 5 15 7 -4 12 -2 12 4 0 6 5 8 13 4
8 -5 7 -2 -2 9 -12 15 -12 17 1 12 8 -3 21 2 29 11 12 15 12 17 0 9 -10 -6
-12 -4 -6 4 4 7 15 11 25 8 12 -3 17 0 14 8 -3 6 3 18 13 26 17 13 17 13 3 -6
-14 -19 -14 -19 3 -6 10 8 16 20 13 28 -3 8 -1 11 4 8 6 -3 10 -2 10 4 0 6 7
7 17 4 11 -4 14 -3 9 5 -5 8 1 12 15 12 16 0 20 5 17 18 -4 15 -1 18 19 14 17
-3 23 0 21 9 -2 8 3 13 10 11 6 -1 12 6 12 15 0 15 2 14 15 -3 11 -14 14 -15
9 -2 -4 11 1 18 15 23 19 6 25 17 22 37 0 4 7 4 16 1 12 -5 14 -3 8 7 -6 10
-4 12 10 6 16 -6 16 -4 4 11 -7 10 -9 15 -5 11 5 -4 15 -3 23 4 11 9 12 7 7
-8 -5 -18 -5 -18 6 -1 6 9 9 21 5 26 -3 5 0 13 6 17 8 4 9 3 5 -4 -4 -7 -2
-12 3 -12 6 0 11 6 11 13 0 6 8 21 17 32 12 16 14 16 10 3 -3 -10 -1 -20 5
-24 6 -4 8 -3 4 4 -3 6 -2 13 4 17 6 4 8 11 5 16 -3 5 1 6 9 3 11 -4 16 0 16
11 0 14 3 15 14 6 11 -9 12 -6 9 16 -4 22 -2 25 6 13 9 -13 12 -13 23 -1 11
12 10 13 -2 6 -12 -7 -12 -5 1 11 9 10 19 26 23 34 3 8 4 5 2 -7 -2 -13 0 -26
5 -29 5 -3 8 -2 7 3 -1 4 3 18 10 29 6 12 8 24 4 28 -3 4 1 4 11 0 11 -4 19 0
23 10 3 9 10 13 15 10 5 -3 9 -2 9 3 0 4 9 23 20 41 16 26 24 31 34 23 10 -9
15 -8 20 4 4 10 2 14 -5 9 -8 -4 -9 1 -5 17 6 20 5 21 -4 7 -14 -23 -31 -23
-23 -1 5 12 0 10 -16 -6 -20 -20 -48 -21 -36 -1 3 4 -3 14 -13 21 -15 12 -16
12 -4 -2 11 -15 9 -17 -17 -15 -16 0 -27 4 -24 9 2 4 9 4 15 1 7 -5 9 -1 5 8
-4 12 0 15 20 13 18 -2 27 3 30 15 3 11 12 17 22 15 10 -2 24 1 32 7 11 8 10
9 -3 4 -10 -3 -18 -1 -18 4 0 6 9 10 20 10 11 0 20 5 20 11 0 5 -6 7 -12 3 -8
-4 -10 -3 -5 2 5 5 12 9 15 9 4 0 13 4 20 8 6 5 12 5 12 1 0 -4 7 1 15 12 15
19 15 19 9 -1 -5 -20 -5 -20 10 -1 8 10 13 24 10 30 -3 6 2 2 10 -8 9 -11 16
-14 16 -7 0 7 6 9 13 6 6 -4 3 1 -7 9 -23 19 -14 21 17 4 20 -10 21 -10 9 5
-12 14 -11 16 8 12 17 -3 20 0 16 12 -6 14 -4 14 10 2 16 -13 16 -12 5 9 -12
22 -11 23 8 13 17 -9 20 -9 15 3 -3 8 -2 21 2 28 12 19 14 39 3 32 -5 -3 -9
-1 -9 4 0 15 13 22 25 14 6 -4 2 1 -8 11 -19 17 -19 18 5 21 7 0 18 12 24 24
7 14 13 19 16 11 3 -9 9 -9 28 2 14 7 28 13 31 12 3 -1 6 5 6 13 0 12 -3 12
-16 1 -29 -25 -41 -29 -35 -13 3 9 10 14 14 11 4 -3 13 2 20 11 7 8 20 12 28
9 10 -3 12 0 8 10 -3 8 -1 15 3 15 5 0 12 -6 14 -12 4 -10 6 -10 6 0 1 8 6 10
14 6 7 -5 6 0 -3 11 -14 17 -14 18 10 5 24 -13 24 -12 10 5 -12 15 -12 17 -1
10 11 -6 13 -4 7 10 -5 15 -4 16 9 5 8 -7 12 -17 8 -23 -3 -6 -1 -7 5 -3 6 4
9 13 5 21 -4 11 -1 13 11 9 18 -7 19 15 1 28 -5 4 1 8 14 8 13 0 22 3 18 6
-10 10 17 32 32 26 11 -4 11 -1 1 18 -10 18 -10 21 2 14 23 -15 37 -13 30 4
-5 15 -4 15 11 3 16 -12 17 -12 11 5 -4 10 -4 16 1 12 4 -4 16 3 26 15 10 12
18 18 19 13 0 -5 7 -3 15 4 13 11 15 10 9 -6 -5 -18 -5 -18 6 -1 6 9 8 23 4
30 -6 9 -4 9 8 -1 13 -10 17 -10 22 3 3 10 14 14 30 11 18 -3 23 -1 19 10 -5
14 12 20 20 7 2 -5 2 -2 0 6 -2 9 2 11 13 7 12 -5 15 -2 10 10 -5 14 -4 15 8
5 10 -8 16 -9 21 -1 4 6 14 9 23 8 9 -2 17 3 17 10 0 7 7 17 15 22 14 9 7 12
-16 9 -4 0 -11 5 -15 13 -7 10 -9 10 -9 -2 0 -13 -1 -13 -10 0 -9 13 -10 13
-10 0 0 -13 -1 -13 -10 0 -8 12 -10 12 -10 -5 -1 -18 -2 -17 -11 4 -6 16 -13
20 -22 14 -15 -12 -64 -8 -83 8 -11 9 -14 8 -14 -7 0 -15 -2 -16 -9 -5 -5 8
-14 10 -22 5 -12 -6 -12 -5 0 9 17 21 8 22 -13 1 -15 -14 -16 -14 -16 3 0 15
-2 16 -10 3 -8 -12 -10 -12 -10 -1 0 11 -3 11 -15 1 -12 -10 -15 -10 -15 1 0
11 -2 11 -10 -1 -6 -9 -10 -10 -10 -3 0 7 -9 17 -20 23 -11 6 -20 7 -19 3 4
-22 -2 -25 -16 -7 -13 18 -14 18 -8 -6 6 -25 6 -25 -13 -5 -10 11 -28 21 -39
23 l-20 4 20 -17 c20 -16 20 -16 -2 -6 -12 6 -29 8 -39 4 -13 -5 -16 -2 -12 8
4 10 -1 15 -12 15 -10 0 -17 -4 -14 -7 2 -4 -1 -11 -7 -15 -8 -4 -9 -3 -5 4 4
7 2 12 -4 12 -6 0 -8 6 -5 13 4 6 0 3 -9 -7 -15 -19 -16 -18 -25 5 -7 16 -10
19 -10 7 -1 -9 -5 -20 -11 -23 -6 -4 -7 1 -3 12 6 16 5 16 -10 4 -20 -16 -23
-1 -5 18 11 11 9 11 -9 0 -18 -11 -24 -10 -39 2 -11 9 -15 9 -10 2 7 -13 -7
-18 -29 -13 -5 1 -15 3 -22 3 -7 0 -10 4 -7 9 5 8 -4 10 -63 13 -18 0 -36 4
-40 9 -4 4 5 5 20 2 16 -3 25 -1 22 5 -4 5 -10 7 -15 4 -5 -3 -12 -1 -15 5 -5
8 -11 7 -21 -1 -11 -9 -14 -9 -14 1 0 10 -3 10 -14 1 -11 -9 -16 -9 -22 0 -5
8 -3 9 6 4 8 -5 11 -4 6 3 -4 6 -14 8 -22 5 -9 -3 -20 0 -25 8 -6 10 -9 10 -9
2 0 -7 -5 -13 -11 -13 -5 0 -8 4 -5 9 7 11 -28 43 -37 34 -4 -3 -7 -2 -7 4 0
6 7 14 16 17 11 4 14 14 11 29 -6 20 -5 21 8 4 12 -16 13 -15 10 18 -2 19 0
33 5 30 4 -3 10 2 13 10 4 8 1 13 -6 11 -7 -1 -9 -1 -4 1 4 3 5 9 2 13 -3 5 3
14 14 19 13 8 17 17 14 32 -5 17 -3 20 8 14 11 -7 11 -5 -1 10 -8 10 -10 16
-4 12 7 -4 15 0 18 9 4 10 2 13 -7 9 -6 -4 -1 3 13 15 14 12 19 18 11 14 -9
-4 -12 -2 -9 7 3 8 10 14 16 14 6 0 17 6 24 14 10 10 10 12 1 7 -8 -4 -13 -1
-13 7 0 8 7 18 15 21 13 5 14 10 4 27 -8 15 -8 19 0 15 6 -4 11 -2 11 4 0 6 5
8 11 4 8 -4 8 0 0 15 -10 17 -9 20 5 14 13 -5 15 -2 9 18 -5 19 -4 21 5 9 10
-12 11 -11 7 8 -3 14 -1 20 6 15 6 -4 8 2 4 18 -6 23 -5 23 8 5 14 -19 15 -19
15 8 0 21 4 27 15 23 11 -5 12 -1 4 20 -5 14 -7 28 -4 31 3 3 5 1 5 -5 0 -6 7
-13 15 -17 13 -5 14 -2 4 17 -11 20 -11 21 5 8 14 -12 16 -12 10 4 -6 14 -4
16 7 10 12 -7 12 -6 1 7 -14 17 0 34 18 23 6 -4 13 7 16 24 4 17 9 29 13 27 3
-2 12 2 19 10 10 11 10 14 0 14 -6 0 -3 7 8 16 10 8 12 12 4 8 -10 -5 -9 0 4
14 23 26 23 26 23 7 0 -8 -4 -12 -9 -9 -4 3 -5 -2 -1 -11 9 -24 21 0 18 35 -2
18 2 27 9 24 7 -3 12 5 13 18 0 13 -1 17 -4 11 -3 -10 -8 -9 -19 1 -10 11 -22
12 -44 6 -23 -7 -30 -5 -30 6 0 8 -5 14 -11 14 -5 0 -8 -4 -4 -9 3 -5 1 -13
-5 -16 -6 -4 -9 -1 -8 6 2 7 -1 13 -7 14 -5 0 -16 4 -24 9 -9 6 -12 5 -8 -1 4
-6 0 -14 -9 -17 -8 -3 -13 -2 -10 2 3 4 -4 14 -16 21 -11 7 -17 8 -13 2 3 -6
-1 -11 -9 -11 -9 0 -16 5 -16 11 0 5 -5 7 -10 4 -6 -4 -7 -11 -4 -17 4 -7 2
-8 -5 -4 -6 4 -8 13 -4 19 5 8 2 8 -9 0 -18 -16 -32 -5 -17 14 6 7 8 13 3 13
-5 0 -2 5 6 11 13 9 13 10 0 6 -8 -2 -14 -10 -12 -16 1 -7 -2 -10 -7 -6 -12 7
-3 35 11 35 5 0 6 5 3 10 -3 6 -1 10 5 10 6 0 9 4 5 9 -3 5 1 16 9 24 8 8 12
17 9 21 -4 3 1 6 11 6 11 0 15 -5 10 -12 -4 -8 -3 -10 2 -5 5 5 9 12 9 15 0 4
4 14 10 22 8 13 7 13 -8 1 -11 -8 -17 -9 -17 -2 0 6 11 13 25 17 22 5 24 9 13
23 -7 9 -9 13 -4 9 13 -11 49 28 40 44 -5 9 -2 8 11 -2 11 -9 16 -10 11 -2 -7
11 6 17 29 12 6 -1 5 4 -2 11 -13 13 -7 39 9 39 6 0 4 -8 -3 -17 -13 -17 -12
-17 4 -4 12 9 16 22 13 35 -4 18 -3 19 7 6 10 -13 16 -11 39 13 28 29 26 38
-3 11 -14 -12 -18 -13 -25 -2 -4 7 -4 10 1 6 9 -9 37 11 30 21 -2 4 5 7 17 7
12 -1 23 6 25 14 4 13 3 13 -6 0 -6 -8 -11 -10 -11 -4 0 6 6 17 14 23 11 9 15
9 19 -1 6 -14 11 15 8 42 -2 12 0 13 7 1 13 -18 35 -3 29 20 -4 16 -2 17 14 8
24 -12 24 -8 0 19 -18 22 -38 31 -27 13 3 -5 -1 -12 -10 -15 -12 -5 -15 -2
-10 11 4 11 -2 8 -13 -7 l-20 -25 5 25 c4 18 3 21 -4 11 -6 -8 -15 -10 -22 -6
-8 5 -11 4 -7 -2 4 -6 -3 -13 -15 -16 -13 -4 -26 -1 -30 6 -5 8 -8 5 -8 -8 0
-16 -2 -17 -9 -5 -6 8 -7 19 -5 25 3 5 -7 -3 -22 -20 -26 -28 -26 -28 -19 -5
4 14 4 22 0 18 -5 -4 -15 -2 -24 5 -14 11 -14 10 -2 -6 8 -9 11 -20 8 -24 -4
-3 -9 2 -13 11 -3 9 -11 13 -18 9 -8 -5 -8 -3 0 8 6 8 10 22 9 32 -2 9 1 15 6
11 5 -3 7 -9 5 -13 -3 -4 2 -8 10 -8 10 0 11 4 4 11 -15 15 -12 26 8 26 14 0
15 2 2 9 -8 6 -18 7 -24 4 -5 -3 -6 -1 -2 6 4 6 12 9 17 6 5 -4 9 1 9 9 0 8 8
17 18 19 14 4 14 5 -3 6 -19 1 -18 3 5 21 21 17 22 19 5 14 -18 -5 -18 -5 -2
6 9 6 14 16 11 22 -5 7 -2 8 6 3 10 -6 12 -4 7 8 -4 12 -1 17 10 17 15 0 15 2
-1 13 -16 12 -17 14 -2 15 9 1 23 3 31 4 8 1 12 5 9 10 -4 5 -12 7 -20 4 -7
-3 -16 0 -20 6 -4 7 -3 8 4 4 7 -4 12 -2 12 4 0 6 5 8 11 4 8 -5 10 1 7 19 -4
18 -1 24 9 20 7 -3 13 0 13 7 0 6 5 8 12 4 7 -4 8 -3 4 4 -4 6 -12 10 -19 8
-7 -1 -9 -1 -4 1 4 3 5 9 2 14 -4 5 1 6 10 3 11 -5 14 -2 8 12 -4 12 -3 15 6
9 10 -6 11 -3 2 13 -15 29 -14 40 2 17 11 -14 16 -15 22 -5 5 8 4 11 -3 6 -16
-9 -8 42 8 57 12 10 12 9 1 -5 -8 -10 -9 -18 -3 -18 14 0 23 28 11 35 -5 4 -6
12 -2 18 4 7 8 17 8 22 0 6 8 9 18 7 9 -2 17 2 17 8 0 5 -5 10 -11 10 -5 0 -7
5 -4 10 4 6 11 8 16 5 5 -3 6 1 3 9 -3 9 -1 16 5 16 6 0 11 5 11 11 0 5 -4 7
-10 4 -6 -3 -7 1 -4 9 3 9 11 14 16 13 6 -1 13 4 16 12 2 8 0 11 -5 8 -5 -3
-9 3 -9 13 0 18 1 18 20 2 11 -9 16 -11 12 -4 -5 8 0 22 11 34 10 12 13 18 6
15 -6 -4 -14 -3 -18 3 -3 5 2 10 12 11 10 0 13 3 6 5 -17 7 -4 34 16 34 13 0
13 2 3 9 -11 7 -9 13 8 29 21 19 21 21 3 32 -16 10 -16 10 4 5 12 -3 25 -1 29
6 4 7 3 9 -3 6 -6 -4 -14 0 -17 9 -3 8 -2 12 4 9 18 -11 32 6 18 23 -11 13
-10 15 5 9 9 -3 17 -2 17 3 0 6 -5 10 -11 10 -5 0 -8 4 -4 10 3 5 13 7 23 4
14 -5 14 -4 3 4 -13 9 -12 13 5 29 11 10 15 15 10 11 -19 -15 -26 -8 -14 11 7
11 15 18 19 15 4 -2 11 1 15 7 4 8 3 9 -4 5 -7 -4 -12 -1 -12 9 0 9 4 14 8 11
4 -2 13 4 19 14 10 15 9 17 -10 13 -18 -3 -17 -1 6 12 15 8 27 18 27 21 0 3
-4 3 -9 -1 -17 -10 -2 37 15 50 16 11 16 14 -4 35 -19 20 -22 21 -22 6 0 -11
-4 -14 -12 -10 -8 5 -9 2 -4 -11 6 -16 4 -16 -11 -4 -11 9 -14 10 -9 2 4 -7 2
-13 -3 -13 -6 0 -10 -3 -10 -7 4 -22 -3 -25 -16 -7 -13 16 -14 16 -9 2 6 -17
-10 -24 -39 -19 -5 1 -6 -3 -2 -8 3 -6 13 -8 23 -5 15 5 15 5 -1 -6 -9 -6 -23
-8 -30 -4 -8 5 -7 2 2 -9 12 -15 12 -17 -3 -11 -11 4 -16 2 -14 -6 2 -7 -8
-14 -22 -16 -14 -3 -27 -9 -28 -14 -2 -6 -9 -7 -15 -3 -7 4 -7 0 1 -9 12 -15
9 -16 -24 -13 -23 2 -32 0 -24 -5 11 -7 11 -12 2 -23 -7 -7 -10 -16 -8 -18 2
-2 -7 -5 -20 -5 -33 -2 -42 -12 -24 -25 13 -9 12 -10 -2 -5 -10 3 -20 0 -24
-5 -3 -6 -15 -8 -26 -6 -16 5 -17 3 -7 -9 10 -12 10 -15 -2 -12 -8 2 -18 8
-22 13 -5 6 -5 -1 -2 -14 5 -16 4 -21 -4 -17 -6 4 -11 0 -11 -11 0 -15 -2 -16
-10 -3 -8 13 -10 13 -10 -2 0 -9 -5 -20 -12 -24 -6 -4 -8 -3 -4 4 3 6 2 14 -4
17 -6 4 -9 1 -8 -7 2 -7 -3 -12 -11 -10 -12 3 -12 1 0 -14 13 -16 12 -16 -11
-4 -23 12 -24 12 -11 -3 12 -15 11 -17 -5 -17 -11 0 -28 -7 -38 -15 -11 -8
-16 -15 -11 -15 5 0 -1 -10 -13 -23 -12 -13 -19 -27 -15 -32 5 -4 2 -5 -5 -1
-11 6 -10 11 3 26 14 16 14 18 -2 31 -16 13 -17 12 -5 -2 11 -14 9 -20 -13
-37 -14 -11 -25 -26 -25 -33 0 -11 -3 -11 -10 1 -7 11 -10 11 -10 2 0 -7 -4
-10 -10 -7 -6 4 -7 -1 -3 -11 5 -14 3 -16 -12 -11 -15 6 -16 5 -5 -8 11 -13
10 -14 -5 -9 -14 6 -16 4 -10 -6 6 -10 3 -12 -14 -7 -22 5 -23 5 -5 -16 10
-12 12 -16 4 -10 -11 10 -18 9 -34 -5 -11 -9 -16 -11 -12 -4 4 6 3 12 -2 12
-6 0 -13 -7 -16 -16 -6 -15 -10 -14 -32 7 -17 15 -23 18 -19 7 4 -9 1 -19 -6
-24 -7 -4 -10 -3 -6 2 3 6 2 16 -4 24 -7 12 -9 9 -9 -10 0 -18 -3 -21 -9 -11
-7 11 -11 10 -20 -6 -5 -11 -7 -23 -3 -27 3 -4 -2 -4 -11 0 -12 4 -23 0 -31
-11 -7 -10 -18 -15 -24 -11 -6 3 -14 1 -18 -5 -4 -8 -3 -9 4 -5 17 10 14 -6
-5 -29 -13 -16 -15 -17 -10 -2 4 9 2 17 -3 17 -10 0 -14 -15 -11 -34 1 -5 -5
-3 -14 4 -13 11 -15 10 -9 -4 4 -9 3 -16 -2 -15 -26 4 -36 -1 -25 -15 9 -11 6
-12 -15 -8 -17 3 -25 1 -21 -5 4 -6 -5 -14 -18 -17 -14 -4 -23 -11 -20 -16 4
-6 -1 -7 -11 -3 -11 4 -13 8 -6 11 7 2 12 8 12 13 0 6 -5 7 -12 3 -8 -5 -9 -2
-5 10 4 10 7 20 7 22 0 2 6 4 14 4 8 0 18 4 21 10 3 6 -1 7 -9 4 -9 -3 -16 -1
-16 6 0 6 -5 8 -12 4 -7 -4 -8 -3 -4 5 4 6 12 8 18 5 8 -5 9 -1 4 11 -5 14 -4
16 7 6 12 -9 14 -6 11 19 -2 17 0 29 5 26 5 -3 8 12 7 33 -1 33 1 37 13 28 12
-10 12 -8 1 13 -12 22 -11 24 2 13 13 -11 15 -8 14 22 -1 19 -7 40 -15 47 -8
7 -11 8 -8 2 8 -15 -16 -47 -37 -50 -36 -5 -48 -14 -42 -30 6 -15 4 -15 -11
-3 -11 9 -14 10 -9 2 4 -8 2 -13 -4 -13 -6 0 -9 -4 -5 -9 3 -5 1 -12 -4 -15
-5 -4 -13 -1 -17 5 -5 8 -3 9 6 4 9 -5 11 -4 6 4 -4 6 -12 9 -17 5 -5 -3 -7
-10 -4 -15 4 -5 -2 -9 -12 -9 -15 0 -16 -2 -3 -11 12 -8 9 -9 -9 -4 -19 6 -23
4 -18 -8 4 -10 -3 -21 -19 -31 -13 -9 -24 -14 -24 -11 0 4 -7 -1 -16 -9 -8 -9
-23 -16 -32 -16 -15 0 -15 -2 -2 -11 12 -9 10 -10 -8 -6 -20 5 -22 2 -16 -16
6 -21 5 -21 -8 -3 -14 17 -15 18 -21 2 -4 -10 -5 -22 -1 -27 9 -15 -3 -10 -22
9 -17 16 -18 16 -11 0 3 -10 2 -18 -3 -18 -6 0 -9 -5 -7 -12 1 -7 -4 -13 -10
-14 -7 -1 -18 -2 -24 -3 -5 0 -7 -5 -4 -11 3 -5 1 -10 -5 -10 -6 0 -8 -4 -5
-10 4 -6 -1 -7 -11 -3 -12 5 -15 3 -9 -6 6 -10 3 -11 -15 -1 -12 6 -24 9 -28
6 -3 -3 0 -6 7 -6 7 0 9 -5 6 -10 -4 -6 -11 -7 -17 -4 -6 4 -6 -2 1 -15 11
-19 10 -20 -13 -11 -21 8 -24 7 -19 -7 5 -13 2 -15 -11 -10 -9 4 -15 3 -11 -2
10 -17 -7 -43 -26 -38 -10 3 -18 2 -17 -2 2 -20 -4 -30 -22 -36 -11 -4 -17
-11 -14 -17 4 -6 10 -5 15 3 6 10 9 10 9 2 0 -6 -5 -15 -10 -18 -6 -4 -7 -11
-4 -17 4 -7 2 -8 -5 -4 -6 4 -9 11 -7 15 3 4 -1 8 -8 8 -7 0 -13 -7 -12 -16 1
-9 -4 -15 -11 -14 -7 2 -10 -4 -6 -13 6 -16 -34 -67 -47 -59 -5 3 -11 -2 -14
-11 -3 -8 -11 -12 -17 -8 -8 4 -9 3 -5 -5 9 -14 -2 -51 -16 -51 -7 0 -6 5 1
14 8 10 9 16 1 21 -9 6 -14 -1 -11 -17 0 -5 -4 -8 -10 -8 -5 0 -7 -4 -4 -10 3
-5 1 -10 -5 -10 -6 0 -9 -4 -6 -8 3 -4 -8 -13 -24 -19 -22 -8 -29 -8 -27 0 1
7 -3 11 -9 10 -7 -1 -11 3 -11 10 0 7 -1 23 -2 37 -1 19 -4 21 -10 11 -7 -10
-9 -7 -8 12 2 26 17 39 17 15 0 -6 3 -8 7 -5 3 4 -3 16 -15 27 -26 25 -28 40
-5 40 9 0 13 3 9 7 -4 5 -13 8 -18 8 -6 0 -13 7 -15 15 -4 13 -3 13 6 0 8 -12
11 -8 11 18 0 17 -4 32 -9 32 -14 0 -21 29 -9 36 6 4 8 3 4 -4 -3 -6 -1 -14 5
-18 7 -4 9 -3 5 4 -3 6 -2 13 4 17 6 4 8 11 4 16 -3 5 -9 7 -14 4 -4 -3 -11 2
-14 11 -5 12 -2 15 11 10 15 -6 15 -4 -2 14 -12 13 -14 20 -5 20 9 0 8 6 -4
24 -11 18 -13 27 -4 32 7 5 8 3 3 -6 -5 -9 -4 -11 3 -6 18 11 14 26 -7 26 -11
0 -22 6 -25 13 -3 6 -3 -1 -1 -16 3 -25 2 -27 -11 -16 -8 7 -14 8 -13 3 4 -23
-2 -35 -13 -28 -8 5 -7 0 2 -11 10 -13 11 -16 2 -11 -15 9 -55 -22 -46 -35 3
-5 1 -9 -4 -9 -6 0 -13 -8 -17 -17 -5 -15 -4 -16 6 -6 7 7 18 13 23 13 6 0 0
-7 -12 -16 -13 -9 -19 -20 -15 -27 4 -8 1 -7 -9 1 -13 10 -18 10 -24 1 -4 -8
-3 -9 4 -5 7 4 12 2 12 -3 0 -6 -6 -11 -14 -11 -8 0 -18 -4 -21 -10 -4 -6 1
-7 12 -4 17 5 17 5 1 -9 -10 -8 -15 -17 -11 -20 3 -4 -4 -5 -15 -2 -16 3 -19
0 -15 -12 5 -12 3 -14 -8 -8 -12 7 -12 6 0 -9 13 -16 13 -17 -4 -14 -11 1 -20
-3 -21 -9 -1 -7 -3 -16 -4 -20 -1 -5 -2 -12 -1 -17 1 -5 -5 -6 -13 -3 -11 4
-13 0 -10 -20 4 -22 3 -24 -10 -14 -11 9 -16 9 -22 -1 -13 -21 -14 -41 -2 -56
6 -7 7 -12 2 -11 -5 1 -20 -3 -34 -9 -14 -6 -18 -11 -10 -12 13 0 13 -2 0 -9
-8 -6 -18 -7 -24 -4 -5 3 -6 1 -2 -6 4 -6 12 -8 18 -5 7 5 8 2 4 -5 -5 -7 -14
-10 -22 -7 -8 3 -13 2 -13 -2 4 -28 -3 -41 -21 -37 -17 3 -19 1 -9 -17 8 -15
8 -19 0 -14 -6 4 -11 0 -11 -8 0 -9 -7 -16 -15 -16 -8 0 -15 -7 -15 -16 0 -8
-4 -13 -9 -10 -4 3 -8 -4 -7 -17 1 -13 -4 -21 -11 -20 -12 3 -17 -9 -14 -29 0
-4 -7 -4 -17 -1 -15 6 -15 5 -3 -10 12 -15 12 -17 -4 -11 -13 5 -16 4 -11 -4
4 -8 0 -12 -10 -12 -14 0 -15 -3 -6 -12 15 -15 15 -28 1 -28 -5 0 -7 5 -3 11
4 7 1 10 -7 7 -8 -3 -15 -10 -15 -16 -1 -7 -2 -17 -3 -23 -1 -8 -7 -7 -18 2
-12 10 -15 11 -9 1 4 -7 2 -19 -4 -27 -6 -8 -8 -20 -4 -27 6 -10 5 -10 -8 0
-14 11 -16 11 -14 -4 3 -18 -24 -53 -36 -47 -8 4 -5 -18 5 -33 4 -7 -3 -10
-21 -8 -26 2 -26 2 -8 -12 20 -14 20 -14 0 -15 -10 -1 -23 -1 -28 0 -5 1 -4
-5 3 -13 10 -12 8 -14 -13 -12 -18 2 -26 -2 -26 -13 -1 -13 -3 -12 -16 4 -16
20 -16 20 -9 -2 5 -19 3 -22 -12 -16 -16 6 -17 5 -3 -12 14 -17 14 -18 -7 -6
-22 11 -22 10 -13 -14 12 -31 13 -45 2 -27 -6 9 -15 5 -33 -15 -13 -15 -16
-21 -6 -14 13 10 17 10 17 1 0 -6 -9 -14 -20 -17 -19 -5 -20 -6 -3 -19 17 -13
17 -14 -2 -7 -18 6 -19 5 -5 -12 9 -11 10 -16 3 -11 -7 4 -23 0 -35 -8 -12 -9
-18 -16 -12 -16 5 0 16 6 23 13 10 10 11 9 6 -5 -4 -10 -12 -18 -17 -18 -6 0
-8 -7 -4 -15 3 -9 0 -15 -8 -15 -7 0 -19 -6 -25 -14 -10 -11 -9 -16 5 -24 15
-8 15 -9 0 -15 -10 -4 -15 -3 -11 3 3 6 4 10 1 10 -3 0 -10 -10 -17 -21 -7
-15 -8 -19 0 -15 7 5 8 1 5 -9 -4 -9 -13 -14 -21 -11 -8 3 -11 2 -8 -4 3 -5 3
-21 -1 -35 -5 -20 -9 -23 -15 -13 -7 10 -9 10 -9 0 0 -8 -5 -10 -12 -6 -10 5
-10 4 -1 -6 9 -10 7 -16 -9 -30 -20 -16 -34 -65 -16 -54 5 4 7 13 3 23 -5 13
-4 14 7 3 11 -11 9 -17 -9 -32 -13 -10 -25 -29 -27 -42 -2 -12 -9 -22 -16 -20
-8 2 -10 -3 -6 -14 5 -13 3 -14 -6 -6 -10 8 -13 3 -13 -21 0 -20 -5 -31 -12
-30 -7 2 -13 -6 -13 -16 0 -11 -5 -23 -12 -27 -7 -5 -8 -3 -3 7 7 12 6 12 -7
1 -9 -8 -14 -20 -11 -28 3 -9 -1 -14 -13 -14 -11 0 -15 -4 -9 -8 6 -4 11 -13
13 -21 3 -12 1 -12 -13 -1 -9 7 -15 9 -13 4 5 -18 -23 -54 -42 -54 -10 0 -24
-8 -30 -17 -10 -16 -11 -15 -7 4 3 13 0 26 -5 30 -7 3 -8 1 -4 -5 5 -8 2 -10
-8 -6 -12 5 -13 11 -6 25 10 19 -5 59 -22 59 -5 0 -8 5 -8 11 0 5 4 8 9 5 8
-5 8 2 2 33 -1 2 -8 -2 -16 -9 -9 -8 -15 -9 -15 -2 0 6 5 14 10 17 6 4 1 14
-11 24 -17 14 -19 20 -9 26 9 6 11 4 5 -5 -5 -9 -4 -11 3 -6 9 5 9 13 2 27 -6
11 -8 25 -4 32 5 7 1 7 -9 -2 -10 -8 -20 -11 -24 -7 -3 3 -1 6 6 6 8 0 11 6 7
16 -4 10 -2 13 7 8 8 -5 8 -2 -2 9 -7 9 -17 15 -21 12 -5 -3 -11 -1 -14 4 -4
5 8 8 26 6 18 -2 25 -1 15 1 -9 3 -14 10 -11 16 4 7 2 8 -4 4 -8 -5 -12 3 -12
24 0 22 4 29 13 25 6 -4 1 3 -12 14 -21 19 -21 21 -5 21 16 1 15 3 -6 16 -14
8 -18 13 -9 11 8 -3 21 4 28 15 7 11 9 18 4 15 -5 -3 -15 -2 -23 4 -12 7 -11
9 5 10 l20 0 -20 9 c-18 8 -18 9 5 10 23 1 23 2 5 10 -11 5 -14 9 -7 9 10 1
10 6 1 24 -11 19 -10 20 3 10 12 -10 15 -10 15 2 0 8 -5 15 -11 16 -6 0 -2 4
9 9 14 6 15 9 5 9 -17 1 -24 37 -9 46 5 3 6 -1 3 -9 -3 -9 -2 -16 4 -16 12 0
11 18 -2 39 -7 10 -6 12 4 6 10 -6 12 -4 6 10 -5 15 -4 16 8 6 12 -10 14 -9 9
8 -3 12 -9 19 -12 16 -4 -2 -8 2 -8 9 0 8 8 11 21 8 21 -4 21 -4 1 12 -11 10
-14 15 -7 11 6 -3 12 -1 12 5 0 6 3 9 8 6 4 -2 6 14 4 36 -4 32 -2 39 9 33 11
-6 12 -5 2 6 -16 16 -17 29 -2 29 5 0 7 -6 3 -12 -4 -7 -3 -9 1 -5 12 10 16
39 5 32 -5 -3 -12 0 -16 6 -4 8 -3 9 4 5 7 -4 12 -1 12 8 0 8 6 17 13 19 10 4
10 6 0 6 -7 1 -13 6 -13 12 0 5 4 8 9 5 5 -3 12 1 15 10 3 8 2 12 -3 9 -5 -3
-13 -1 -16 5 -4 6 -1 9 7 8 7 -2 12 4 10 14 -1 9 2 19 8 23 5 3 10 11 10 16 0
6 -4 8 -8 5 -5 -3 -9 1 -9 8 0 8 8 11 21 8 21 -4 21 -4 1 12 -11 10 -14 15 -8
11 9 -4 12 3 9 25 -2 17 1 33 5 36 5 3 7 10 4 15 -4 5 2 6 12 2 15 -6 16 -4 6
8 -10 12 -10 18 -1 27 9 9 9 12 -3 13 -9 0 -8 3 4 8 10 4 19 11 19 16 0 6 5
17 11 25 10 13 10 13 -5 1 -10 -7 -15 -18 -11 -24 3 -6 1 -7 -6 -3 -9 6 -9 11
-1 21 6 7 8 19 4 28 -3 8 -1 18 5 22 7 3 8 0 5 -9 -3 -9 -2 -16 4 -16 12 0 11
18 -2 39 -7 10 -6 12 4 6 10 -6 12 -4 6 10 -5 15 -4 16 8 6 12 -10 14 -9 9 8
-3 12 -9 19 -12 16 -4 -2 -8 2 -8 9 0 8 8 11 21 8 21 -4 21 -4 1 12 -11 10
-14 14 -6 10 11 -5 13 -3 8 10 -5 12 0 19 16 26 22 9 22 9 -3 10 -25 1 -24 1
5 14 26 11 27 13 10 19 -14 6 -16 10 -7 19 15 15 15 31 0 22 -7 -4 -8 -3 -4 4
4 7 15 12 24 12 13 0 13 2 -4 15 -18 14 -18 14 4 10 20 -4 22 -2 11 11 -10 12
-8 17 7 30 18 14 18 15 -6 9 -21 -5 -22 -4 -7 5 9 6 15 15 12 21 -4 5 -1 9 4
9 6 0 11 6 11 14 0 8 5 27 12 43 6 15 10 39 9 53 -1 20 0 22 8 10 7 -9 11 -10
11 -3 0 6 -7 18 -15 26 -10 11 -11 17 -3 19 14 5 20 38 6 38 -6 0 -8 -7 -4
-15 6 -17 -15 -20 -31 -4 -8 8 -13 7 -18 -2 -6 -8 -4 -10 6 -4 11 6 12 5 2 -5
-10 -11 -15 -11 -30 1 -17 13 -17 12 0 -8 14 -16 15 -23 6 -29 -7 -4 -10 -3
-6 3 4 6 1 13 -6 15 -17 7 -38 -2 -31 -13 3 -5 -2 -9 -11 -9 -9 0 -13 -4 -10
-10 3 -5 2 -10 -4 -10 -5 0 -12 6 -14 13 -4 10 -6 10 -6 0 -1 -7 -8 -13 -17
-13 -8 0 -12 -4 -9 -10 3 -5 0 -7 -9 -4 -13 5 -12 9 4 27 11 11 17 23 14 26
-4 3 -9 0 -11 -6 -3 -7 -8 -13 -13 -13 -11 0 -6 30 6 38 5 4 10 13 12 21 3 12
0 12 -15 1 -14 -11 -15 -11 -6 -1 6 7 10 19 9 25 -2 6 -1 8 1 4 8 -13 20 -9
20 7 0 8 -4 15 -9 15 -5 0 -4 8 1 18 7 13 6 23 -2 31 -9 10 -9 12 3 9 8 -2 14
3 13 10 -2 6 2 12 7 12 14 0 12 33 -2 50 -11 12 -10 12 5 1 12 -10 17 -10 17
-2 0 7 4 10 9 6 5 -3 12 -1 16 4 3 6 -3 8 -13 6 -11 -2 -19 3 -19 10 0 8 4 12
8 10 4 -3 10 2 13 11 9 23 8 26 -6 19 -7 -3 -3 2 9 11 18 13 20 20 13 34 -7
13 -6 21 2 26 7 5 8 3 3 -6 -5 -9 -4 -11 4 -6 9 6 9 11 -1 24 -7 9 -8 13 -3
10 6 -3 17 1 24 10 13 14 12 15 -7 10 -12 -4 -20 -2 -16 3 3 5 13 9 22 10 11
0 12 3 5 6 -7 2 -13 9 -13 14 0 6 5 7 10 4 6 -3 10 -1 10 5 0 6 5 8 13 4 8 -5
8 -2 -2 9 -15 19 -26 23 -15 5 5 -7 3 -8 -6 -3 -10 6 -9 11 4 20 9 7 16 17 15
21 -4 22 2 34 19 35 10 0 12 3 5 6 -7 2 -13 9 -13 14 0 6 5 7 10 4 9 -6 14 8
11 29 -1 4 4 15 11 24 11 13 10 15 -3 10 -9 -4 -16 -1 -16 7 0 7 8 10 18 8 9
-3 20 0 23 6 5 7 1 8 -9 5 -8 -4 -22 -1 -30 6 -13 10 -15 9 -15 -10 0 -13 -5
-20 -12 -17 -7 2 -21 -8 -30 -22 -10 -14 -18 -21 -18 -15 0 5 6 16 13 23 10
11 9 13 -6 7 -10 -3 -20 -6 -23 -6 -2 0 -1 -8 3 -17 3 -10 3 -15 -1 -12 -13
12 -15 53 -4 66 6 8 7 13 2 12 -29 -5 -37 2 -18 16 16 13 17 16 4 25 -13 9
-13 10 0 11 8 1 18 1 22 0 4 0 5 6 1 15 -5 12 -7 13 -14 3 -4 -8 -10 -11 -14
-8 -3 3 3 17 14 31 13 16 17 29 10 39 -7 12 -9 12 -10 -1 -1 -8 -1 -19 0 -23
1 -5 -3 -6 -9 -2 -6 4 -7 13 -1 23 14 26 14 34 -1 44 -9 7 -6 8 11 4 18 -4 21
-2 12 7 -6 6 -11 22 -11 35 0 13 -4 21 -8 18 -4 -2 -8 4 -8 14 0 10 4 16 8 14
4 -3 8 0 8 5 0 6 -4 11 -8 11 -5 0 -9 7 -9 15 0 8 4 12 9 9 4 -3 8 0 8 5 0 6
-5 11 -11 11 -8 0 -8 5 1 15 10 12 8 16 -11 24 -22 9 -22 10 -3 10 11 1 24 -2
30 -6 5 -5 1 -1 -8 9 -19 17 -25 33 -9 23 5 -3 13 0 17 6 4 8 3 9 -4 5 -7 -4
-12 -2 -12 4 0 6 -5 8 -12 4 -7 -4 -8 -3 -4 5 4 6 12 9 17 6 5 -4 9 -1 9 4 0
6 -6 11 -12 11 -9 0 -8 4 2 10 8 5 10 10 4 10 -6 0 -16 11 -21 23 -9 18 -8 24
2 24 7 0 11 -6 8 -13 -2 -6 -1 -14 4 -17 4 -3 9 6 9 19 1 14 -4 24 -11 24 -19
0 -28 17 -14 26 8 4 9 3 5 -4 -4 -7 -2 -12 3 -12 14 0 14 17 1 25 -6 4 -8 16
-5 26 6 17 3 19 -19 16 -14 -1 -29 -7 -33 -12 -4 -4 -2 -5 5 -1 16 10 15 -2
-2 -19 -7 -8 -16 -11 -20 -8 -3 4 -6 1 -6 -6 0 -7 -4 -9 -10 -6 -6 4 -7 -1 -3
-11 4 -11 8 -13 11 -6 2 7 8 12 14 12 6 0 6 -6 -2 -15 -7 -8 -17 -12 -22 -9
-5 3 -18 -3 -29 -15 -11 -12 -25 -21 -32 -21 -7 0 -6 -4 3 -10 13 -8 13 -11 1
-22 -11 -11 -13 -11 -6 1 5 9 4 12 -3 7 -7 -4 -12 -14 -12 -22 0 -8 -5 -14
-11 -14 -5 0 -7 4 -4 10 3 6 -1 7 -10 4 -14 -6 -14 -8 2 -20 17 -13 17 -13 -2
-15 -11 -1 -23 -1 -26 -1 -3 1 -5 -11 -3 -25 2 -19 0 -23 -9 -14 -6 6 -16 11
-21 11 -6 0 -5 -4 3 -9 7 -5 10 -14 7 -20 -4 -6 -12 -8 -18 -5 -7 5 -8 2 -3
-6 6 -10 4 -12 -11 -6 -15 6 -16 5 -7 -5 9 -9 7 -16 -12 -31 -16 -12 -22 -25
-18 -35 5 -13 2 -15 -12 -10 -15 6 -16 5 -5 -8 11 -13 10 -14 -4 -9 -11 4 -16
2 -14 -6 2 -7 -8 -14 -22 -16 -18 -3 -21 -2 -10 5 8 5 18 7 24 4 5 -3 6 -1 2
6 -4 6 -11 9 -16 6 -5 -3 -22 2 -37 12 -15 10 -24 13 -20 7 3 -6 -2 -19 -13
-29 -11 -10 -20 -13 -20 -7 0 6 6 12 13 15 6 2 10 7 7 9 -3 3 -18 -4 -35 -14
-16 -11 -22 -18 -12 -14 9 3 17 1 17 -4 0 -6 -9 -10 -20 -10 -11 0 -20 -5 -20
-11 0 -5 -6 -7 -12 -3 -10 6 -10 4 0 -8 11 -14 9 -16 -16 -14 -21 1 -28 -2
-25 -11 3 -7 10 -10 17 -6 6 3 8 2 3 -2 -12 -14 -49 -17 -41 -3 4 7 3 8 -5 4
-6 -4 -9 -12 -6 -17 4 -5 1 -9 -5 -9 -6 0 -8 -5 -4 -12 6 -10 5 -10 -8 -1 -18
15 -28 7 -28 -21 0 -17 -2 -18 -10 -6 -8 13 -10 13 -10 -2 0 -9 -5 -20 -12
-24 -7 -5 -8 -3 -3 6 6 9 4 11 -4 6 -7 -5 -10 -14 -7 -22 3 -8 2 -13 -2 -13
-4 1 -18 1 -32 0 -20 -1 -22 -3 -10 -11 13 -8 12 -10 -5 -11 -11 -1 -23 -1
-26 -1 -4 1 -5 -8 -2 -18 3 -12 0 -20 -6 -20 -7 0 -10 4 -7 8 3 5 -1 9 -9 9
-8 0 -12 -4 -9 -8 2 -4 -3 -12 -12 -17 -9 -5 -15 -13 -14 -18 1 -5 -4 -10 -11
-13 -7 -2 -9 1 -4 9 6 9 4 11 -4 6 -7 -5 -10 -10 -7 -13 2 -2 -2 -12 -10 -21
-8 -9 -24 -28 -35 -42 l-20 -25 18 30 c10 16 13 26 6 22 -6 -4 -14 -1 -17 5
-3 7 -4 4 -3 -7 1 -14 -4 -20 -15 -19 -11 1 -18 -5 -18 -15 0 -14 -2 -14 -10
-1 -9 13 -14 7 -11 -12 0 -5 -5 -8 -13 -8 -19 0 -41 37 -60 101 -14 46 -77
327 -91 408 -2 15 -16 81 -30 146 -14 66 -28 136 -31 155 -3 19 -7 36 -9 38
-2 2 -24 -24 -50 -57 -25 -34 -48 -61 -50 -61 -2 0 -8 33 -15 73 -6 39 -25
115 -41 167 -44 139 -130 384 -139 393 -3 4 -68 -70 -143 -165 -129 -163 -171
-207 -180 -190 -2 4 -10 32 -17 62 -19 89 -50 177 -105 305 -88 201 -128 285
-137 285 -6 0 -30 -16 -54 -36 l-44 -37 -56 119 c-31 65 -69 152 -86 194 -16
41 -42 104 -58 140 -15 36 -83 194 -150 353 -67 158 -123 287 -124 287 -1 0
-24 -82 -50 -182z m-732 -2319 c4 6 13 11 19 11 7 0 6 -4 -3 -10 -13 -9 -13
-10 0 -10 12 -1 11 -3 -3 -11 -9 -6 -15 -14 -12 -19 3 -4 -2 -10 -10 -14 -8
-3 -17 -1 -20 4 -9 15 4 31 18 24 7 -4 8 -3 4 2 -5 5 -13 10 -18 10 -22 3 -23
5 -9 14 9 6 17 5 21 -2 4 -7 9 -7 13 1z m162 -71 c4 -7 4 -10 -1 -6 -4 4 -14
3 -22 -3 -8 -8 -13 -8 -13 -1 0 6 6 13 13 15 6 3 13 6 14 6 1 1 5 -5 9 -11z
m4 -22 c0 -3 -4 -8 -10 -11 -5 -3 -10 -1 -10 4 0 6 5 11 10 11 6 0 10 -2 10
-4z m-56 -24 c3 -5 -1 -9 -9 -9 -8 0 -12 4 -9 9 3 4 7 8 9 8 2 0 6 -4 9 -8z
m-49 -12 c3 -6 -1 -7 -9 -4 -18 7 -21 14 -7 14 6 0 13 -4 16 -10z m20 -20 c-3
-5 -12 -10 -18 -10 -7 0 -6 4 3 10 19 12 23 12 15 0z m45 -11 c0 -5 -4 -9 -8
-9 -5 0 -9 7 -9 15 0 8 4 12 9 9 4 -3 8 -9 8 -15z m35 -19 c3 -5 1 -10 -4 -10
-6 0 -11 5 -11 10 0 6 2 10 4 10 3 0 8 -4 11 -10z m-58 -16 c-3 -3 -12 -4 -19
-1 -8 3 -5 6 6 6 11 1 17 -2 13 -5z m6 -29 c-3 -9 -8 -14 -10 -11 -3 3 -2 9 2
15 9 16 15 13 8 -4z m32 -4 c3 -5 2 -12 -3 -15 -5 -3 -9 1 -9 9 0 17 3 19 12
6z m35 -45 c0 -2 -8 -10 -17 -17 -16 -13 -17 -12 -4 4 13 16 21 21 21 13z
m-45 -24 c-3 -3 -11 0 -18 7 -9 10 -8 11 6 5 10 -3 15 -9 12 -12z m35 -24 c0
-4 -4 -8 -9 -8 -6 0 -12 4 -15 8 -3 5 1 9 9 9 8 0 15 -4 15 -9z m5960 2 c0 -5
-5 -10 -11 -10 -5 0 -7 5 -4 10 3 6 8 10 11 10 2 0 4 -4 4 -10z m-5932 -55
c-3 -3 -9 2 -12 12 -6 14 -5 15 5 6 7 -7 10 -15 7 -18z m46 -83 c2 -4 -5 -9
-17 -9 -17 -2 -19 0 -7 7 18 12 18 12 24 2z m-10 -38 c4 -10 2 -13 -6 -8 -8 5
-9 1 -4 -12 5 -14 4 -16 -4 -8 -6 6 -8 18 -4 27 8 21 10 21 18 1z m26 -56 c10
-21 10 -21 -3 -6 -8 10 -18 14 -22 10 -5 -4 -5 -1 -1 6 10 17 14 15 26 -10z
m-25 -38 c-22 -25 -9 -26 19 -2 17 14 19 14 8 0 -18 -22 8 -31 27 -9 7 9 6 3
-4 -12 -17 -29 -12 -54 5 -27 6 10 10 11 10 3 0 -7 -9 -17 -20 -23 -16 -9 -22
-6 -36 15 -9 14 -21 25 -28 24 -7 0 -6 -2 2 -6 6 -2 12 -9 12 -14 0 -6 -11 -2
-25 8 -13 10 -24 25 -25 33 0 13 1 13 10 0 9 -13 13 -12 28 7 9 12 21 22 26
23 5 0 1 -9 -9 -20z m3323 -160 c-7 -11 -14 -17 -17 -15 -2 3 1 11 7 18 7 8 8
18 4 22 -4 5 -1 5 5 1 10 -5 10 -11 1 -26z m1037 -20 c4 -6 1 -9 -7 -8 -7 2
-12 -3 -10 -10 1 -8 -2 -11 -8 -7 -8 5 -7 11 1 21 14 17 16 17 24 4z m-1060
-30 c3 -5 1 -10 -4 -10 -6 0 -11 5 -11 10 0 6 2 10 4 10 3 0 8 -4 11 -10z
m1408 -135 c-3 -9 -8 -14 -10 -11 -3 3 -2 9 2 15 9 16 15 13 8 -4z m-73 -85
c0 -5 -5 -10 -11 -10 -5 0 -7 5 -4 10 3 6 8 10 11 10 2 0 4 -4 4 -10z m-490
-30 c0 -5 -5 -10 -11 -10 -5 0 -7 5 -4 10 3 6 8 10 11 10 2 0 4 -4 4 -10z
m-7191 -224 c9 -10 8 -16 -4 -26 -13 -11 -13 -15 -3 -21 8 -5 22 0 37 14 13
12 21 16 17 10 -8 -14 6 -18 18 -6 14 14 36 11 37 -5 0 -16 1 -16 12 0 10 15
12 15 22 1 10 -13 16 -13 34 -4 l22 12 -21 -41 c-21 -42 -47 -49 -43 -13 1 12
-4 20 -13 20 -8 0 -12 -7 -9 -16 2 -9 0 -23 -6 -31 -8 -12 -9 -11 -5 5 10 36
-19 62 -36 32 -10 -18 0 -49 13 -41 5 3 9 0 9 -5 0 -6 -4 -11 -10 -11 -19 0
-25 -2 -37 -12 -7 -6 -13 -7 -13 -2 0 4 -7 -1 -15 -12 -13 -18 -14 -16 -10 16
3 28 -1 42 -21 63 -14 15 -29 27 -34 27 -6 0 -10 5 -10 11 0 8 4 8 14 0 16
-13 32 2 21 19 -7 11 2 30 14 30 5 0 14 -6 20 -14z m81 -86 c0 -5 -2 -10 -4
-10 -3 0 -8 5 -11 10 -3 6 -1 10 4 10 6 0 11 -4 11 -10z m280 0 c0 -5 -4 -10
-10 -10 -5 0 -10 5 -10 10 0 6 5 10 10 10 6 0 10 -4 10 -10z m-167 -17 c-15
-3 -20 -9 -17 -21 5 -14 4 -14 -4 -2 -14 19 -6 30 21 29 l22 -2 -22 -4z m-62
-18 c5 4 6 -2 2 -12 -6 -16 -5 -17 13 -3 18 14 18 14 5 -3 -14 -18 -16 -18
-28 -1 -7 10 -13 23 -12 28 0 6 3 5 6 -2 2 -6 9 -10 14 -7z m121 -17 c-8 -8
-9 -4 -5 13 4 13 8 18 11 10 2 -7 -1 -18 -6 -23z m-129 -45 c-4 -10 -9 -11
-19 -2 -13 11 -19 2 -15 -23 2 -16 -19 -7 -33 14 -14 20 -14 24 1 40 9 10 19
16 22 13 3 -4 0 -10 -8 -14 -10 -7 -10 -9 2 -14 17 -6 31 18 21 36 -3 7 3 1
14 -12 11 -14 18 -31 15 -38z m70 23 c7 3 4 -1 -5 -9 -10 -8 -14 -18 -10 -22
4 -5 2 -5 -5 -2 -6 4 -9 17 -5 29 3 12 7 17 10 10 2 -7 9 -10 15 -6z m101 -8
c-3 -4 -11 -5 -19 -1 -21 7 -19 12 4 10 11 0 18 -5 15 -9z m106 8 c0 -2 -7 -7
-16 -10 -8 -3 -12 -2 -9 4 6 10 25 14 25 6z m-43 -21 c0 -8 -4 -12 -9 -9 -5 3
-6 10 -3 15 9 13 12 11 12 -6z m1173 -31 c0 -2 -8 0 -19 5 -10 6 -22 7 -26 3
-5 -4 -5 -1 -1 6 5 9 12 9 27 2 10 -6 19 -13 19 -16z m25 6 c3 -5 1 -10 -4
-10 -6 0 -11 5 -11 10 0 6 2 10 4 10 3 0 8 -4 11 -10z m5339 2 c3 -5 -1 -9 -9
-9 -8 0 -12 4 -9 9 3 4 7 8 9 8 2 0 6 -4 9 -8z m-6574 -6 c0 -2 -6 -9 -14 -15
-11 -9 -16 -9 -22 0 -4 7 -3 9 4 5 6 -3 13 -2 17 4 6 10 15 14 15 6z m1313 -8
c11 -9 14 -18 7 -28 -7 -12 -12 -12 -29 4 -31 28 -12 49 22 24z m-1377 -34 c0
-13 -2 -22 -5 -19 -3 3 -6 17 -7 31 0 13 2 22 5 19 3 -3 6 -17 7 -31z m322 11
c-3 -3 -9 2 -12 12 -6 14 -5 15 5 6 7 -7 10 -15 7 -18z m300 -11 c7 -14 7 -25
0 -35 -8 -12 -9 -12 -5 1 6 20 -17 42 -30 29 -11 -11 -43 -2 -43 12 0 12 14
11 26 -1 8 -8 15 -6 24 5 7 8 14 14 15 13 1 -2 7 -12 13 -24z m-323 7 c-9 -8
-36 -10 -30 -2 2 4 11 8 20 8 8 0 13 -3 10 -6z m65 -11 c-6 -11 -12 -20 -14
-20 -2 0 -2 9 1 20 3 11 9 20 15 20 5 0 4 -9 -2 -20z m240 -29 c0 -10 -8 -22
-17 -26 -15 -5 -16 -4 -5 6 6 7 12 18 12 24 -1 5 -12 -3 -26 -20 -23 -26 -24
-27 -13 -5 20 41 49 54 49 21z m-544 -16 c1 -8 -1 -17 -5 -19 -4 -3 -7 6 -7
19 0 25 8 25 12 0z m384 21 c0 -3 -4 -8 -10 -11 -5 -3 -10 -1 -10 4 0 6 5 11
10 11 6 0 10 -2 10 -4z m187 -48 c-3 -8 -6 -5 -6 6 -1 11 2 17 5 13 3 -3 4
-12 1 -19z m213 7 c7 -9 8 -15 2 -15 -5 0 -12 7 -16 15 -3 8 -4 15 -2 15 2 0
9 -7 16 -15z m-160 -5 c0 -5 -2 -10 -4 -10 -3 0 -8 5 -11 10 -3 6 -1 10 4 10
6 0 11 -4 11 -10z m-25 -9 c3 -5 2 -12 -3 -15 -5 -3 -9 1 -9 9 0 17 3 19 12 6z
m-545 -6 c0 -2 -6 -8 -13 -14 -10 -8 -14 -7 -14 2 0 8 6 14 14 14 7 0 13 -1
13 -2z m685 -5 c3 -5 1 -10 -4 -10 -6 0 -11 5 -11 10 0 6 2 10 4 10 3 0 8 -4
11 -10z m-222 -15 c-3 -9 -8 -14 -10 -11 -3 3 -2 9 2 15 9 16 15 13 8 -4z
m-436 -39 c0 -8 -6 -12 -15 -9 -11 5 -11 7 0 14 7 5 13 9 14 9 0 0 1 -6 1 -14z
m-22 -40 c-6 -21 -6 -21 11 -1 13 15 15 16 11 3 -3 -9 1 -22 10 -30 15 -11 16
-11 10 5 -4 10 -3 16 2 12 5 -3 11 0 14 7 2 7 3 6 2 -2 -2 -8 -6 -24 -10 -35
-6 -16 -3 -15 14 5 11 14 21 20 21 15 0 -6 -6 -17 -12 -24 -11 -11 -10 -13 5
-8 11 4 16 3 12 -3 -10 -16 7 -11 19 6 10 14 14 13 31 -8 16 -19 16 -20 1 -7
-17 16 -20 15 -38 -3 -11 -11 -17 -22 -14 -26 4 -3 12 0 18 6 7 7 17 12 23 12
5 0 2 -5 -8 -11 -15 -9 -16 -13 -5 -27 11 -13 8 -12 -14 2 -15 10 -30 26 -33
37 -4 11 -10 17 -15 14 -5 -3 -14 4 -20 16 -9 15 -15 18 -23 10 -16 -16 -23
-14 -24 7 0 9 -3 27 -6 39 -4 16 -2 20 9 16 9 -3 13 -13 9 -27z m260 -115 c3
-5 2 -12 -3 -15 -5 -3 -9 1 -9 9 0 17 3 19 12 6z m29 -49 c3 -5 -1 -9 -9 -9
-8 0 -12 4 -9 9 3 4 7 8 9 8 2 0 6 -4 9 -8z m31 -22 c3 -5 1 -10 -4 -10 -6 0
-11 5 -11 10 0 6 2 10 4 10 3 0 8 -4 11 -10z m-55 -10 c0 -5 -5 -10 -11 -10
-5 0 -7 5 -4 10 3 6 8 10 11 10 2 0 4 -4 4 -10z m113 -65 c-3 -9 -8 -14 -10
-11 -3 3 -2 9 2 15 9 16 15 13 8 -4z m-26 -27 c-3 -8 -6 -5 -6 6 -1 11 2 17 5
13 3 -3 4 -12 1 -19z m70 -8 c-1 -11 -5 -20 -9 -20 -10 0 -10 4 -2 24 8 22 13
20 11 -4z m-67 -14 c0 -11 -19 -15 -25 -6 -3 5 1 10 9 10 9 0 16 -2 16 -4z
m40 -18 c0 -6 -3 -8 -7 -5 -3 4 -12 2 -20 -5 -11 -8 -12 -7 -7 6 7 18 34 22
34 4z m19 -15 c-12 -15 -12 -16 6 -9 36 14 54 15 61 4 5 -7 2 -8 -6 -3 -9 5
-10 1 -6 -16 7 -24 7 -24 -6 -2 -10 17 -17 19 -30 12 -10 -5 -15 -16 -12 -24
4 -8 10 -12 15 -9 5 3 6 10 3 16 -4 7 -2 8 4 4 6 -4 9 -13 6 -20 -4 -9 4 -12
30 -11 27 2 33 0 29 -13 -5 -11 -3 -13 8 -7 12 7 12 6 1 -7 -7 -9 -12 -20 -11
-24 4 -26 -5 -22 -46 20 -56 58 -68 79 -53 94 18 18 22 14 7 -5z m151 -105 c0
-3 -9 -6 -20 -5 -11 1 -20 5 -20 9 0 3 9 6 20 5 11 -1 20 -5 20 -9z m80 -58
c0 -5 -5 -10 -11 -10 -5 0 -7 5 -4 10 3 6 8 10 11 10 2 0 4 -4 4 -10z m-86
-15 c3 8 11 15 18 14 10 0 10 -2 1 -6 -7 -2 -13 -11 -13 -19 0 -9 4 -13 9 -10
5 3 12 -1 15 -9 4 -13 2 -13 -14 -5 -27 15 -32 12 -18 -9 7 -11 16 -17 20 -15
4 3 8 0 8 -6 0 -7 -9 -9 -22 -5 -23 6 -23 6 -3 -11 15 -13 16 -15 3 -11 -9 3
-22 -1 -28 -8 -7 -8 -17 -12 -23 -8 -6 3 -7 1 -3 -6 5 -7 13 -8 24 -2 9 5 26
5 38 1 12 -5 24 -6 27 -4 3 3 8 1 11 -5 6 -10 -38 -6 -56 5 -4 3 -8 1 -8 -5 0
-5 5 -11 11 -13 7 -2 5 -9 -5 -17 -14 -12 -16 -12 -10 4 5 11 4 16 -3 12 -5
-3 -20 1 -32 9 -21 15 -21 17 -4 29 10 7 19 18 19 24 1 6 3 13 4 16 7 13 5 31
-3 42 -5 7 -5 18 -1 24 5 9 10 7 19 -5 11 -14 13 -15 19 -1z m5394 -110 c-3
-3 -9 2 -12 12 -6 14 -5 15 5 6 7 -7 10 -15 7 -18z m-5308 9 c0 -8 -19 -13
-24 -6 -3 5 1 9 9 9 8 0 15 -2 15 -3z m5149 -48 c-3 -3 -11 5 -18 17 -13 21
-12 21 5 5 10 -10 16 -20 13 -22z m-5154 4 c3 -5 1 -10 -4 -10 -6 0 -11 5 -11
10 0 6 2 10 4 10 3 0 8 -4 11 -10z m-58 -45 c0 -8 -4 -15 -9 -15 -10 0 -11 14
-1 23 9 10 10 9 10 -8z m83 1 c0 -2 -8 -10 -17 -17 -16 -13 -17 -12 -4 4 13
16 21 21 21 13z m-25 -44 c-3 -3 -11 0 -18 7 -9 10 -8 11 6 5 10 -3 15 -9 12
-12z m78 -22 c10 -12 9 -12 -4 -2 -9 6 -18 9 -21 6 -3 -3 -9 -1 -12 4 -9 15
22 8 37 -8z m87 -4 c0 -3 -4 -8 -10 -11 -5 -3 -10 -1 -10 4 0 6 5 11 10 11 6
0 10 -2 10 -4z m8200 -100 c0 -3 -4 -8 -10 -11 -5 -3 -10 -1 -10 4 0 6 5 11
10 11 6 0 10 -2 10 -4z m331 -59 c-6 -8 -9 -17 -6 -21 3 -3 -1 -1 -7 4 -10 9
-10 13 2 20 21 13 24 12 11 -3z m-31 -17 c0 -5 -5 -10 -11 -10 -5 0 -7 5 -4
10 3 6 8 10 11 10 2 0 4 -4 4 -10z m-1520 -1384 c0 -2 -7 -9 -15 -16 -13 -11
-14 -10 -9 4 5 14 24 23 24 12z m205 -256 c3 -6 -1 -7 -9 -4 -18 7 -21 14 -7
14 6 0 13 -4 16 -10z m771 -22 c4 -7 3 -8 -4 -4 -7 4 -12 2 -12 -3 0 -6 -5
-11 -11 -11 -8 0 -8 5 1 15 15 18 17 18 26 3z m228 4 c2 -4 -4 -8 -14 -8 -10
0 -16 4 -14 8 3 4 9 8 14 8 5 0 11 -4 14 -8z m-634 -18 c0 -8 -19 -13 -24 -6
-3 5 1 9 9 9 8 0 15 -2 15 -3z m630 -39 c-7 -9 -15 -13 -17 -11 -7 7 7 26 19
26 6 0 6 -6 -2 -15z m104 -113 c3 -5 -1 -9 -9 -9 -8 0 -12 4 -9 9 3 4 7 8 9 8
2 0 6 -4 9 -8z m652 -114 c4 -7 3 -8 -4 -4 -7 4 -12 2 -12 -5 0 -7 -3 -10 -6
-6 -6 5 3 27 11 27 2 0 7 -5 11 -12z m55 -25 c13 -16 12 -17 -3 -4 -17 13 -22
21 -14 21 2 0 10 -8 17 -17z m-488 -294 c-8 -8 -13 -7 -18 2 -5 8 -4 10 3 5 7
-4 12 -2 12 5 0 7 3 9 7 6 4 -4 2 -12 -4 -18z m-7028 -588 c3 -5 2 -12 -3 -15
-5 -3 -9 1 -9 9 0 17 3 19 12 6z m-45 -15 c0 -2 -8 -10 -17 -17 -16 -13 -17
-12 -4 4 13 16 21 21 21 13z m120 0 c0 -2 -8 -10 -17 -17 -16 -13 -17 -12 -4
4 13 16 21 21 21 13z m-230 -66 c0 -5 -4 -10 -10 -10 -5 0 -10 5 -10 10 0 6 5
10 10 10 6 0 10 -4 10 -10z m55 1 c3 -5 2 -12 -3 -15 -5 -3 -9 1 -9 9 0 17 3
19 12 6z m6205 -16 c11 -13 10 -14 -4 -9 -9 3 -16 10 -16 15 0 13 6 11 20 -6z
m-6284 -30 c0 -13 -3 -22 -8 -19 -4 3 -6 10 -3 15 4 5 0 9 -7 10 -10 0 -10 2
0 6 6 2 9 10 5 16 -3 7 -2 8 3 4 4 -4 9 -19 10 -32z m-71 -23 c-5 -5 -45 22
-45 31 0 4 11 0 24 -10 13 -10 23 -19 21 -21z m-5 -30 c0 -2 -6 1 -13 7 -8 6
-18 7 -22 3 -5 -4 -5 -1 -1 6 4 6 5 12 2 12 -2 0 -13 3 -23 7 -16 6 -17 5 -3
-13 14 -18 14 -18 -2 -5 -16 12 -18 11 -14 -16 2 -22 -1 -29 -16 -30 -22 -2
-24 15 -2 24 12 4 13 8 3 14 -10 6 -7 12 11 27 23 19 24 19 52 -6 15 -14 28
-27 28 -30z m-113 -14 c-7 -10 -14 -18 -18 -18 -10 0 -6 34 5 46 16 18 27 -5
13 -28z m73 8 c0 -3 -4 -8 -10 -11 -5 -3 -10 -1 -10 4 0 6 5 11 10 11 6 0 10
-2 10 -4z m6360 -76 c0 -5 -2 -10 -4 -10 -3 0 -8 5 -11 10 -3 6 -1 10 4 10 6
0 11 -4 11 -10z m-6385 -40 c3 -5 1 -10 -4 -10 -6 0 -11 5 -11 10 0 6 2 10 4
10 3 0 8 -4 11 -10z m-95 -15 c0 -12 -19 -12 -23 0 -4 9 -1 12 9 8 7 -3 14 -7
14 -8z m65 -5 c3 -6 -1 -7 -9 -4 -18 7 -21 14 -7 14 6 0 13 -4 16 -10z m56
-37 c13 -16 12 -17 -3 -4 -17 13 -22 21 -14 21 2 0 10 -8 17 -17z m-140 -50
c13 -15 16 -21 7 -14 -11 8 -28 11 -43 7 -24 -6 -25 -6 -8 14 10 11 18 20 18
20 1 0 12 -12 26 -27z m59 3 c0 -2 -8 -10 -17 -17 -16 -13 -17 -12 -4 4 13 16
21 21 21 13z m5140 -35 c0 -14 -29 -21 -36 -9 -4 6 -3 8 4 4 6 -3 13 -2 17 4
8 12 15 13 15 1z m-5306 -46 c-4 -10 -2 -14 7 -10 8 2 25 -5 39 -16 24 -20 24
-20 2 -9 -20 10 -27 8 -45 -7 -11 -10 -17 -13 -14 -6 4 6 3 14 -3 18 -5 3 -10
2 -10 -3 0 -5 -7 -9 -15 -9 -22 0 -18 15 5 22 11 4 18 10 15 15 -4 7 1 12 22
19 1 1 0 -6 -3 -14z m97 -8 c-10 -9 -11 -8 -5 6 3 10 9 15 12 12 3 -3 0 -11
-7 -18z m-64 -44 c-9 -2 -14 -9 -11 -15 4 -7 2 -8 -5 -4 -15 10 -4 26 17 25
15 -1 15 -2 -1 -6z m-202 -103 c-3 -5 -1 -10 4 -10 6 0 11 6 11 13 0 7 5 5 11
-5 5 -10 17 -15 27 -12 14 5 14 4 2 -4 -10 -8 -18 -8 -27 0 -16 13 -17 -4 -1
-20 9 -9 9 -12 0 -12 -7 0 -12 5 -12 11 0 5 -5 7 -10 4 -8 -5 -7 -11 1 -21 10
-12 10 -15 -2 -12 -8 2 -13 -3 -11 -9 1 -7 -2 -13 -8 -13 -12 0 -13 13 -3 24
13 13 11 36 -3 36 -9 0 -12 -5 -9 -10 4 -6 1 -17 -5 -25 -9 -11 -10 -19 -1
-28 8 -10 7 -14 -4 -14 -8 0 -12 4 -9 8 2 4 0 10 -6 14 -5 3 -10 1 -10 -5 0
-7 -7 -10 -17 -6 -15 5 -14 3 2 -10 16 -13 16 -15 3 -11 -10 3 -20 2 -23 -3
-4 -6 -1 -10 4 -10 6 0 11 -5 11 -12 0 -9 -3 -9 -12 0 -17 17 -33 15 -18 -3 7
-9 11 -17 9 -20 -3 -2 -10 5 -17 15 -10 17 -7 25 19 54 20 23 36 33 46 29 10
-4 14 -2 10 4 -4 6 5 25 19 42 25 30 42 42 29 21z m3375 -74 c0 -2 -8 -10 -17
-17 -16 -13 -17 -12 -4 4 13 16 21 21 21 13z m-30 -51 c-5 -6 -7 -15 -3 -18
10 -10 -10 -8 -27 3 -12 8 -12 10 3 16 9 3 14 10 11 15 -3 5 2 6 11 3 11 -5
13 -10 5 -19z m-3370 -15 c0 -5 -7 -7 -15 -4 -8 4 -15 8 -15 10 0 2 7 4 15 4
8 0 15 -4 15 -10z m-175 -59 c-3 -5 3 -16 12 -23 10 -7 19 -20 21 -28 2 -12
-1 -11 -11 2 -10 13 -16 15 -25 6 -14 -14 -16 -32 -3 -23 5 3 12 1 15 -4 4 -5
-1 -8 -10 -7 -18 3 -35 26 -28 38 3 4 0 8 -7 8 -6 0 -1 9 12 20 27 22 33 24
24 11z m5142 -6 c0 -8 -4 -12 -9 -9 -5 3 -6 10 -3 15 9 13 12 11 12 -6z
m-5022 -15 c3 -6 -1 -7 -9 -4 -18 7 -21 14 -7 14 6 0 13 -4 16 -10z m4746 -13
c-10 -9 -11 -8 -5 6 3 10 9 15 12 12 3 -3 0 -11 -7 -18z m59 8 c-7 -9 -15 -13
-19 -10 -3 3 1 10 9 15 21 14 24 12 10 -5z m-4856 -33 c3 -5 -1 -9 -9 -9 -8 0
-12 4 -9 9 3 4 7 8 9 8 2 0 6 -4 9 -8z m5520 -20 c3 -5 -1 -9 -9 -9 -8 0 -12
4 -9 9 3 4 7 8 9 8 2 0 6 -4 9 -8z m-5601 -29 c-6 -16 -3 -15 18 2 13 11 18
13 11 4 -6 -9 -10 -19 -7 -22 3 -4 2 -5 -2 -2 -3 3 -12 0 -18 -5 -9 -8 -12 -4
-10 12 3 26 3 28 10 28 2 0 2 -8 -2 -17z m5414 2 c0 -8 -4 -12 -9 -9 -5 3 -6
10 -3 15 9 13 12 11 12 -6z m408 -5 c3 -6 -1 -7 -9 -4 -18 7 -21 14 -7 14 6 0
13 -4 16 -10z m-312 -13 c3 -8 -1 -14 -8 -14 -7 0 -11 6 -8 14 3 7 6 13 8 13
2 0 5 -6 8 -13z m-5523 -37 c0 -5 -2 -10 -4 -10 -3 0 -8 5 -11 10 -3 6 -1 10
4 10 6 0 11 -4 11 -10z"/>
<path d="M3780 7782 c0 -5 6 -16 13 -26 12 -16 13 -16 13 3 0 11 -6 23 -13 25
-7 3 -13 2 -13 -2z"/>
<path d="M701 7123 c-1 -17 16 -25 25 -12 4 7 3 9 -4 5 -5 -3 -13 0 -15 6 -4
9 -6 10 -6 1z"/>
<path d="M748 7073 c-7 -9 -16 -10 -32 -2 -20 10 -20 10 -2 -5 11 -9 16 -16
11 -16 -4 0 0 -9 11 -21 10 -12 18 -23 17 -25 -8 -12 -1 -15 10 -5 8 6 18 7
22 3 5 -4 5 -1 0 7 -13 23 -14 61 -2 62 7 1 20 2 29 2 10 0 15 3 12 8 -7 12
-64 6 -76 -8z m18 -5 c-1 -7 -5 -18 -9 -25 -4 -6 -1 -13 5 -16 10 -3 10 -8 -1
-18 -8 -8 -11 -9 -8 -3 4 7 0 17 -8 24 -14 11 -14 15 1 31 20 22 23 23 20 7z"/>
<path d="M844 7079 c-4 -7 -3 -9 3 -6 6 4 16 0 23 -8 9 -10 9 -15 1 -15 -6 0
-11 -4 -11 -10 0 -19 17 -10 28 16 8 16 8 23 2 19 -6 -4 -17 -2 -25 5 -10 8
-15 8 -21 -1z"/>
<path d="M830 6960 c0 -5 5 -10 11 -10 5 0 7 5 4 10 -3 6 -8 10 -11 10 -2 0
-4 -4 -4 -10z"/>
<path d="M787 6949 c7 -7 15 -10 18 -7 3 3 -2 9 -12 12 -14 6 -15 5 -6 -5z"/>
<path d="M2341 6903 c-1 -17 16 -25 25 -12 4 7 3 9 -4 5 -5 -3 -13 0 -15 6 -4
9 -6 10 -6 1z"/>
<path d="M1583 6248 c11 -15 21 -28 22 -28 1 0 0 19 -4 52 -1 4 -9 6 -20 5
-18 -1 -18 -2 2 -29z"/>
<path d="M1630 6161 c0 -6 4 -13 10 -16 6 -3 7 1 4 9 -7 18 -14 21 -14 7z"/>
<path d="M1642 6125 c4 -4 3 -14 -3 -22 -6 -7 -8 -13 -4 -13 4 0 1 -8 -6 -17
-13 -16 -12 -17 4 -4 9 8 15 16 12 19 -3 3 0 11 6 18 7 9 6 14 -3 20 -7 4 -10
4 -6 -1z"/>
<path d="M2836 2368 c3 -5 10 -6 15 -3 13 9 11 12 -6 12 -8 0 -12 -4 -9 -9z"/>
<path d="M2459 2028 c0 -2 -2 -11 -4 -21 -3 -15 -1 -16 11 -6 7 6 11 15 8 20
-5 9 -13 12 -15 7z"/>
<path d="M10197 8483 c3 -7 9 -13 13 -13 4 0 10 6 13 13 3 7 -3 13 -13 13 -10
0 -16 -6 -13 -13z"/>
<path d="M3555 8460 c3 -5 8 -10 11 -10 2 0 4 5 4 10 0 6 -5 10 -11 10 -5 0
-7 -4 -4 -10z"/>
<path d="M3435 8450 c-3 -6 1 -13 9 -16 9 -3 13 -11 9 -17 -4 -6 -1 -7 7 -2
10 6 10 11 -3 20 -9 7 -14 15 -10 18 3 4 4 7 0 7 -3 0 -9 -5 -12 -10z"/>
<path d="M3526 8438 c3 -4 9 -8 15 -8 5 0 9 4 9 8 0 5 -7 9 -15 9 -8 0 -12 -4
-9 -9z"/>
<path d="M3616 8438 c3 -5 10 -6 15 -3 13 9 11 12 -6 12 -8 0 -12 -4 -9 -9z"/>
<path d="M3395 8411 c-3 -5 -2 -12 3 -15 5 -3 9 1 9 9 0 17 -3 19 -12 6z"/>
<path d="M10185 8410 c-3 -5 -1 -10 4 -10 6 0 11 5 11 10 0 6 -2 10 -4 10 -3
0 -8 -4 -11 -10z"/>
<path d="M10000 8360 c-12 -7 -10 -9 7 -7 12 0 19 5 17 9 -6 10 -6 10 -24 -2z"/>
<path d="M3433 8328 c-2 -18 0 -20 7 -8 12 18 13 30 2 30 -4 0 -9 -10 -9 -22z"/>
<path d="M3622 8338 c2 -5 8 -9 13 -9 5 0 11 4 13 9 1 5 -4 9 -13 9 -9 0 -14
-4 -13 -9z"/>
<path d="M3455 8320 c-3 -6 1 -7 9 -4 18 7 21 14 7 14 -6 0 -13 -4 -16 -10z"/>
<path d="M3450 8280 c0 -5 5 -10 11 -10 5 0 7 5 4 10 -3 6 -8 10 -11 10 -2 0
-4 -4 -4 -10z"/>
<path d="M9894 8274 c-18 -14 -18 -15 4 -4 12 6 22 13 22 15 0 8 -5 6 -26 -11z"/>
<path d="M3515 8247 c-16 -10 -21 -16 -10 -12 35 12 50 13 63 2 9 -7 11 -6 6
6 -9 24 -26 26 -59 4z"/>
<path d="M3475 8250 c-3 -6 1 -7 9 -4 18 7 21 14 7 14 -6 0 -13 -4 -16 -10z"/>
<path d="M9836 8233 c-6 -14 -5 -15 5 -6 7 7 10 15 7 18 -3 3 -9 -2 -12 -12z"/>
<path d="M3455 8220 c-3 -5 -1 -10 4 -10 6 0 11 5 11 10 0 6 -2 10 -4 10 -3 0
-8 -4 -11 -10z"/>
<path d="M3587 8179 c7 -7 15 -10 18 -7 3 3 -2 9 -12 12 -14 6 -15 5 -6 -5z"/>
<path d="M3558 8123 c7 -3 16 -2 19 1 4 3 -2 6 -13 5 -11 0 -14 -3 -6 -6z"/>
<path d="M3607 8109 c-4 -16 -3 -18 9 -8 7 6 11 15 8 20 -8 13 -11 11 -17 -12z"/>
<path d="M3576 8097 c3 -10 9 -15 12 -12 3 3 0 11 -7 18 -10 9 -11 8 -5 -6z"/>
<path d="M3555 8080 c-3 -5 -1 -10 4 -10 6 0 11 5 11 10 0 6 -2 10 -4 10 -3 0
-8 -4 -11 -10z"/>
<path d="M3609 8079 c-12 -8 -11 -10 1 -8 28 3 41 -1 35 -11 -3 -5 -11 -8 -18
-6 -7 1 -8 1 -3 -2 4 -2 2 -9 -5 -14 -11 -8 -10 -9 4 -4 9 3 17 1 17 -4 0 -6
-4 -10 -9 -10 -5 0 6 -17 25 -37 19 -20 31 -39 28 -42 -3 -3 -14 5 -25 18 -11
13 -22 22 -24 19 -5 -5 32 -48 43 -49 4 0 15 -2 25 -4 14 -3 16 0 7 10 -8 9
-8 15 0 20 6 3 8 11 4 16 -3 5 -10 6 -16 3 -8 -5 -9 -1 -5 10 4 10 1 19 -8 23
-11 4 -13 9 -5 18 7 9 5 19 -8 35 -21 26 -43 32 -63 19z m54 -36 c-5 -12 -3
-14 8 -8 12 7 12 6 1 -7 -11 -14 -10 -18 5 -27 15 -9 16 -10 2 -11 -19 0 -35
19 -33 40 3 28 4 30 14 30 5 0 6 -7 3 -17z m42 -75 c5 4 5 1 1 -6 -6 -10 -11
-10 -22 -1 -8 6 -14 14 -14 16 0 3 6 0 13 -6 8 -6 18 -7 22 -3z"/>
<path d="M9087 8003 c-4 -3 -7 -11 -7 -17 0 -6 5 -5 12 2 6 6 9 14 7 17 -3 3
-9 2 -12 -2z"/>
<path d="M3636 7881 c9 -9 34 -9 34 -1 0 5 -9 8 -20 7 -10 -1 -17 -3 -14 -6z"/>
<path d="M3731 7860 c14 -31 19 -36 19 -24 0 6 -7 19 -16 30 -14 18 -14 18 -3
-6z"/>
<path d="M8897 7863 c-4 -3 -7 -11 -7 -17 0 -6 5 -5 12 2 6 6 9 14 7 17 -3 3
-9 2 -12 -2z"/>
<path d="M3668 7837 c-3 -19 -2 -25 4 -19 6 6 8 18 6 28 -3 14 -5 12 -10 -9z"/>
<path d="M8853 7835 c0 -8 4 -12 9 -9 5 3 6 10 3 15 -9 13 -12 11 -12 -6z"/>
<path d="M3655 7780 c-3 -5 -1 -10 4 -10 6 0 11 5 11 10 0 6 -2 10 -4 10 -3 0
-8 -4 -11 -10z"/>
<path d="M8675 7700 c-3 -5 -1 -10 4 -10 6 0 11 5 11 10 0 6 -2 10 -4 10 -3 0
-8 -4 -11 -10z"/>
<path d="M8430 7439 c0 -5 -5 -7 -12 -3 -7 4 -8 3 -4 -5 6 -9 11 -9 22 0 17
14 18 19 4 19 -5 0 -10 -5 -10 -11z"/>
<path d="M8276 7317 c3 -10 9 -15 12 -12 3 3 0 11 -7 18 -10 9 -11 8 -5 -6z"/>
<path d="M9823 7315 c0 -8 4 -12 9 -9 5 3 6 10 3 15 -9 13 -12 11 -12 -6z"/>
<path d="M7870 7299 c0 -5 5 -7 10 -4 6 3 10 8 10 11 0 2 -4 4 -10 4 -5 0 -10
-5 -10 -11z"/>
<path d="M670 7203 c0 -6 8 -17 18 -24 16 -13 16 -13 2 6 -8 11 -16 22 -17 24
-2 2 -3 0 -3 -6z"/>
<path d="M720 7206 c0 -2 8 -10 18 -17 15 -13 16 -12 3 4 -13 16 -21 21 -21
13z"/>
<path d="M656 7166 c3 -9 13 -16 22 -16 8 0 13 1 11 3 -2 1 -12 9 -22 16 -15
12 -17 12 -11 -3z"/>
<path d="M555 7160 c-3 -5 -1 -10 4 -10 6 0 11 5 11 10 0 6 -2 10 -4 10 -3 0
-8 -4 -11 -10z"/>
<path d="M793 7153 c0 -9 4 -10 14 -2 7 6 13 12 13 14 0 1 -6 2 -13 2 -8 0
-14 -6 -14 -14z"/>
<path d="M880 7120 c0 -5 5 -10 11 -10 5 0 7 5 4 10 -3 6 -8 10 -11 10 -2 0
-4 -4 -4 -10z"/>
<path d="M936 7118 c3 -5 10 -5 16 -2 7 5 9 1 5 -9 -9 -23 0 -22 12 1 8 15 6
18 -14 18 -13 0 -21 -4 -19 -8z"/>
<path d="M1057 7104 c-8 -8 3 -34 15 -34 7 0 6 5 -1 13 -6 8 -8 17 -4 20 3 4
4 7 1 7 -2 0 -7 -3 -11 -6z"/>
<path d="M970 7079 c0 -5 -4 -7 -10 -4 -5 3 -10 1 -10 -4 0 -13 3 -13 24 -5
18 7 22 24 6 24 -5 0 -10 -5 -10 -11z"/>
<path d="M633 7065 c0 -8 4 -15 9 -15 4 0 8 4 8 9 0 6 -4 12 -8 15 -5 3 -9 -1
-9 -9z"/>
<path d="M6945 7070 c-3 -6 1 -7 9 -4 18 7 21 14 7 14 -6 0 -13 -4 -16 -10z"/>
<path d="M596 7062 c-3 -5 1 -9 9 -9 8 0 12 4 9 9 -3 4 -7 8 -9 8 -2 0 -6 -4
-9 -8z"/>
<path d="M1125 7042 c-23 -32 -28 -53 -10 -46 7 3 16 1 19 -5 4 -6 13 -8 20
-5 8 3 17 0 21 -5 3 -6 11 -8 17 -5 5 4 23 -8 39 -25 16 -18 29 -31 30 -29 7
27 5 43 -6 65 -8 15 -12 30 -9 35 3 4 0 8 -6 8 -6 0 -8 -11 -5 -27 6 -24 5
-26 -7 -12 -14 17 -52 34 -43 20 3 -5 1 -12 -5 -16 -10 -6 -13 5 -11 35 0 9
-2 10 -5 3 -3 -7 -12 -9 -20 -6 -11 4 -12 8 -3 19 7 8 10 16 8 18 -2 2 -13 -8
-24 -22z m30 -42 c-4 -6 -14 -5 -25 2 -24 16 -15 31 11 18 11 -6 17 -15 14
-20z m65 -15 c7 -8 16 -13 20 -10 5 3 11 1 14 -4 12 -20 -12 -20 -30 0 -10 11
-24 17 -31 14 -8 -2 -11 0 -8 5 9 14 21 12 35 -5z"/>
<path d="M1976 7062 c-2 -4 -1 -14 4 -22 7 -11 9 -9 7 8 -1 24 -3 26 -11 14z"/>
<path d="M2060 7060 c-12 -7 -10 -9 7 -7 12 0 19 5 17 9 -6 10 -6 10 -24 -2z"/>
<path d="M657 7036 c-4 -10 -1 -13 9 -9 7 3 14 9 14 14 0 14 -17 10 -23 -5z"/>
<path d="M2106 7042 c-3 -5 1 -9 9 -9 8 0 12 4 9 9 -3 4 -7 8 -9 8 -2 0 -6 -4
-9 -8z"/>
<path d="M6945 7041 c-3 -5 -2 -12 3 -15 5 -3 9 1 9 9 0 17 -3 19 -12 6z"/>
<path d="M1294 7023 c3 -6 -2 -16 -11 -22 -10 -5 -14 -13 -9 -18 5 -4 11 -2
13 5 3 6 8 10 13 7 11 -7 7 22 -5 32 -4 4 -5 3 -1 -4z"/>
<path d="M675 7011 c-3 -5 0 -13 6 -17 7 -4 9 -3 5 4 -3 5 0 13 6 15 9 4 10 6
1 6 -6 1 -14 -3 -18 -8z"/>
<path d="M2030 7008 c3 -3 21 -13 40 -23 19 -10 32 -14 28 -10 -4 5 -3 14 3
22 9 9 8 13 0 13 -6 0 -11 -5 -11 -11 0 -6 -7 -8 -15 -5 -37 15 -50 19 -45 14z"/>
<path d="M3095 7000 c-3 -5 -1 -10 4 -10 6 0 11 5 11 10 0 6 -2 10 -4 10 -3 0
-8 -4 -11 -10z"/>
<path d="M3053 6995 c4 -5 -2 -14 -14 -20 -20 -11 -20 -12 -3 -19 10 -4 15 -4
11 0 -4 4 1 12 10 19 13 10 14 13 2 20 -8 5 -10 4 -6 0z"/>
<path d="M655 6980 c3 -5 8 -10 11 -10 2 0 4 5 4 10 0 6 -5 10 -11 10 -5 0 -7
-4 -4 -10z"/>
<path d="M1337 6979 c7 -7 15 -10 18 -7 3 3 -2 9 -12 12 -14 6 -15 5 -6 -5z"/>
<path d="M1410 6980 c0 -5 5 -10 11 -10 5 0 7 5 4 10 -3 6 -8 10 -11 10 -2 0
-4 -4 -4 -10z"/>
<path d="M2110 6979 c0 -6 5 -7 10 -4 6 3 10 1 10 -5 0 -6 5 -8 10 -5 16 10
11 21 -10 22 -11 1 -20 -3 -20 -8z"/>
<path d="M1307 6969 c7 -7 15 -10 18 -7 3 3 -2 9 -12 12 -14 6 -15 5 -6 -5z"/>
<path d="M2275 6970 c-4 -6 -11 -8 -16 -5 -5 4 -9 1 -9 -4 0 -16 16 -13 30 4
7 8 10 15 7 15 -3 0 -9 -5 -12 -10z"/>
<path d="M3070 6960 c-9 -16 -8 -18 5 -14 8 3 13 10 10 14 -3 5 1 11 7 13 10
4 10 6 1 6 -7 1 -17 -8 -23 -19z"/>
<path d="M1283 6963 c4 -6 2 -13 -5 -15 -9 -3 -9 -6 0 -12 7 -4 12 -2 12 5 0
6 8 1 19 -12 l18 -23 7 22 c4 13 13 19 21 15 8 -3 13 -9 10 -13 -6 -10 20 -32
28 -23 4 3 15 -1 24 -10 17 -14 18 -13 19 20 1 33 0 33 -11 12 l-13 -22 -24
24 c-18 18 -34 24 -53 22 -15 -2 -34 2 -43 9 -10 8 -13 9 -9 1z"/>
<path d="M1391 6958 c-1 -21 15 -32 25 -17 4 7 3 9 -4 5 -6 -3 -13 2 -15 11
-4 16 -5 16 -6 1z"/>
<path d="M1473 6953 c0 -11 7 -20 14 -20 10 0 10 4 1 16 -7 9 -13 18 -15 20
-1 2 -1 -5 0 -16z"/>
<path d="M3151 6954 c0 -11 3 -14 6 -6 3 7 2 16 -1 19 -3 4 -6 -2 -5 -13z"/>
<path d="M3170 6961 c0 -6 4 -13 10 -16 6 -3 7 1 4 9 -7 18 -14 21 -14 7z"/>
<path d="M2350 6946 c0 -2 7 -7 16 -10 8 -3 12 -2 9 4 -6 10 -25 14 -25 6z"/>
<path d="M2393 6933 c1 -10 6 -24 11 -31 4 -7 5 -19 2 -27 -3 -8 0 -12 7 -9
16 6 20 44 4 41 -7 -1 -11 8 -11 21 1 12 -2 22 -7 22 -5 0 -8 -8 -6 -17z"/>
<path d="M733 6910 c1 -21 10 -18 13 5 1 8 -2 15 -6 15 -5 0 -8 -9 -7 -20z"/>
<path d="M870 6914 c0 -8 5 -12 10 -9 6 4 8 11 5 16 -9 14 -15 11 -15 -7z"/>
<path d="M1556 6922 c-3 -5 1 -9 9 -9 8 0 12 4 9 9 -3 4 -7 8 -9 8 -2 0 -6 -4
-9 -8z"/>
<path d="M2434 6923 c3 -3 17 -7 32 -9 14 -1 23 0 20 3 -3 4 -18 8 -32 9 -14
2 -24 0 -20 -3z"/>
<path d="M3220 6921 c0 -5 7 -12 16 -15 14 -5 15 -4 4 9 -14 17 -20 19 -20 6z"/>
<path d="M1635 6911 c-3 -5 -2 -12 3 -15 5 -3 9 1 9 9 0 17 -3 19 -12 6z"/>
<path d="M2560 6900 c-9 -6 -10 -10 -3 -10 6 0 15 5 18 10 8 12 4 12 -15 0z"/>
<path d="M9630 6899 c0 -5 5 -7 10 -4 6 3 10 8 10 11 0 2 -4 4 -10 4 -5 0 -10
-5 -10 -11z"/>
<path d="M1667 6880 c5 -23 5 -24 -12 -10 -11 8 -16 10 -12 3 4 -6 3 -14 -3
-18 -12 -7 -4 -25 12 -25 5 0 8 6 5 13 -3 8 4 14 16 15 17 1 18 -1 7 -8 -8 -5
-11 -13 -6 -17 5 -4 11 -2 13 5 4 10 8 10 21 0 10 -8 13 -9 9 -1 -4 6 -2 13 4
15 7 2 5 9 -5 17 -14 12 -16 11 -9 -5 6 -17 5 -17 -10 -5 -9 7 -14 18 -10 24
3 5 1 7 -5 3 -5 -3 -13 0 -16 6 -3 7 -3 2 1 -12z"/>
<path d="M2492 6891 c-11 -6 -10 -11 3 -25 19 -18 35 -13 34 12 0 14 -2 14 -8
-2 -5 -14 -10 -16 -15 -8 -4 7 -4 17 -1 22 7 12 4 12 -13 1z"/>
<path d="M2596 6887 c3 -10 9 -15 12 -12 3 3 0 11 -7 18 -10 9 -11 8 -5 -6z"/>
<path d="M789 6863 c-13 -16 -12 -17 4 -4 16 13 21 21 13 21 -2 0 -10 -8 -17
-17z"/>
<path d="M850 6850 c6 -11 13 -20 16 -20 2 0 0 9 -6 20 -6 11 -13 20 -16 20
-2 0 0 -9 6 -20z"/>
<path d="M833 6831 c0 -11 5 -18 9 -15 4 3 5 11 1 19 -7 21 -12 19 -10 -4z"/>
<path d="M910 6838 c0 -4 4 -8 9 -8 6 0 12 4 15 8 3 5 -1 9 -9 9 -8 0 -15 -4
-15 -9z"/>
<path d="M1753 6835 c0 -8 4 -12 9 -9 4 3 8 9 8 15 0 5 -4 9 -8 9 -5 0 -9 -7
-9 -15z"/>
<path d="M913 6808 c2 -7 10 -13 18 -13 22 -1 39 -15 39 -33 0 -13 -2 -13 -16
4 -15 18 -15 18 -5 -2 6 -12 7 -24 4 -28 -3 -3 -1 -6 5 -6 6 0 14 9 17 20 4
11 11 18 16 14 6 -3 5 -12 -3 -22 -12 -15 -11 -16 4 -3 10 7 15 18 11 24 -3 6
-1 7 5 3 17 -10 15 -14 -13 -41 -20 -17 -23 -25 -13 -31 7 -4 10 -4 6 1 -4 4
0 14 10 21 25 19 37 17 21 -3 -7 -10 -9 -15 -5 -11 5 4 16 2 24 -5 11 -8 14
-8 9 0 -4 6 -2 13 4 15 7 2 2 18 -14 41 -15 22 -28 33 -32 27 -4 -6 -15 0 -27
15 -15 19 -24 23 -31 16 -14 -14 -30 -14 -22 -1 3 6 1 10 -5 10 -7 0 -10 -6
-7 -12z m58 -15 c13 -16 12 -17 -3 -4 -17 13 -22 21 -14 21 2 0 10 -8 17 -17z
m68 -57 c9 -11 9 -16 -1 -22 -7 -4 -10 -4 -6 1 4 4 3 14 -3 22 -6 7 -9 13 -6
13 2 0 10 -6 16 -14z"/>
<path d="M796 6802 c-3 -5 1 -9 9 -9 8 0 12 4 9 9 -3 4 -7 8 -9 8 -2 0 -6 -4
-9 -8z"/>
<path d="M916 6738 c3 -5 10 -6 15 -3 13 9 11 12 -6 12 -8 0 -12 -4 -9 -9z"/>
<path d="M1010 6682 c0 -5 7 -9 15 -9 8 0 12 4 9 9 -3 4 -9 8 -15 8 -5 0 -9
-4 -9 -8z"/>
<path d="M1150 6576 c0 -2 7 -9 15 -16 9 -7 15 -8 15 -2 0 5 -7 12 -15 16 -8
3 -15 4 -15 2z"/>
<path d="M1281 6528 c-15 -24 -6 -37 12 -18 10 10 9 11 -2 5 -10 -6 -12 -4 -7
4 5 7 11 10 14 6 11 -10 10 -50 -2 -64 -8 -11 -8 -13 2 -7 11 6 17 -11 13 -36
0 -5 4 -8 9 -8 6 0 8 12 5 28 -6 25 -5 25 8 10 8 -10 17 -18 21 -18 14 0 33
-26 30 -42 -1 -10 3 -15 11 -12 18 7 27 32 14 39 -5 4 -7 10 -4 15 6 10 -23
27 -45 25 -25 -2 -40 16 -36 44 4 38 -25 57 -43 29z m112 -91 c7 3 9 3 5 -2
-4 -4 -3 -14 3 -21 7 -8 6 -14 -2 -20 -7 -4 -9 -3 -6 3 4 6 0 16 -8 23 -8 7
-15 18 -14 24 0 7 2 6 6 -2 2 -6 10 -9 16 -5z"/>
<path d="M1166 6518 c3 -5 10 -6 15 -3 13 9 11 12 -6 12 -8 0 -12 -4 -9 -9z"/>
<path d="M1200 6526 c0 -2 7 -7 16 -10 8 -3 12 -2 9 4 -6 10 -25 14 -25 6z"/>
<path d="M1190 6506 c0 -2 7 -7 16 -10 8 -3 12 -2 9 4 -6 10 -25 14 -25 6z"/>
<path d="M1238 6493 c7 -3 16 -2 19 1 4 3 -2 6 -13 5 -11 0 -14 -3 -6 -6z"/>
<path d="M1273 6475 c0 -8 4 -12 9 -9 4 3 8 9 8 15 0 5 -4 9 -8 9 -5 0 -9 -7
-9 -15z"/>
<path d="M1215 6460 c-3 -5 -1 -10 4 -10 6 0 11 5 11 10 0 6 -2 10 -4 10 -3 0
-8 -4 -11 -10z"/>
<path d="M1347 6398 c6 -7 9 -20 8 -29 -2 -9 3 -16 11 -16 7 0 10 5 6 11 -7
11 -8 16 -11 36 0 6 -6 10 -12 10 -8 0 -8 -4 -2 -12z"/>
<path d="M1427 6327 c-3 -8 3 -14 16 -15 12 0 17 2 12 6 -6 4 -13 11 -16 15
-4 4 -9 2 -12 -6z"/>
<path d="M1470 6300 c0 -6 4 -9 9 -5 5 3 12 -2 14 -10 4 -12 5 -12 3 1 -1 19
-26 32 -26 14z"/>
<path d="M1455 6260 c3 -5 8 -10 11 -10 2 0 4 5 4 10 0 6 -5 10 -11 10 -5 0
-7 -4 -4 -10z"/>
<path d="M1496 6222 c-3 -4 4 -9 15 -9 23 -2 25 3 4 10 -8 4 -16 3 -19 -1z"/>
<path d="M1553 6205 c0 -8 4 -12 9 -9 4 3 8 0 8 -7 0 -7 2 -10 5 -7 7 7 -5 38
-14 38 -4 0 -8 -7 -8 -15z"/>
<path d="M1630 6206 c0 -2 7 -7 16 -10 8 -3 12 -2 9 4 -6 10 -25 14 -25 6z"/>
<path d="M1515 6180 c3 -5 8 -10 11 -10 2 0 4 5 4 10 0 6 -5 10 -11 10 -5 0
-7 -4 -4 -10z"/>
<path d="M1570 6160 c0 -5 5 -10 11 -10 5 0 7 5 4 10 -3 6 -8 10 -11 10 -2 0
-4 -4 -4 -10z"/>
<path d="M7077 6155 c-4 -8 -3 -16 1 -19 4 -3 9 4 9 15 2 23 -3 25 -10 4z"/>
<path d="M1556 6115 c-9 -26 -7 -32 5 -12 6 10 9 21 6 23 -2 3 -7 -2 -11 -11z"/>
<path d="M1541 6053 c-1 -17 16 -25 25 -12 4 7 3 9 -4 5 -5 -3 -13 0 -15 6 -4
9 -6 10 -6 1z"/>
<path d="M9736 5873 c-6 -14 -5 -15 5 -6 7 7 10 15 7 18 -3 3 -9 -2 -12 -12z"/>
<path d="M10290 5639 c0 -5 5 -7 10 -4 6 3 10 8 10 11 0 2 -4 4 -10 4 -5 0
-10 -5 -10 -11z"/>
<path d="M10206 5612 c-3 -5 1 -9 9 -9 8 0 12 4 9 9 -3 4 -7 8 -9 8 -2 0 -6
-4 -9 -8z"/>
<path d="M9636 5102 c-3 -5 1 -9 9 -9 8 0 12 4 9 9 -3 4 -7 8 -9 8 -2 0 -6 -4
-9 -8z"/>
<path d="M9545 4990 c-3 -6 1 -7 9 -4 18 7 21 14 7 14 -6 0 -13 -4 -16 -10z"/>
<path d="M9580 4941 c-13 -25 -13 -41 1 -18 6 9 14 15 20 12 5 -3 6 1 3 9 -8
21 -11 20 -24 -3z"/>
<path d="M10124 4086 c1 -9 7 -21 13 -27 9 -9 11 -7 9 5 -1 9 -7 21 -13 27 -9
9 -11 7 -9 -5z"/>
<path d="M10930 3769 c0 -5 5 -7 10 -4 6 3 10 8 10 11 0 2 -4 4 -10 4 -5 0
-10 -5 -10 -11z"/>
<path d="M10115 3169 c-4 -6 -5 -12 -2 -15 2 -3 7 2 10 11 7 17 1 20 -8 4z"/>
<path d="M9795 3041 c-3 -5 -2 -12 3 -15 5 -3 9 1 9 9 0 17 -3 19 -12 6z"/>
<path d="M3295 2969 c-4 -6 -5 -12 -2 -15 2 -3 7 2 10 11 7 17 1 20 -8 4z"/>
<path d="M3346 2945 c-5 -14 -9 -15 -21 -5 -10 9 -15 9 -15 1 0 -6 5 -11 10
-11 6 0 10 -4 10 -10 0 -15 -24 -7 -32 10 -5 11 -7 10 -7 -6 -1 -11 -8 -21
-16 -22 -8 -1 -21 -3 -29 -4 -8 -1 -12 -7 -10 -13 3 -7 -3 -18 -12 -26 -15
-12 -16 -11 -10 11 5 20 3 18 -11 -8 -12 -21 -22 -29 -28 -23 -7 7 -15 6 -25
0 -13 -9 -12 -10 2 -5 10 3 20 1 23 -4 4 -6 1 -10 -4 -10 -6 0 -11 -6 -11 -14
0 -8 -4 -17 -9 -21 -6 -3 -8 4 -6 15 2 11 0 18 -6 15 -8 -6 -13 8 -10 28 1 5
-3 6 -8 2 -6 -3 -7 -13 -4 -22 4 -10 2 -14 -4 -10 -7 4 -10 0 -9 -10 2 -10 6
-17 10 -15 4 2 14 -5 21 -14 11 -16 14 -15 28 13 18 34 67 72 67 51 0 -7 7 -2
16 11 10 14 19 19 23 12 10 -16 52 16 44 35 -3 8 -1 14 5 12 6 -2 18 6 26 17
13 16 15 17 10 3 -4 -12 -1 -18 9 -18 21 0 28 13 16 30 -5 8 -9 11 -9 5 0 -5
-4 -4 -9 3 -6 11 -10 10 -15 -3z m-43 -61 c-2 -5 -11 -9 -21 -9 -11 0 -27 -7
-38 -15 -18 -14 -18 -14 -4 5 8 11 19 23 24 26 12 9 42 4 39 -7z m-169 -82 c3
-5 -1 -9 -9 -9 -8 0 -12 4 -9 9 3 4 7 8 9 8 2 0 6 -4 9 -8z"/>
<path d="M3200 2920 c-12 -7 -10 -9 7 -7 12 0 19 5 17 9 -6 10 -6 10 -24 -2z"/>
<path d="M3245 2920 c-3 -5 -1 -10 4 -10 6 0 11 5 11 10 0 6 -2 10 -4 10 -3 0
-8 -4 -11 -10z"/>
<path d="M3093 2855 c0 -8 4 -12 9 -9 5 3 6 10 3 15 -9 13 -12 11 -12 -6z"/>
<path d="M3175 2860 c3 -5 8 -10 11 -10 2 0 4 5 4 10 0 6 -5 10 -11 10 -5 0
-7 -4 -4 -10z"/>
<path d="M3070 2845 c0 -5 5 -17 10 -25 5 -8 10 -10 10 -5 0 6 -5 17 -10 25
-5 8 -10 11 -10 5z"/>
<path d="M2999 2788 c-5 -18 -6 -38 -1 -34 7 8 12 36 6 36 -2 0 -4 -1 -5 -2z"/>
<path d="M2956 2713 c-6 -14 -5 -15 5 -6 7 7 10 15 7 18 -3 3 -9 -2 -12 -12z"/>
<path d="M9670 2720 c0 -5 5 -10 11 -10 5 0 7 5 4 10 -3 6 -8 10 -11 10 -2 0
-4 -4 -4 -10z"/>
<path d="M2915 2702 c3 -3 -1 -12 -7 -21 -8 -10 -4 -9 10 3 26 23 26 23 7 23
-8 0 -13 -3 -10 -5z"/>
<path d="M9706 2697 c3 -10 9 -15 12 -12 3 3 0 11 -7 18 -10 9 -11 8 -5 -6z"/>
<path d="M2873 2675 c0 -8 4 -12 9 -9 5 3 6 10 3 15 -9 13 -12 11 -12 -6z"/>
<path d="M9645 2669 c-4 -6 -5 -12 -2 -15 2 -3 7 2 10 11 7 17 1 20 -8 4z"/>
<path d="M2901 2644 c0 -11 3 -14 6 -6 3 7 2 16 -1 19 -3 4 -6 -2 -5 -13z"/>
<path d="M2973 2618 c-1 -26 0 -27 13 -11 17 23 18 40 1 40 -7 0 -13 -13 -14
-29z"/>
<path d="M2871 2627 c-8 -10 -7 -14 2 -14 8 0 14 6 14 14 0 7 -1 13 -2 13 -2
0 -8 -6 -14 -13z"/>
<path d="M9195 2549 c-4 -6 -5 -12 -2 -15 2 -3 7 2 10 11 7 17 1 20 -8 4z"/>
<path d="M2890 2541 c0 -6 6 -11 13 -11 8 0 7 -4 -3 -10 -9 -6 -10 -10 -3 -10
19 0 24 17 8 30 -10 9 -15 9 -15 1z"/>
<path d="M2857 2519 c7 -7 15 -10 18 -7 3 3 -2 9 -12 12 -14 6 -15 5 -6 -5z"/>
<path d="M8436 2482 c-3 -5 1 -9 9 -9 8 0 12 4 9 9 -3 4 -7 8 -9 8 -2 0 -6 -4
-9 -8z"/>
<path d="M8785 2480 c-3 -6 1 -7 9 -4 18 7 21 14 7 14 -6 0 -13 -4 -16 -10z"/>
<path d="M2836 2463 c-6 -14 -5 -15 5 -6 7 7 10 15 7 18 -3 3 -9 -2 -12 -12z"/>
<path d="M2799 2458 c-5 -18 -6 -38 -1 -34 7 8 12 36 6 36 -2 0 -4 -1 -5 -2z"/>
<path d="M2850 2440 c0 -5 5 -10 11 -10 5 0 8 -4 4 -9 -7 -12 26 -6 54 9 26
13 27 19 4 15 -10 -2 -18 -4 -18 -5 0 -1 -8 -3 -17 -5 -10 -2 -18 1 -18 6 0 5
-4 9 -10 9 -5 0 -10 -4 -10 -10z"/>
<path d="M2756 2402 c-3 -5 1 -9 9 -9 8 0 12 4 9 9 -3 4 -7 8 -9 8 -2 0 -6 -4
-9 -8z"/>
<path d="M9070 2378 c0 -3 9 -6 20 -5 11 1 20 5 20 9 0 3 -9 6 -20 5 -11 -1
-20 -5 -20 -9z"/>
<path d="M2695 2361 c-3 -5 -2 -12 3 -15 5 -3 9 1 9 9 0 17 -3 19 -12 6z"/>
<path d="M2756 2334 c19 -15 18 -15 -3 -9 -12 3 -24 1 -28 -5 -3 -5 -1 -10 5
-10 6 0 8 -5 5 -10 -4 -6 -10 -8 -15 -5 -11 7 -20 -19 -11 -33 4 -8 15 -4 33
11 24 21 25 24 10 35 -9 7 -11 10 -4 7 6 -3 16 -4 22 0 14 8 0 35 -18 35 -13
0 -12 -3 4 -16z m-16 -49 c-7 -8 -17 -15 -23 -15 -6 0 -2 7 9 15 25 19 30 19
14 0z"/>
<path d="M2675 2320 c3 -5 8 -10 11 -10 2 0 4 5 4 10 0 6 -5 10 -11 10 -5 0
-7 -4 -4 -10z"/>
<path d="M2617 2253 c-10 -9 -9 -23 1 -23 5 0 9 7 9 15 0 17 -1 18 -10 8z"/>
<path d="M2559 2208 c-6 -21 -5 -38 1 -38 5 0 8 9 7 20 -1 17 -5 26 -8 18z"/>
<path d="M2455 2141 c-3 -5 -2 -12 3 -15 5 -3 9 1 9 9 0 17 -3 19 -12 6z"/>
<path d="M2480 2093 c0 -18 40 -37 52 -25 6 6 6 12 -1 16 -6 4 -11 1 -11 -6 0
-9 -3 -9 -10 2 -5 8 -10 11 -10 5 0 -5 -5 -3 -10 5 -6 9 -10 10 -10 3z"/>
<path d="M2340 2066 c0 -2 8 -10 18 -17 15 -13 16 -12 3 4 -13 16 -21 21 -21
13z"/>
<path d="M6229 2013 c-13 -16 -12 -17 4 -4 16 13 21 21 13 21 -2 0 -10 -8 -17
-17z"/>
<path d="M2395 2000 c3 -5 8 -10 11 -10 2 0 4 5 4 10 0 6 -5 10 -11 10 -5 0
-7 -4 -4 -10z"/>
<path d="M7135 2000 c3 -5 8 -10 11 -10 2 0 4 5 4 10 0 6 -5 10 -11 10 -5 0
-7 -4 -4 -10z"/>
<path d="M7630 2006 c0 -2 7 -7 16 -10 8 -3 12 -2 9 4 -6 10 -25 14 -25 6z"/>
<path d="M2351 1959 c-1 -9 6 -22 14 -29 13 -11 13 -14 -2 -26 -22 -17 -41
-18 -25 -2 15 15 15 28 1 28 -5 0 -8 -4 -4 -9 3 -5 1 -12 -4 -16 -6 -3 -7 -13
-4 -22 4 -11 2 -14 -8 -11 -8 3 -12 12 -11 19 2 8 0 10 -4 6 -10 -10 -15 -39
-6 -33 4 2 13 -2 19 -10 8 -7 9 -15 4 -19 -12 -6 -10 -45 1 -45 4 0 8 5 8 10
0 6 5 10 11 10 5 0 7 -6 3 -12 -5 -9 -3 -9 9 1 9 7 15 17 12 21 -6 9 19 32 27
25 8 -8 3 29 -6 43 -4 7 -2 20 5 28 16 20 20 44 8 44 -5 0 -9 -4 -9 -10 0 -15
-24 -7 -32 10 -6 13 -7 13 -7 -1z m49 -25 c0 -8 -19 -13 -24 -6 -3 5 1 9 9 9
8 0 15 -2 15 -3z m-25 -62 c2 -11 -3 -26 -11 -32 -7 -7 -12 -15 -10 -19 3 -4
-4 -7 -15 -7 -21 0 -25 11 -9 21 6 4 8 11 4 16 -6 10 25 53 33 45 2 -2 5 -13
8 -24z"/>
<path d="M2343 1843 c0 -9 4 -10 14 -2 7 6 13 12 13 14 0 1 -6 2 -13 2 -8 0
-14 -6 -14 -14z"/>
<path d="M2296 1922 c-3 -5 1 -9 9 -9 8 0 12 4 9 9 -3 4 -7 8 -9 8 -2 0 -6 -4
-9 -8z"/>
<path d="M8326 1918 c3 -5 10 -6 15 -3 13 9 11 12 -6 12 -8 0 -12 -4 -9 -9z"/>
<path d="M8366 1918 c3 -5 10 -6 15 -3 13 9 11 12 -6 12 -8 0 -12 -4 -9 -9z"/>
<path d="M2274 1829 c-19 -22 -19 -22 4 -8 12 8 22 17 22 21 0 12 -6 9 -26
-13z"/>
<path d="M2285 1800 c3 -5 8 -10 11 -10 2 0 4 5 4 10 0 6 -5 10 -11 10 -5 0
-7 -4 -4 -10z"/>
<path d="M2267 1779 c7 -7 15 -10 18 -7 3 3 -2 9 -12 12 -14 6 -15 5 -6 -5z"/>
</g>
</svg>
