<svg width="513" height="323" viewBox="0 0 513 323" fill="none" xmlns="http://www.w3.org/2000/svg">
<path fill-rule="evenodd" clip-rule="evenodd" d="M10.5859 164.875C-13.0205 147.481 -3.70188 27.5857 106.875 69.2074C141.347 82.1832 135.624 -7.69867 167.535 6.80642C227.842 34.2168 431.222 -38.2034 409.236 30.8955C382.371 115.326 394.187 133.518 445.771 115.176C489.127 99.7611 458.11 165.131 455.914 170.733C407.44 294.411 333.545 350.447 276.088 300.668C210.481 243.825 39.3622 323.543 56.2404 246.937C78.7202 144.916 43.0088 188.767 10.5859 164.875Z" fill="white"/>
<path fill-rule="evenodd" clip-rule="evenodd" d="M275.997 270.172H193.397L217.658 189.082H250.403L275.997 270.172Z" fill="#BFBFBF"/>
<path fill-rule="evenodd" clip-rule="evenodd" d="M85.0149 17.1802H379.502C383.546 17.1802 386.824 20.4582 386.824 24.5019V208.364C386.824 212.408 383.546 215.686 379.502 215.686H85.0149C80.9713 215.686 77.6933 212.408 77.6933 208.364V24.5019C77.6933 20.4582 80.9713 17.1802 85.0149 17.1802Z" fill="#E5E8F5"/>
<path fill-rule="evenodd" clip-rule="evenodd" d="M87.4535 17.1798H381.941C385.984 17.1798 389.262 20.4579 389.262 24.5015V205.924C389.262 209.968 385.984 213.246 381.941 213.246H87.4535C83.4099 213.246 80.1319 209.968 80.1319 205.924V24.5015C80.1319 20.4579 83.4099 17.1798 87.4535 17.1798Z" fill="white"/>
<path fill-rule="evenodd" clip-rule="evenodd" d="M80.2321 178.314V25.0469C80.2449 20.6884 83.775 17.1583 88.1335 17.1455H381.461C385.82 17.1581 389.351 20.6882 389.363 25.0469V178.314H80.2321Z" fill="#37474F"/>
<path fill-rule="evenodd" clip-rule="evenodd" d="M94.7642 24.5976H374.63C378.176 24.5976 381.051 27.4724 381.051 31.0186V167.48C381.051 171.027 378.176 173.901 374.63 173.901H94.7642C91.2179 173.901 88.3431 171.027 88.3431 167.48V31.0186C88.3431 27.4724 91.2179 24.5976 94.7642 24.5976Z" fill="#56557E"/>
<path fill-rule="evenodd" clip-rule="evenodd" d="M375.583 173.887H93.811C90.7948 173.878 88.3519 171.435 88.3431 168.419V41.1344H381.051V168.418C381.042 171.435 378.599 173.878 375.583 173.887Z" fill="white"/>
<path fill-rule="evenodd" clip-rule="evenodd" d="M144.707 261.073H324.687C328.53 261.073 331.645 264.188 331.645 268.031C331.645 271.874 328.53 274.99 324.687 274.99H144.707C140.864 274.99 137.749 271.874 137.749 268.031C137.749 264.188 140.864 261.073 144.707 261.073Z" fill="#D8D6DD"/>
<path fill-rule="evenodd" clip-rule="evenodd" d="M234.883 204.911C239.192 204.911 242.686 201.417 242.686 197.107C242.686 192.798 239.192 189.304 234.883 189.304C230.573 189.304 227.079 192.798 227.079 197.107C227.079 201.417 230.573 204.911 234.883 204.911Z" fill="#D8D6DD"/>
<path fill-rule="evenodd" clip-rule="evenodd" d="M98.366 35.8532C100.289 35.8532 101.848 34.2941 101.848 32.3709C101.848 30.4476 100.289 28.8885 98.366 28.8885C96.4427 28.8885 94.8836 30.4476 94.8836 32.3709C94.8836 34.2941 96.4427 35.8532 98.366 35.8532Z" fill="#FA538D"/>
<path fill-rule="evenodd" clip-rule="evenodd" d="M112.064 35.8532C113.987 35.8532 115.546 34.2941 115.546 32.3709C115.546 30.4476 113.987 28.8885 112.064 28.8885C110.141 28.8885 108.581 30.4476 108.581 32.3709C108.581 34.2941 110.141 35.8532 112.064 35.8532Z" fill="#FAB353"/>
<path fill-rule="evenodd" clip-rule="evenodd" d="M125.762 35.8532C127.685 35.8532 129.244 34.2941 129.244 32.3709C129.244 30.4476 127.685 28.8885 125.762 28.8885C123.838 28.8885 122.279 30.4476 122.279 32.3709C122.279 34.2941 123.838 35.8532 125.762 35.8532Z" fill="#9DC925"/>
<path fill-rule="evenodd" clip-rule="evenodd" d="M139.147 52.65H181.366C182.56 52.65 183.528 53.6179 183.528 54.8117V54.949C183.528 55.5223 183.3 56.0722 182.895 56.4776C182.49 56.883 181.94 57.1107 181.366 57.1107H139.147C138.573 57.1107 138.023 56.8827 137.618 56.4769C137.212 56.0711 136.985 55.5208 136.985 54.9472V54.8099C136.986 53.6167 137.954 52.65 139.147 52.65Z" fill="#F9B25F"/>
<rect x="100.426" y="52.65" width="10.966" height="4.45842" rx="2.22921" fill="white"/>
<path fill-rule="evenodd" clip-rule="evenodd" d="M190.791 52.65H273.297C274.516 52.6675 275.494 53.6604 275.494 54.8792C275.494 56.0981 274.516 57.091 273.297 57.1084H190.791C189.572 57.091 188.594 56.0981 188.594 54.8792C188.594 53.6604 189.572 52.6675 190.791 52.65Z" fill="#BBC0D6"/>
<path fill-rule="evenodd" clip-rule="evenodd" d="M139.147 119.461H181.366C182.56 119.461 183.528 120.428 183.528 121.622V121.76C183.528 122.333 183.3 122.883 182.895 123.288C182.49 123.693 181.94 123.921 181.366 123.921H139.147C138.573 123.921 138.023 123.693 137.618 123.287C137.212 122.882 136.985 122.331 136.985 121.758V121.62C136.986 120.427 137.954 119.461 139.147 119.461Z" fill="#F9B25F"/>
<rect x="100.426" y="119.461" width="10.966" height="4.45842" rx="2.22921" fill="white"/>
<path fill-rule="evenodd" clip-rule="evenodd" d="M190.791 119.461H273.297C274.516 119.478 275.494 120.471 275.494 121.69C275.494 122.909 274.516 123.901 273.297 123.919H190.791C189.572 123.901 188.594 122.909 188.594 121.69C188.594 120.471 189.572 119.478 190.791 119.461Z" fill="#BBC0D6"/>
<path fill-rule="evenodd" clip-rule="evenodd" d="M146.676 64.2132H188.896C190.09 64.2132 191.058 65.181 191.058 66.3749V66.5122C191.058 67.0855 190.83 67.6354 190.424 68.0408C190.019 68.4462 189.469 68.6739 188.896 68.6739H146.676C146.103 68.6739 145.553 68.4459 145.147 68.0401C144.742 67.6343 144.514 67.084 144.515 66.5104V66.3731C144.516 65.1799 145.483 64.2132 146.676 64.2132Z" fill="#F9B25F"/>
<rect x="100.426" y="64.2132" width="10.966" height="4.45842" rx="2.22921" fill="white"/>
<path fill-rule="evenodd" clip-rule="evenodd" d="M204.86 64.2132H287.366C288.585 64.2307 289.564 65.2236 289.564 66.4424C289.564 67.6612 288.585 68.6542 287.366 68.6716H204.86C203.642 68.6542 202.663 67.6612 202.663 66.4424C202.663 65.2236 203.642 64.2307 204.86 64.2132Z" fill="#BBC0D6"/>
<path fill-rule="evenodd" clip-rule="evenodd" d="M146.676 107.897H188.896C190.09 107.897 191.058 108.865 191.058 110.059V110.196C191.058 110.769 190.83 111.319 190.424 111.724C190.019 112.13 189.469 112.358 188.896 112.358H146.676C146.103 112.358 145.553 112.13 145.147 111.724C144.742 111.318 144.514 110.768 144.515 110.194V110.057C144.516 108.864 145.483 107.897 146.676 107.897Z" fill="#F9B25F"/>
<rect x="100.426" y="107.897" width="10.966" height="4.45842" rx="2.22921" fill="white"/>
<path fill-rule="evenodd" clip-rule="evenodd" d="M204.86 107.897H287.366C288.597 107.897 289.595 108.895 289.595 110.126V110.126C289.595 111.358 288.597 112.356 287.366 112.356H204.86C203.629 112.356 202.631 111.358 202.631 110.126C202.631 108.895 203.629 107.897 204.86 107.897Z" fill="#BBC0D6"/>
<path fill-rule="evenodd" clip-rule="evenodd" d="M157.971 74.1707H200.19C201.384 74.1707 202.352 75.1385 202.352 76.3324V76.4697C202.352 77.043 202.124 77.5928 201.719 77.9982C201.313 78.4036 200.764 78.6314 200.19 78.6314H157.971C157.397 78.6314 156.847 78.4034 156.442 77.9976C156.036 77.5918 155.809 77.0415 155.809 76.4678V76.3305C155.81 75.1374 156.778 74.1707 157.971 74.1707Z" fill="#F9B25F"/>
<rect x="100.426" y="74.1707" width="10.966" height="4.45842" rx="2.22921" fill="white"/>
<path fill-rule="evenodd" clip-rule="evenodd" d="M216.012 74.1707H303.518C304.737 74.1881 305.715 75.181 305.715 76.3999C305.715 77.6187 304.737 78.6116 303.518 78.6291H216.012C214.793 78.6116 213.814 77.6187 213.814 76.3999C213.814 75.181 214.793 74.1881 216.012 74.1707Z" fill="#BBC0D6"/>
<path fill-rule="evenodd" clip-rule="evenodd" d="M157.971 96.655H200.19C201.384 96.655 202.352 97.6228 202.352 98.8167V98.954C202.352 99.5273 202.124 100.077 201.719 100.483C201.313 100.888 200.764 101.116 200.19 101.116H157.971C157.397 101.116 156.847 100.888 156.442 100.482C156.036 100.076 155.809 99.5258 155.809 98.9521V98.8149C155.81 97.6217 156.778 96.655 157.971 96.655Z" fill="#F9B25F"/>
<rect x="100.426" y="96.655" width="10.966" height="4.45842" rx="2.22921" fill="white"/>
<path fill-rule="evenodd" clip-rule="evenodd" d="M216.012 96.655H303.518C304.737 96.6724 305.715 97.6653 305.715 98.8842C305.715 100.103 304.737 101.096 303.518 101.113H216.012C214.793 101.096 213.814 100.103 213.814 98.8842C213.814 97.6653 214.793 96.6724 216.012 96.655Z" fill="#BBC0D6"/>
<path fill-rule="evenodd" clip-rule="evenodd" d="M165.501 85.413H207.72C208.914 85.413 209.882 86.3809 209.882 87.5747V87.712C209.882 88.2853 209.654 88.8352 209.249 89.2406C208.843 89.646 208.293 89.8737 207.72 89.8737H165.501C164.927 89.8737 164.377 89.6457 163.972 89.2399C163.566 88.8341 163.339 88.2838 163.339 87.7102V87.5729C163.34 86.3797 164.308 85.413 165.501 85.413Z" fill="#F9B25F"/>
<rect x="100.426" y="85.413" width="10.966" height="4.45842" rx="2.22921" fill="white"/>
<path fill-rule="evenodd" clip-rule="evenodd" d="M220.223 85.413H314.632C315.863 85.413 316.861 86.4112 316.861 87.6425V87.6425C316.861 88.8738 315.863 89.8719 314.632 89.8719H220.223C218.992 89.8719 217.994 88.8738 217.994 87.6425C217.994 86.4112 218.992 85.413 220.223 85.413Z" fill="#BBC0D6"/>
<path fill-rule="evenodd" clip-rule="evenodd" d="M146.676 131.997H188.896C190.09 131.997 191.058 132.965 191.058 134.159V134.296C191.058 134.869 190.83 135.419 190.424 135.825C190.019 136.23 189.469 136.458 188.896 136.458H146.676C146.103 136.458 145.553 136.23 145.147 135.824C144.742 135.418 144.514 134.868 144.515 134.294V134.157C144.516 132.964 145.483 131.997 146.676 131.997Z" fill="#F9B25F"/>
<rect x="100.426" y="131.997" width="10.966" height="4.45842" rx="2.22921" fill="white"/>
<path fill-rule="evenodd" clip-rule="evenodd" d="M204.86 131.997H287.366C288.585 132.014 289.564 133.007 289.564 134.226C289.564 135.445 288.585 136.438 287.366 136.455H204.86C203.642 136.438 202.663 135.445 202.663 134.226C202.663 133.007 203.642 132.014 204.86 131.997Z" fill="#BBC0D6"/>
<path fill-rule="evenodd" clip-rule="evenodd" d="M157.971 141.954H200.19C201.384 141.954 202.352 142.922 202.352 144.116V144.253C202.352 144.827 202.124 145.377 201.719 145.782C201.313 146.187 200.764 146.415 200.19 146.415H157.971C157.397 146.415 156.847 146.187 156.442 145.781C156.036 145.376 155.809 144.825 155.809 144.252V144.114C155.81 142.921 156.778 141.954 157.971 141.954Z" fill="#F9B25F"/>
<rect x="100.426" y="141.954" width="10.966" height="4.45842" rx="2.22921" fill="white"/>
<path fill-rule="evenodd" clip-rule="evenodd" d="M216.012 141.954H303.518C304.737 141.972 305.715 142.965 305.715 144.184C305.715 145.402 304.737 146.395 303.518 146.413H216.012C214.793 146.395 213.814 145.402 213.814 144.184C213.814 142.965 214.793 141.972 216.012 141.954Z" fill="#BBC0D6"/>
<path fill-rule="evenodd" clip-rule="evenodd" d="M157.971 164.439H200.19C201.384 164.439 202.352 165.407 202.352 166.6V166.738C202.352 167.311 202.124 167.861 201.719 168.266C201.313 168.672 200.764 168.899 200.19 168.899H157.971C157.397 168.899 156.847 168.671 156.442 168.266C156.036 167.86 155.809 167.31 155.809 166.736V166.599C155.81 165.405 156.778 164.439 157.971 164.439Z" fill="#F9B25F"/>
<rect x="100.426" y="164.439" width="10.966" height="4.45842" rx="2.22921" fill="white"/>
<path fill-rule="evenodd" clip-rule="evenodd" d="M216.012 164.439H303.518C304.737 164.456 305.715 165.449 305.715 166.668C305.715 167.887 304.737 168.88 303.518 168.897H216.012C214.793 168.88 213.814 167.887 213.814 166.668C213.814 165.449 214.793 164.456 216.012 164.439Z" fill="#BBC0D6"/>
<path fill-rule="evenodd" clip-rule="evenodd" d="M165.501 153.197H207.72C208.914 153.197 209.882 154.165 209.882 155.359V155.496C209.882 156.069 209.654 156.619 209.249 157.024C208.843 157.43 208.293 157.658 207.72 157.658H165.501C164.927 157.658 164.377 157.43 163.972 157.024C163.566 156.618 163.339 156.068 163.339 155.494V155.357C163.34 154.164 164.308 153.197 165.501 153.197Z" fill="#F9B25F"/>
<rect x="100.426" y="153.197" width="10.966" height="4.45842" rx="2.22921" fill="white"/>
<path fill-rule="evenodd" clip-rule="evenodd" d="M220.223 153.197H314.632C315.85 153.214 316.829 154.207 316.829 155.426C316.829 156.645 315.85 157.638 314.632 157.655H220.223C219.005 157.638 218.026 156.645 218.026 155.426C218.026 154.207 219.005 153.214 220.223 153.197Z" fill="#BBC0D6"/>
<path fill-rule="evenodd" clip-rule="evenodd" d="M323.528 122.304C323.467 122.259 317.344 117.683 314.181 118.533C313.505 118.708 312.958 119.204 312.717 119.86L312.023 119.568C312.353 118.697 313.086 118.04 313.987 117.806C317.507 116.857 323.722 121.505 323.984 121.704L323.528 122.304Z" fill="#37474F"/>
<path fill-rule="evenodd" clip-rule="evenodd" d="M332.221 151.358L331.285 150.178L332.47 149.239C331.568 148.062 329.801 145.404 330.04 142.912C330.151 141.678 330.792 140.553 331.796 139.827L332.712 141.024C332.043 141.496 331.615 142.238 331.541 143.053C331.289 145.653 334.072 148.824 334.099 148.855L334.627 149.45L332.221 151.358Z" fill="#37474F"/>
<path fill-rule="evenodd" clip-rule="evenodd" d="M350.838 136.606L350.38 135.955C350.356 135.92 347.905 132.487 345.316 132.138C344.506 132.025 343.686 132.272 343.074 132.814L342.118 131.651C343.053 130.838 344.295 130.471 345.522 130.644C348.003 130.981 350.187 133.309 351.127 134.456L352.311 133.517L353.246 134.697L350.838 136.606Z" fill="#37474F"/>
<path fill-rule="evenodd" clip-rule="evenodd" d="M323.866 148.817L323.622 147.331L325.458 147.03C325.202 145.834 325.084 144.612 325.109 143.389C325.186 140.057 326.422 137.342 328.685 135.537L329.624 136.714C325.002 140.401 327.085 147.347 327.107 147.417L327.363 148.24L323.866 148.817Z" fill="#37474F"/>
<path fill-rule="evenodd" clip-rule="evenodd" d="M351.11 129.429L350.363 128.989C350.301 128.952 344.015 125.336 339.37 128.994L338.439 127.81C340.712 126.021 343.639 125.437 346.9 126.124C348.096 126.38 349.259 126.773 350.365 127.296L351.078 125.578L352.469 126.155L351.11 129.429Z" fill="#37474F"/>
<path fill-rule="evenodd" clip-rule="evenodd" d="M322.353 132.481C322.2 132.481 322.047 132.473 321.895 132.458C319.424 132.206 317.251 129.987 316.136 128.627L314.951 129.566L314.019 128.386L315.285 127.383C315.887 126.908 316.76 127.004 317.245 127.599C318.007 128.54 320 130.751 322.05 130.96C322.828 131.04 323.604 130.791 324.19 130.273L325.146 131.437C324.369 132.106 323.378 132.476 322.353 132.481Z" fill="#37474F"/>
<path fill-rule="evenodd" clip-rule="evenodd" d="M335.466 123.258L334.55 122.061C335.22 121.589 335.648 120.846 335.721 120.03C335.929 117.865 333.945 115.11 333.163 114.23L332.633 113.635L335.04 111.728L335.976 112.908L334.791 113.847C335.693 115.023 337.461 117.682 337.221 120.173C337.11 121.407 336.47 122.532 335.466 123.258Z" fill="#37474F"/>
<path fill-rule="evenodd" clip-rule="evenodd" d="M325.728 120.32C325.595 120.019 322.491 112.907 324.218 109.697C324.652 108.873 325.459 108.31 326.383 108.187L326.508 108.93C325.813 109.014 325.205 109.435 324.881 110.054C323.325 112.94 326.384 119.945 326.416 120.016L325.728 120.32Z" fill="#37474F"/>
<path fill-rule="evenodd" clip-rule="evenodd" d="M343.118 126.098C348.421 132.79 347.091 138.324 342.761 141.755C338.43 145.186 332.739 145.216 327.436 138.524C322.133 131.832 323.358 122.029 325.675 120.193C329.06 117.511 337.814 119.406 343.118 126.098Z" fill="#FF6369"/>
<path fill-rule="evenodd" clip-rule="evenodd" d="M342.761 141.755C338.43 145.187 332.739 145.216 327.436 138.524C322.133 131.831 323.358 122.029 325.675 120.193C326.209 119.77 343.295 141.332 342.761 141.755Z" fill="#FA535A"/>
<path fill-rule="evenodd" clip-rule="evenodd" d="M331.976 118.102C333.926 120.562 324.303 128.187 322.353 125.727C320.403 123.267 320.977 119.565 323.635 117.459C326.292 115.354 330.026 115.64 331.976 118.102Z" fill="#37474F"/>
<path fill-rule="evenodd" clip-rule="evenodd" d="M258.668 63.2609C258.492 62.7338 258.578 62.1543 258.9 61.7014C260.061 60.054 264.071 59.8183 264.526 59.7968L264.561 60.5491C263.431 60.6031 260.32 60.9934 259.515 62.1356C259.325 62.3976 259.278 62.7372 259.389 63.0412L258.668 63.2609Z" fill="#37474F"/>
<path fill-rule="evenodd" clip-rule="evenodd" d="M278.153 69.4243L277.416 69.2697L277.589 68.4432C276.826 68.2721 275.152 67.7838 274.386 66.6622C274.012 66.1185 273.891 65.4393 274.055 64.7998L274.787 64.9682C274.671 65.4034 274.751 65.8678 275.007 66.2385C275.811 67.4177 278.067 67.771 278.089 67.7747L278.483 67.8342L278.153 69.4243Z" fill="#37474F"/>
<path fill-rule="evenodd" clip-rule="evenodd" d="M276.257 57.9884L275.517 57.8465C275.624 57.1951 276.008 56.622 276.57 56.2751C277.721 55.5553 279.45 55.7814 280.217 55.9328L280.391 55.106L281.128 55.2606L280.794 56.8508L280.41 56.7474C280.387 56.7414 278.174 56.1589 276.968 56.9139C276.585 57.1505 276.325 57.5434 276.257 57.9884Z" fill="#37474F"/>
<path fill-rule="evenodd" clip-rule="evenodd" d="M273.818 71.2401L273.248 70.7468L273.926 69.9657C273.007 69.2569 270.663 67.1126 271.287 64.0938L272.024 64.2457C271.375 67.3899 274.652 69.5639 274.685 69.5854L275.047 69.8211L273.818 71.2401Z" fill="#37474F"/>
<path fill-rule="evenodd" clip-rule="evenodd" d="M273.403 57.68L272.667 57.5226C273.311 54.5079 276.319 53.4883 277.446 53.2083L277.14 52.2208L277.859 51.9979L278.415 53.7917L277.988 53.8617C277.949 53.8681 274.074 54.5395 273.403 57.68Z" fill="#37474F"/>
<path fill-rule="evenodd" clip-rule="evenodd" d="M263.47 66.341L262.734 66.1859L262.913 65.3338C262.996 64.9447 263.376 64.6939 263.766 64.77C264.409 64.8986 266.008 65.1288 266.942 64.5014C267.299 64.2618 267.539 63.8836 267.605 63.4586L268.345 63.6C268.242 64.2223 267.887 64.7745 267.363 65.1261C266.237 65.8834 264.534 65.6907 263.619 65.5077L263.47 66.341Z" fill="#37474F"/>
<path fill-rule="evenodd" clip-rule="evenodd" d="M269.805 56.6467L269.073 56.4787C269.189 56.044 269.109 55.5801 268.854 55.2094C268.054 54.0333 265.793 53.6755 265.771 53.6723L265.377 53.6123L265.711 52.0222L266.448 52.1768L266.275 53.0037C267.038 53.1744 268.711 53.6627 269.478 54.7842C269.851 55.3286 269.97 56.0078 269.805 56.6467V56.6467Z" fill="#37474F"/>
<path fill-rule="evenodd" clip-rule="evenodd" d="M264.704 58.9489C264.297 58.7467 260.72 56.9172 260.32 54.9417C260.207 54.3976 260.362 53.8325 260.735 53.4211L261.306 53.9121C261.082 54.1458 260.989 54.4759 261.058 54.7925C261.335 56.1653 264.026 57.7711 265.039 58.2749L264.704 58.9489Z" fill="#37474F"/>
<path fill-rule="evenodd" clip-rule="evenodd" d="M273.988 55.1916C278.498 56.1388 279.855 58.8936 279.242 61.8108C278.629 64.728 276.278 66.7039 271.769 65.7567C267.261 64.8095 264.387 60.3199 264.715 58.759C265.194 56.4779 269.479 54.2443 273.988 55.1916Z" fill="#FF6369"/>
<path fill-rule="evenodd" clip-rule="evenodd" d="M279.242 61.8122C278.629 64.7294 276.278 66.7053 271.769 65.7581C267.261 64.8108 264.387 60.3213 264.715 58.7604C264.79 58.3994 279.317 61.4506 279.242 61.8122Z" fill="#FA535A"/>
<path fill-rule="evenodd" clip-rule="evenodd" d="M266.609 55.7173C268.266 56.0651 266.905 62.5484 265.247 62.2002C263.582 61.7129 262.572 60.0265 262.929 58.3288C263.285 56.631 264.888 55.4935 266.609 55.7173Z" fill="#37474F"/>
<path fill-rule="evenodd" clip-rule="evenodd" d="M130.224 136.046C130.22 135.975 129.825 128.953 127.359 127.235C126.842 126.865 126.176 126.773 125.578 126.989L125.355 126.269C126.175 125.982 127.083 126.112 127.79 126.616C130.556 128.545 130.96 135.701 130.976 136.005L130.224 136.046Z" fill="#37474F"/>
<path fill-rule="evenodd" clip-rule="evenodd" d="M117.401 159.59L114.958 159.089L115.109 158.351L116.784 158.694C117 157.589 117.77 154.474 119.744 153.116C120.609 152.515 121.692 152.318 122.714 152.576L122.549 153.311C121.732 153.097 120.862 153.252 120.169 153.737C118.067 155.184 117.463 159.156 117.458 159.196L117.401 159.59Z" fill="#37474F"/>
<path fill-rule="evenodd" clip-rule="evenodd" d="M139.179 164.056L136.736 163.553L136.837 163.168C136.847 163.129 137.854 159.233 136.493 157.082C136.047 156.365 135.31 155.88 134.475 155.755L134.612 155.014C135.653 155.179 136.57 155.787 137.129 156.68C138.41 158.706 137.89 161.872 137.654 162.973L139.329 163.317L139.179 164.056Z" fill="#37474F"/>
<path fill-rule="evenodd" clip-rule="evenodd" d="M114.145 153.647L111.943 151.756L112.434 151.185L113.989 152.522C114.712 151.546 115.556 150.666 116.502 149.905C118.824 148.045 121.383 147.332 123.902 147.839L123.754 148.577C118.183 147.452 114.415 153.224 114.377 153.282L114.145 153.647Z" fill="#37474F"/>
<path fill-rule="evenodd" clip-rule="evenodd" d="M141.824 159.324L141.752 158.897C141.74 158.829 140.537 152.039 134.985 150.88L135.138 150.144C137.655 150.668 139.726 152.332 141.129 154.956C141.698 156.028 142.128 157.169 142.408 158.351L144.366 157.734L144.592 158.453L141.824 159.324Z" fill="#37474F"/>
<path fill-rule="evenodd" clip-rule="evenodd" d="M124.824 142.285C123.83 142.126 122.945 141.563 122.381 140.729C121.086 138.824 121.501 135.765 121.74 134.538C121.762 134.419 121.685 134.304 121.566 134.28L120.108 133.981L120.26 133.243L121.717 133.542C122.24 133.651 122.579 134.158 122.48 134.682C122.259 135.816 121.869 138.635 123.005 140.306C123.457 140.974 124.167 141.422 124.964 141.542L124.824 142.285Z" fill="#37474F"/>
<path fill-rule="evenodd" clip-rule="evenodd" d="M137.642 144.831C137.333 144.83 137.025 144.794 136.724 144.726L136.888 143.991C137.704 144.204 138.573 144.049 139.265 143.566C141.364 142.122 141.972 138.146 141.978 138.106L142.036 137.712L144.48 138.215L144.328 138.953L142.654 138.61C142.437 139.715 141.668 142.829 139.693 144.188C139.093 144.609 138.376 144.834 137.642 144.831V144.831Z" fill="#37474F"/>
<path fill-rule="evenodd" clip-rule="evenodd" d="M133.606 136.74L132.931 136.41C133.065 136.135 136.253 129.717 139.556 129.032C140.405 128.848 141.29 129.087 141.93 129.673L141.442 130.246C140.978 129.813 140.33 129.635 139.709 129.771C136.765 130.378 133.638 136.676 133.606 136.74Z" fill="#37474F"/>
<path fill-rule="evenodd" clip-rule="evenodd" d="M139.185 152.121C137.604 159.831 132.91 162.172 127.919 161.149C122.928 160.127 119.536 156.126 121.117 148.416C122.699 140.706 130.345 135.761 133.015 136.308C136.916 137.108 140.767 144.41 139.185 152.121Z" fill="#FF6369"/>
<path fill-rule="evenodd" clip-rule="evenodd" d="M127.919 161.149C122.931 160.126 119.536 156.126 121.118 148.416C122.699 140.706 130.345 135.761 133.015 136.308C133.632 136.434 128.537 161.275 127.919 161.149Z" fill="#FA535A"/>
<path fill-rule="evenodd" clip-rule="evenodd" d="M138.227 139.516C137.646 142.353 126.558 140.077 127.141 137.242C127.724 134.408 130.676 132.621 133.737 133.247C136.798 133.873 138.809 136.681 138.227 139.516Z" fill="#37474F"/>
<path fill-rule="evenodd" clip-rule="evenodd" d="M88.7147 276.548C118.116 276.383 135.447 253.256 131.475 253.801C125.31 254.646 115.962 259.145 104.692 257.668C96.7863 256.633 92.3096 250.147 89.2061 246.82C88.7792 246.361 88.5412 245.757 88.5394 245.13L87.9239 134.929C87.9204 134.262 87.652 133.624 87.1779 133.155C86.7037 132.686 86.0626 132.425 85.3957 132.428L72.5087 132.5C71.8419 132.504 71.2039 132.773 70.7351 133.247C70.2663 133.721 70.005 134.362 70.0088 135.029L70.6545 250.671C70.6584 251.338 70.3971 251.979 69.9283 252.453C69.4594 252.927 68.8214 253.195 68.1546 253.199L63.9698 253.222C63.303 253.226 62.6621 252.965 62.1879 252.496C61.7138 252.027 61.4453 251.389 61.4415 250.722L61.4351 249.572C61.4261 248.184 60.2949 247.066 58.9069 247.072L34.2828 247.209C33.6159 247.213 32.9778 247.481 32.5088 247.955C32.0399 248.43 31.7786 249.071 31.7825 249.738L31.9198 274.362C31.9234 275.029 32.1918 275.667 32.666 276.136C33.1401 276.605 33.7812 276.866 34.448 276.862L59.0725 276.725C59.7393 276.721 60.3773 276.453 60.8461 275.978C61.3149 275.504 61.5762 274.863 61.5724 274.197V274.197C61.5658 272.808 62.6854 271.676 64.0741 271.668L68.2585 271.644C69.6465 271.638 70.7776 272.757 70.7867 274.145V274.145C70.7903 274.812 71.0588 275.45 71.5329 275.919C72.0071 276.387 72.6482 276.649 73.315 276.645L88.7156 276.559L88.7147 276.548Z" fill="#D8D6DD"/>
<path fill-rule="evenodd" clip-rule="evenodd" d="M91.6824 79.9561L92.0391 139.399C92.0508 141.357 90.473 142.954 88.5149 142.965L69.6616 143.079C67.7035 143.09 66.1066 141.512 66.0948 139.554L65.7382 80.1118C65.7264 78.1545 67.3029 76.558 69.2601 76.545L88.1157 76.4319C90.0738 76.4201 91.6707 77.998 91.6824 79.9561Z" fill="#FF6369"/>
<path fill-rule="evenodd" clip-rule="evenodd" d="M148.507 291.291L132.044 291.348V287.158L151.745 276.633L168.58 289.073L320.761 288.721L320.803 288.349L345.346 265.839L375.302 279.796L375.643 285.986L351.313 287.232C348.991 287.344 346.906 288.689 345.846 290.758C344.785 292.827 344.912 295.305 346.177 297.255C347.442 299.205 349.653 300.331 351.975 300.206L376.502 298.954L377.069 305.687L346.783 322.589L320.059 303.13L169.5 303.477L152.868 314.985L131.806 304.693L131.941 300.128L148.538 300.07C150.107 300.065 151.553 299.223 152.333 297.862C153.112 296.501 153.106 294.827 152.317 293.472C151.528 292.116 150.076 291.285 148.507 291.29V291.291Z" fill="#D8D6DD"/>
<path fill-rule="evenodd" clip-rule="evenodd" d="M464.843 262.071H485.076C488.448 262.067 491.182 259.334 491.185 255.961V248.796C491.182 245.423 488.448 242.69 485.076 242.686H464.843C461.47 242.69 458.737 245.423 458.733 248.796V255.961C458.737 259.334 461.47 262.067 464.843 262.071ZM462.498 248.796C462.499 247.501 463.548 246.452 464.843 246.451H485.076C486.37 246.452 487.419 247.501 487.421 248.796V255.961C487.419 257.256 486.37 258.305 485.076 258.306H464.843C463.548 258.305 462.499 257.256 462.498 255.961V248.796Z" fill="#37474F"/>
<path fill-rule="evenodd" clip-rule="evenodd" d="M439.769 254.445H509.187C511.293 254.445 512.999 256.152 512.999 258.257V290.694C512.999 292.799 511.293 294.506 509.187 294.506H439.769C437.663 294.506 435.956 292.799 435.956 290.694V258.257C435.956 256.152 437.663 254.445 439.769 254.445Z" fill="#FF6369"/>
<path fill-rule="evenodd" clip-rule="evenodd" d="M435.956 265.744H512.976V268.38H435.956V265.744Z" fill="white"/>
<rect x="451.531" y="260.729" width="7.70191" height="13.0078" rx="3.716" fill="#37474F"/>
<path fill-rule="evenodd" clip-rule="evenodd" d="M452.93 274.301H457.834C458.918 274.299 459.795 273.421 459.798 272.338V262.129C459.796 261.045 458.918 260.167 457.834 260.165H452.93C451.847 260.167 450.969 261.045 450.967 262.129V272.337C450.969 273.421 451.847 274.299 452.93 274.301ZM452.096 262.127C452.097 261.667 452.47 261.294 452.93 261.293L457.834 261.294C458.295 261.295 458.668 261.668 458.669 262.129V272.338C458.668 272.798 458.295 273.171 457.834 273.172H452.93C452.47 273.171 452.097 272.798 452.096 272.338V262.127Z" fill="white"/>
<rect x="488.672" y="260.729" width="7.70191" height="13.0078" rx="3.716" fill="#37474F"/>
<path fill-rule="evenodd" clip-rule="evenodd" d="M490.072 274.301H494.975C496.059 274.299 496.937 273.422 496.94 272.338V262.129C496.938 261.045 496.06 260.167 494.976 260.165H490.072C488.989 260.167 488.111 261.045 488.109 262.129V272.337C488.111 273.421 488.989 274.299 490.072 274.301ZM489.238 262.128C489.238 261.667 489.612 261.294 490.072 261.294L494.976 261.294C495.437 261.295 495.81 261.668 495.81 262.129V272.338C495.81 272.798 495.437 273.171 494.976 273.172H490.072C489.612 273.171 489.238 272.798 489.238 272.338V262.128Z" fill="white"/>
<path fill-rule="evenodd" clip-rule="evenodd" d="M21.0325 280.504H29.3C31.3349 282.306 33.5732 283.865 35.9695 285.149C38.6987 286.561 41.8808 285.572 43.0665 288.407C43.1356 288.867 43.1356 289.335 43.0665 289.794H20.5639V288.405L21.0325 280.504Z" fill="#37474F"/>
<path fill-rule="evenodd" clip-rule="evenodd" d="M21.0325 280.504H29.3C31.3349 282.306 33.5732 283.865 35.9695 285.149C38.6987 286.561 43.126 285.515 43.0665 288.407C43.0592 288.754 20.5634 288.407 20.5634 288.407L21.0325 280.504Z" fill="#814C74"/>
<path fill-rule="evenodd" clip-rule="evenodd" d="M48.3468 280.504H56.6138C58.6487 282.306 60.8871 283.865 63.2834 285.149C66.013 286.561 69.1947 285.572 70.3804 288.407C70.4494 288.867 70.4494 289.335 70.3804 289.794H47.8782V288.405L48.3468 280.504Z" fill="#37474F"/>
<path fill-rule="evenodd" clip-rule="evenodd" d="M48.3468 280.504H56.6138C58.6487 282.306 60.8871 283.865 63.2834 285.149C66.013 286.561 70.4399 285.515 70.3804 288.407C70.373 288.754 47.8777 288.407 47.8777 288.407L48.3468 280.504Z" fill="#814C74"/>
<path fill-rule="evenodd" clip-rule="evenodd" d="M53.1772 119.996C53.0171 127.272 38.5513 122.353 38.5513 122.353C38.5513 122.353 40.9675 138.488 31.8548 129.317C28.2081 125.647 26.2295 117.15 30.0926 113.954C31.232 113.011 33.9639 113.745 33.9639 113.745C33.9639 113.745 35.5321 107.982 39.4656 110.73C47.1419 116.094 53.2971 114.469 53.1772 119.996Z" fill="#37474F"/>
<path fill-rule="evenodd" clip-rule="evenodd" d="M86.4807 166.98L87.6521 163.354L66.1736 153.619C64.1991 151.158 59.8052 147.635 59.8052 147.635L53.8765 154.145C53.8765 154.145 58.8854 157.939 61.1771 159.699C63.8508 161.753 86.4807 166.98 86.4807 166.98Z" fill="#FFDFAE"/>
<path fill-rule="evenodd" clip-rule="evenodd" d="M43.6033 149.697H33.3447L33.7653 136.256H44.0659L43.6033 149.697Z" fill="#FFDFAE"/>
<path fill-rule="evenodd" clip-rule="evenodd" d="M42.4031 139.321C42.139 138.678 34.4682 135.058 33.5494 136.186C33.5494 136.186 34.499 142.918 37.6642 144.33C40.2773 145.496 43.6227 141.734 44.1189 140.968C43.9569 139.926 42.6671 139.964 42.4031 139.321Z" fill="#F4CA92"/>
<path fill-rule="evenodd" clip-rule="evenodd" d="M43.8852 142.606C43.8852 142.606 42.894 148.257 39.7741 148.227C35.6067 148.187 33.5548 143.847 33.5548 143.847L24.8782 144.945L15.2429 149.497C16.4967 153.037 18.55 159.515 18.55 159.515L23.0926 157.24L22.246 193.373L55.3765 192.621L52.1856 153.526L54.7734 155.611L63.1017 149.722L51.4978 142.227C51.4978 142.227 44.1936 142.606 43.8852 142.606Z" fill="#814C74"/>
<path fill-rule="evenodd" clip-rule="evenodd" d="M57.1831 280.665H48.0434C48.0434 280.665 44.6146 233.36 44.5578 233.221C41.0718 224.692 39.3984 209.156 39.3984 209.156L30.066 280.665C30.066 280.665 20.9313 280.883 20.9075 280.665C19.3316 266.468 24.6626 235.126 24.6626 235.126L21.5624 191.382L24.9816 144.338L29.289 143.62L33.9167 153.466L43.3287 153.09L46.2798 142.368L49.8257 142.193L56.9708 191.381L58.5797 231.842L57.1831 280.665Z" fill="#ADADEA"/>
<path fill-rule="evenodd" clip-rule="evenodd" d="M28.3116 126.371C28.4845 128.643 30.7085 129.383 31.1162 131.404C32.2085 136.82 36.9342 142.272 41.3532 142.272C45.0987 142.272 50.5607 135.169 50.5607 127.154C50.6134 125.988 50.5571 124.819 50.3923 123.664C50.3008 122.907 41.7358 124.596 35.1568 120.939C33.0555 119.77 33.6756 127.32 32.764 127.208C32.6721 127.193 27.9839 122.063 28.3116 126.371Z" fill="#FFDFAE"/>
<path fill-rule="evenodd" clip-rule="evenodd" d="M31.4805 174.122C33.5815 175.77 36.1809 176.654 38.8511 176.628C39.0491 176.628 39.2484 176.622 39.4492 176.611C45.5669 176.327 50.3396 171.71 50.0893 166.318C50.0404 165.257 40.4188 165.276 36.4153 165.459C34.4398 165.526 32.4704 165.717 30.5186 166.029C28.706 166.36 27.8741 166.779 27.9006 167.349C28.0498 170.021 29.3571 172.494 31.4805 174.122ZM28.9133 166.836C30.9222 166.032 36.2281 165.723 40.9826 165.723C45.3751 165.723 49.2972 165.987 49.7146 166.37C49.9347 171.541 45.3293 175.963 39.4313 176.238C36.6522 176.398 33.9098 175.541 31.7157 173.828C29.678 172.268 28.4222 169.896 28.2768 167.334C28.2695 167.183 28.5015 167.001 28.9133 166.836Z" fill="#56557E"/>
<path fill-rule="evenodd" clip-rule="evenodd" d="M112.938 149.292L114.453 154.42L84.3253 163.321L82.8103 158.193L112.938 149.292Z" fill="#FF6369"/>
<path opacity="0.8" fill-rule="evenodd" clip-rule="evenodd" d="M140.287 172.079C155.976 172.079 168.694 159.361 168.694 143.672C168.694 127.983 155.976 115.265 140.287 115.265C124.598 115.265 111.88 127.983 111.88 143.672C111.88 159.361 124.598 172.079 140.287 172.079Z" fill="white"/>
<path fill-rule="evenodd" clip-rule="evenodd" d="M110.044 145.853C111.197 161.708 124.404 173.979 140.301 173.965C143.202 173.962 146.087 173.542 148.869 172.72C164.114 168.212 173.285 152.692 169.88 137.163C166.474 121.635 151.65 111.376 135.918 113.661C120.185 115.945 108.892 129.997 110.044 145.853ZM132.773 118.233C135.224 117.507 137.767 117.137 140.323 117.135C154.141 117.146 165.606 127.824 166.598 141.606C167.59 155.389 157.772 167.598 144.097 169.587C130.423 171.576 117.534 162.67 114.558 149.176C111.582 135.682 119.53 122.18 132.773 118.233Z" fill="#FF6369"/>
<path fill-rule="evenodd" clip-rule="evenodd" d="M95.9978 157.363C96.6943 159.723 95.3456 162.201 92.9855 162.897L8.89167 187.713C6.53181 188.409 4.05479 187.06 3.35846 184.7V184.7C2.66213 182.341 4.01007 179.863 6.36949 179.166L90.4633 154.35C92.8234 153.654 95.3013 155.003 95.9978 157.363Z" fill="#FF6369"/>
<path opacity="0.3" fill-rule="evenodd" clip-rule="evenodd" d="M133.671 125.005C139.048 121.546 146.828 122.683 151.739 126.372C155.528 129.347 158.204 133.512 159.335 138.195C160.003 141.024 164.36 139.826 163.692 136.994C162.214 131.021 158.649 125.774 153.641 122.201C147.452 117.916 137.941 116.893 131.393 121.103C128.956 122.671 131.218 126.583 133.673 125.004L133.671 125.005Z" fill="#FF6369"/>
<path opacity="0.3" fill-rule="evenodd" clip-rule="evenodd" d="M126.54 129.471C127.799 129.471 128.821 128.45 128.821 127.19C128.821 125.93 127.799 124.909 126.54 124.909C125.28 124.909 124.258 125.93 124.258 127.19C124.258 128.45 125.28 129.471 126.54 129.471Z" fill="#FF6369"/>
<path fill-rule="evenodd" clip-rule="evenodd" d="M91.7646 161.94C90.7231 160.459 89.7548 159.659 86.8408 161.93C85.0227 163.345 83.8961 165.259 84.9376 166.74C85.9791 168.222 88.2324 167.966 90.1172 166.64C92.0021 165.314 92.8056 163.42 91.7646 161.94Z" fill="#FFDFAE"/>
<path fill-rule="evenodd" clip-rule="evenodd" d="M17.633 180.641C15.3335 181.267 14.3272 182.735 14.734 184.228C15.1408 185.721 15.6602 186.664 19.0534 185.718C22.4611 184.768 22.4346 183.754 22.0278 182.261C21.621 180.769 19.9329 180.014 17.633 180.641Z" fill="#FFDFAE"/>
<path fill-rule="evenodd" clip-rule="evenodd" d="M18.4182 159.26L14.3849 161.548L19.5297 180.547L15.6703 181.737C15.6703 181.737 2.92148 161.399 6.86967 157.487C8.97465 155.401 15.4168 149.918 15.4168 149.918C15.4168 149.918 17.3868 155.917 18.4182 159.26Z" fill="#FFDFAE"/>
<path opacity="0.7" fill-rule="evenodd" clip-rule="evenodd" d="M426.436 97.8222C424.676 104.183 411.932 89.3241 401.849 99.5213C393.14 108.327 383.432 100.107 378.17 107.101C377.069 108.565 357.522 66.8814 360.272 64.1321C364.71 59.6934 373.007 68.5709 380.854 67.7307C387.872 66.9807 405.758 65.2693 409.877 75.0308C415.472 88.2926 429.151 88.0121 426.436 97.8222Z" fill="#F5F5F5"/>
<path fill-rule="evenodd" clip-rule="evenodd" d="M385.344 135.607C382.158 131.016 386.351 130.703 387.7 131.051C389.285 131.458 391.329 133.463 391.48 135.356C391.48 135.356 406.443 144.338 407.511 144.752C412.27 146.599 413.372 147.529 413.372 147.529L412.031 155.43C411.561 155.687 407.954 153.883 402.519 149.654C397.273 145.572 387.083 138.112 385.344 135.607Z" fill="#FFDFAE"/>
<path fill-rule="evenodd" clip-rule="evenodd" d="M410.171 154.98C410.432 155.654 414.28 156.362 416.97 156.901C421.038 157.721 424.922 155.117 424.597 152.378C424.358 150.364 413.219 146.33 412.086 146.475C411.774 146.516 409.955 154.418 410.171 154.98Z" fill="#6E8DBC"/>
<path fill-rule="evenodd" clip-rule="evenodd" d="M417.908 286.108L411.915 285.543L412.789 276.284L418.781 276.849L417.908 286.108Z" fill="#FFDFAE"/>
<path fill-rule="evenodd" clip-rule="evenodd" d="M430.243 189.858C427.225 187.485 414.937 191.116 414.937 191.116L410.516 233.235L412.028 279.028L418.76 279.688L423.187 230.574C423.187 230.574 440.467 197.899 430.243 189.858Z" fill="#6E8DBC"/>
<path fill-rule="evenodd" clip-rule="evenodd" d="M420.278 290.268L398.996 290.247C398.901 289.44 399.059 288.623 399.448 287.91L419.761 287.618L420.278 290.268Z" fill="#37474F"/>
<path fill-rule="evenodd" clip-rule="evenodd" d="M471.739 209.84L474.108 215.394L465.558 219.042L463.189 213.488L471.739 209.84Z" fill="#FFDFAE"/>
<path fill-rule="evenodd" clip-rule="evenodd" d="M435.061 147.093L419.28 145.93L413.605 155.414C412.644 157.02 410.839 160.599 410.997 162.464L414.996 192.181L433.067 228.907L436.109 233.871C437.113 235.508 439.244 236.039 440.899 235.066L469.976 217.945L467.979 211.046L442.766 220.335C442.766 220.335 438.485 199.103 435.545 194.201C432.02 188.322 435.061 147.093 435.061 147.093Z" fill="#92AED9"/>
<path fill-rule="evenodd" clip-rule="evenodd" d="M475.455 206.362L483.654 226.002C482.945 226.402 482.129 226.571 481.32 226.487L473.208 207.863L475.455 206.362Z" fill="#37474F"/>
<path fill-rule="evenodd" clip-rule="evenodd" d="M481.322 226.487C478.849 226.09 477.632 222.027 474.077 220.489C471.271 219.275 470.882 216.98 470.882 216.98C470.882 216.98 473.198 214.867 471.825 212.444C471.163 211.276 470.315 211.926 469.624 211.391C469.344 211.164 469.232 210.787 469.343 210.443L474.498 206.999L482.897 226.338C482.397 226.536 481.851 226.588 481.322 226.487Z" fill="#8F97B9"/>
<path fill-rule="evenodd" clip-rule="evenodd" d="M399.449 287.909C400.77 285.781 404.986 286.227 407.777 283.542C409.981 281.422 412.248 281.95 412.248 281.95C412.248 281.95 413.301 284.903 416.068 284.572C417.401 284.412 417.128 283.382 417.887 282.947C418.205 282.776 418.596 282.819 418.87 283.054L420.056 289.14L398.974 289.42C398.986 288.882 399.15 288.358 399.449 287.909V287.909Z" fill="#8F97B9"/>
<path fill-rule="evenodd" clip-rule="evenodd" d="M422.658 150.385L430.114 147.798L426.379 137.033L422.651 138.326L422.658 150.385Z" fill="#F4CA92"/>
<path fill-rule="evenodd" clip-rule="evenodd" d="M428.96 144.471L426.379 137.033L422.651 138.326L422.654 143.239L428.96 144.471Z" fill="#F4CA92"/>
<path fill-rule="evenodd" clip-rule="evenodd" d="M420.559 132.761C419.007 139.912 422.94 142.739 429.939 140.407C434.077 139.028 435.561 135.145 433.566 129.16C431.571 123.175 427.24 122.021 423.102 123.399C418.965 124.777 421.663 127.667 420.559 132.761Z" fill="#FFDFAE"/>
<mask id="mask0" mask-type="alpha" maskUnits="userSpaceOnUse" x="360" y="62" width="67" height="46">
<path fill-rule="evenodd" clip-rule="evenodd" d="M426.599 97.8222C424.838 104.183 412.093 89.3241 402.011 99.5213C393.302 108.327 383.595 100.107 378.332 107.101C377.231 108.565 357.684 66.8814 360.434 64.1321C364.872 59.6934 373.168 68.5709 381.016 67.7307C388.034 66.9807 405.92 65.2693 410.039 75.0308C415.635 88.2926 429.313 88.0121 426.599 97.8222Z" fill="white"/>
</mask>
<g mask="url(#mask0)">
<rect x="373.356" y="106.133" width="54.2191" height="1.12936" transform="rotate(-45 373.356 106.133)" fill="#B0C9F1"/>
<rect x="378.067" y="110.844" width="54.2191" height="1.12936" transform="rotate(-45 378.067 110.844)" fill="#B0C9F1"/>
<rect x="383.265" y="116.042" width="54.2191" height="1.12936" transform="rotate(-45 383.265 116.042)" fill="#B0C9F1"/>
<rect x="388.383" y="121.159" width="54.2191" height="1.12936" transform="rotate(-45 388.383 121.159)" fill="#B0C9F1"/>
<rect x="393.419" y="126.195" width="54.2191" height="1.12936" transform="rotate(-45 393.419 126.195)" fill="#B0C9F1"/>
<rect x="368.158" y="100.934" width="54.2191" height="1.12936" transform="rotate(-45 368.158 100.934)" fill="#B0C9F1"/>
<rect x="363.284" y="96.0609" width="54.2191" height="1.12936" transform="rotate(-45 363.284 96.0609)" fill="#B0C9F1"/>
<rect x="358.492" y="91.2684" width="54.2191" height="1.12936" transform="rotate(-45 358.492 91.2684)" fill="#B0C9F1"/>
<rect x="353.618" y="86.3949" width="54.2191" height="1.12936" transform="rotate(-45 353.618 86.3949)" fill="#B0C9F1"/>
<rect x="348.663" y="81.44" width="54.2191" height="1.12936" transform="rotate(-45 348.663 81.44)" fill="#B0C9F1"/>
<rect x="361.707" y="64.1293" width="1.12936" height="73.5381" transform="rotate(-45 361.707 64.1293)" fill="#B0C9F1"/>
<rect x="356.996" y="68.8404" width="1.12936" height="73.5381" transform="rotate(-45 356.996 68.8404)" fill="#B0C9F1"/>
<rect x="351.798" y="74.0388" width="1.12936" height="73.5381" transform="rotate(-45 351.798 74.0388)" fill="#B0C9F1"/>
<rect x="366.906" y="58.9305" width="1.12936" height="73.5381" transform="rotate(-45 366.906 58.9305)" fill="#B0C9F1"/>
<rect x="371.779" y="54.0571" width="1.12936" height="73.5381" transform="rotate(-45 371.779 54.0571)" fill="#B0C9F1"/>
<rect x="376.571" y="49.265" width="1.12936" height="73.5381" transform="rotate(-45 376.571 49.265)" fill="#B0C9F1"/>
<rect x="381.445" y="44.3911" width="1.12936" height="73.5381" transform="rotate(-45 381.445 44.3911)" fill="#B0C9F1"/>
<rect x="386.4" y="39.4366" width="1.12936" height="73.5381" transform="rotate(-45 386.4 39.4366)" fill="#B0C9F1"/>
</g>
<path fill-rule="evenodd" clip-rule="evenodd" d="M357.245 64.3481L360.315 63.071L408.934 179.935L405.865 181.212L357.245 64.3481Z" fill="#FF6369"/>
<path fill-rule="evenodd" clip-rule="evenodd" d="M384.774 131.093C383.938 131.765 383.944 133.211 384.829 134.376C385.714 135.541 387.123 135.959 387.977 135.311C388.831 134.662 388.806 133.192 387.921 132.028C387.037 130.863 386.028 130.082 384.774 131.093Z" fill="#FFDFAE"/>
<path fill-rule="evenodd" clip-rule="evenodd" d="M396.429 161.218C395.249 159.251 395.909 157.866 397.019 157.024C398.25 156.09 401.509 159.626 402.069 160.123L417.11 161.45L424.749 159.501L426.286 166.132C425.77 167.047 418.799 168.56 417.542 168.342L402.131 163.908C400.832 164.307 397.999 163.833 396.429 161.218Z" fill="#FFDFAE"/>
<path fill-rule="evenodd" clip-rule="evenodd" d="M423.366 168.02C425.481 168.159 427.386 166.974 429.704 166.115C433.212 164.817 434.855 160.785 433.228 158.683C432.03 157.136 428.399 156.987 425.818 157.943C423.741 158.711 421.167 158.613 420.168 160.326C420.022 160.576 422.158 167.941 423.366 168.02Z" fill="#6E8DBC"/>
<path fill-rule="evenodd" clip-rule="evenodd" d="M445.863 134.945C446.604 134.504 435.179 123.07 425.095 119.384C420.938 117.864 415.997 123.114 424.634 129.222C433.23 135.298 441.597 137.481 445.863 134.945Z" fill="#D8984D"/>
<path fill-rule="evenodd" clip-rule="evenodd" d="M423.885 134.893C424.742 135.597 423.64 132.114 425.075 132.424C426.812 132.8 422.728 138.638 424.846 142.012C427.099 145.6 422.551 161.917 435.12 158.31C437.949 157.498 437.617 160.538 441.272 160.412C447.231 160.206 445.135 163.351 447.239 166.556C454.542 177.68 468.953 159.986 463.536 158.365C457.829 156.657 459.13 142.441 450.357 143.85C448.238 144.19 444.479 141.802 444.301 138.329C444.205 136.453 440.528 138.301 437.444 135.836C435.554 134.326 435.293 133.856 434.773 131.739C433.45 126.35 429.836 124.537 426.926 124.974C425.434 125.198 423.572 123.922 422.29 123.992C419.178 124.163 418.352 131.356 423.702 131.603C424.049 131.618 423.602 134.66 423.885 134.893Z" fill="#694A52"/>
<path fill-rule="evenodd" clip-rule="evenodd" d="M445.913 134.97C445.355 135.621 436.921 131.775 424.315 130.086C411.205 128.33 409.529 122.207 411.831 118.251C412.25 117.529 426.205 115.957 437.06 121.467C447.915 126.977 448.935 131.448 445.913 134.97Z" fill="#F9B25F"/>
<path fill-rule="evenodd" clip-rule="evenodd" d="M438.221 127.668C437.897 128.43 436.231 128.396 428.972 125.814C421.675 123.22 421.298 122.05 421.578 121.392C423.683 116.437 429.14 113.753 433.764 115.397C438.387 117.041 440.328 122.714 438.221 127.668Z" fill="#37474F"/>
<path fill-rule="evenodd" clip-rule="evenodd" d="M438.617 126.987C438.293 127.749 436.628 127.715 429.368 125.133C422.071 122.538 421.694 121.368 421.974 120.711C424.079 115.756 429.536 113.072 434.16 114.716C438.783 116.36 440.724 122.033 438.617 126.987Z" fill="#F9B25F"/>
</svg>
